<?xml version="1.0" encoding="utf-8"?>
<!-- Generator: Adobe Illustrator 21.1.0, SVG Export Plug-In . SVG Version: 6.00 Build 0)  -->
<svg version="1.1" id="Слой_1" xmlns="http://www.w3.org/2000/svg" xmlns:xlink="http://www.w3.org/1999/xlink" x="0px" y="0px"
	 viewBox="0 0 1848.8 738.1" style="enable-background:new 0 0 1848.8 738.1;" xml:space="preserve">
<g id="Layer_2__x2B__Group_1__x2B__Group_1_copy_xA0_Image_1_">
</g>
<g id="aK6tu5.tif">
	<g>
		<path d="M1729.6,264.3c-0.3,4.4-0.6,8.9-1,13.3c-3.1,35.8-14.8,68.2-38.2,96c-19.2,22.7-43.1,38.9-70.3,50.5
			c-17.7,7.6-36.1,13.4-55.3,14.8c-19.2,1.4-38.5,1.9-57.7,2.6c-8,0.3-16,0.1-24,0.1c-0.9,0-1.7,0-2.9,0c0,2.8,0,5.4,0,7.9
			c-0.1,20.4-0.1,40.8-0.1,61.2c0,1.8-0.6,2.9-2,3.9c-27.8,20.5-55.6,41-83.4,61.5c-0.7,0.5-1.4,1-2.3,1.6c0-170.8,0-341.1,0-511.7
			c1.1,0,2,0,2.9,0c51.3,0.2,102.5,0.1,153.8,0.6c20.4,0.2,40.1,4.8,59.3,11.4c29,9.9,54.6,25.3,75.4,48.1
			c19.7,21.6,32.1,47.1,39,75.4c3.8,15.7,5.8,31.6,6.3,47.7c0,1.2,0.3,2.3,0.4,3.5C1729.6,256.6,1729.6,260.5,1729.6,264.3z
			 M1479.9,146c-0.1,1.1-0.1,1.7-0.1,2.2c-0.1,69.8-0.2,139.6-0.3,209.4c0,1.9,0.6,2.5,2.4,2.6c10.8,0.6,21.7,1.8,32.5,1.9
			c20.2,0.2,40-2.8,59-10c27.2-10.4,47.1-28.3,57.3-55.9c8.5-23.3,9.9-47.3,5.6-71.6c-3.1-17.7-10.6-33.3-23.2-46.2
			c-11.7-11.9-25.8-19.7-41.5-25c-23.2-7.8-47.2-9.8-71.4-8.9C1493.4,144.8,1486.7,145.5,1479.9,146z"/>
		<path d="M1300.9,645.3c0-68.2,0-135.8,0-203.7c-1.1,0-2,0-2.8,0c-20.8-0.4-41.6-0.6-62.4-1.2c-45.3-1.3-86-16-121.6-44
			c-32.3-25.5-51.9-58.9-59-99.4c-7.2-41.4-4-82.2,11.4-121.4c17.1-43.4,48.4-73.2,90.9-91.6c22.8-9.9,46.6-15.8,71.4-17.2
			c13.8-0.7,27.7-0.3,41.5-0.3c38.3-0.1,76.6-0.3,115-0.4c1,0,1.9,0,3.2,0c0,1.1,0,2,0,2.9c0,169.8,0,339.5,0,509.3
			c0,1.5-0.2,2.6-1.6,3.7c-28.1,20.7-56.1,41.4-84.2,62.1C1302.4,644.3,1301.9,644.6,1300.9,645.3z M1301.5,146.3
			c-1.7-0.2-3-0.4-4.3-0.6c-15.5-1.7-31.1-1.9-46.7-0.5c-17.1,1.5-33.8,4.8-49.7,11.6c-27.3,11.6-46.2,30.8-53.9,59.9
			c-5.5,20.6-5.1,41.5-1.1,62.3c3.8,19.3,12,36.5,26.1,50.5c14.3,14.1,31.7,22.5,50.9,27.3c25.5,6.4,51.2,6.8,77.2,3.4
			c1.8-0.2,1.9-1.2,1.9-2.6c-0.1-9.9-0.1-19.8-0.1-29.7c-0.1-56.5-0.1-113.1-0.2-169.6C1301.5,154.4,1301.5,150.5,1301.5,146.3z"/>
		<path d="M932.6,158c1.6,0,3.1,0,4.8,0c0,119.5,0,239,0,358.7c-1.5,0-3.1,0-4.8,0C932.6,397.2,932.6,277.7,932.6,158z"/>
		<path d="M816.8,238.8c2.8,0,5.4,0,8,0c0,8.4,0,16.5,0,24.8c-1.6,0-3.2,0-5.1,0c0-6.4,0-12.8,0-19.4c-19.1,0-38,0-57.2,0
			c0,6.4,0,12.9,0,19.5c-1.9,0-3.5,0-5.2,0c0-8.2,0-16.3,0-24.6c0.5-0.1,1-0.3,1.5-0.2c3.1,0.6,4.6-0.9,6-3.6
			c8.8-17.9,14.3-36.9,17.4-56.6c0.7-4.3,1-8.7,1.5-13.2c11,0,21.9,0,33.2,0C816.8,189.9,816.8,214.2,816.8,238.8z M769.2,238.6
			c14.1,0,28,0,42,0c0-22.7,0-45.2,0-67.8c-7.7,0-15.2,0-22.9,0C785.7,194.5,780.1,217.2,769.2,238.6z"/>
		<path d="M554,233.2c0,3.9,0,7.8,0,11.7c-1.9,0-3.6,0-5.6,0c0-4,0-7.8,0-11.8c-10.2-0.2-19.5-2-26.5-9.9
			c-4.9-5.5-6.5-12.2-6.6-19.3c-0.1-8.9,2.6-16.7,9.4-22.7c6.7-5.8,14.8-7.4,23.6-7.2c0-3.2,0-6.2,0-9.5c1.9,0,3.6,0,5.6,0
			c0,3.1,0,6.1,0,9.4c10.6-0.1,20.3,1.5,27.3,10c5,6,6.1,13.2,5.9,20.7C586.6,222.3,576.8,230.8,554,233.2z M554.1,228.3
			c1.5,0,2.9,0.1,4.2,0c11.3-0.6,19.7-7,21.9-17.4c0.9-4.1,1-8.5,0.7-12.6c-1.2-13.2-11.6-21.1-26.8-19.5
			C554.1,195.2,554.1,211.6,554.1,228.3z M548.3,178.5c-9.9-0.2-18.8,1.9-23.7,10.9c-5.3,9.8-5,20,1.1,29.4
			c5.2,7.9,13.6,9.7,22.6,9.6C548.3,211.7,548.3,195.2,548.3,178.5z"/>
		<path d="M738.2,466.5c3,1,5.9,1.7,8.6,3c5.5,2.5,8.4,6.9,9,12.9c1.4,14.3-6.3,23.9-21,25.1c-9.9,0.8-19.8,0.4-29.7,0.4
			c-0.1,0-0.3-0.1-0.6-0.3c0-25.9,0-51.9,0-78c0.2-0.1,0.5-0.3,0.8-0.2c9.8,0.1,19.5,0.2,29.2,0.6c2.7,0.1,5.5,1,8.1,1.9
			c7.8,2.9,11.8,9.3,11.4,18c-0.4,8-4.9,13.6-13,15.8C740.2,466.1,739.2,466.3,738.2,466.5z M709.8,468.8c0,11.5,0,22.1,0,32.7
			c0,1.4,0.7,1.6,1.8,1.6c7.2-0.1,14.4,0.1,21.6-0.3c6.4-0.4,12.1-2.6,15.2-8.8c5.2-10.7,0.2-21.7-11.5-23.5
			C728,469,719,469.3,709.8,468.8z M709.9,433.8c0,10.6,0,20.4,0,30.9c8.7-0.4,17.4-0.2,25.9-1.3c9-1.2,12.7-6.4,12.3-15.5
			c-0.3-6.9-4.5-11.7-12.6-12.7C727.1,434.3,718.6,434.3,709.9,433.8z"/>
		<path d="M412.6,367.2c8-12.1,15.7-23.6,23.4-35.1c6.9-10.3,13.9-20.5,20.5-31c2-3.2,4.2-4.5,8-3.4c0,25.9,0,51.9,0,78.1
			c-1.7,0-3.3,0-4.9,0c0-23.1,0-46.2,0-69.6c-0.6,0.8-1,1.5-1.5,2.2c-14.3,21.4-28.6,42.8-42.8,64.3c-2,3.1-4.2,3.9-7.6,3
			c0-26,0-52,0-78.2c1.6,0,3.2,0,4.9,0C412.6,320.6,412.6,343.5,412.6,367.2z"/>
		<path d="M616.3,336.7c-0.9,5.3-1.2,10.7-2.7,15.7c-4.9,17.3-18.5,26-36.8,24.5c-18.7-1.6-27.8-14.9-30.3-29.1
			c-1.6-8.8-1.5-17.7,0.9-26.4c4.5-16.8,18.1-26.2,35.4-25.2c20.1,1.1,29.9,15.1,32.2,30.9c0.5,3.2,0.6,6.4,0.8,9.5
			C616,336.6,616.1,336.7,616.3,336.7z M551.4,336.6c0.3,3.3,0.4,6.5,0.9,9.8c2,14.4,10.4,23.5,23.8,25.1
			c14.8,1.8,26.9-3.8,31.5-19.3c3.1-10.3,3-20.9,0-31.2c-2.8-9.6-8.7-16.3-18.8-18.5c-3.7-0.8-7.6-1-11.4-0.7
			c-10.5,0.6-18,5.8-22.4,15.4C552.3,323.4,551.5,329.9,551.4,336.6z"/>
		<path d="M599.6,204.4c0.8-5.1,1.2-10.3,2.6-15.3c4.5-16.6,18-25.8,35.2-24.9c20.4,1,30.4,15.5,32.5,32c1,8.1,0.8,16.1-1.5,24
			c-5.1,17.5-18.6,26.3-37.1,24.7c-18.9-1.6-28.4-15.7-30.5-31.4c-0.4-3-0.5-6-0.7-9.1C599.8,204.4,599.7,204.4,599.6,204.4z
			 M664.4,202.6c-0.3-2.1-0.5-6.4-1.4-10.5c-2-9.5-6.8-17-16.3-20.6c-4.4-1.7-9-2-13.7-1.8c-12.4,0.7-21,7.2-24.7,19.1
			c-3.3,10.7-3.2,21.6,0.2,32.3c2.8,8.7,8.3,15.2,17.5,17.5c3.9,1,8.1,1.3,12.1,1.1c11.2-0.6,19-6.2,23.2-16.7
			C663.6,217.1,664.2,210.9,664.4,202.6z"/>
		<path d="M406.4,428.2c18,0,30.8,10.8,34,28.8c1.7,9.4,1.6,18.8-1.3,28c-5.2,16.9-18.6,25.4-36.8,23.9
			c-18.6-1.6-28.3-15.2-30.5-31.1c-1.1-7.7-1-15.5,0.9-23.1C376.7,437.9,389.1,428.2,406.4,428.2z M435.8,469.8
			c-0.7-5.5-0.9-9.7-1.8-13.9c-2.1-9.5-6.9-17-16.4-20.6c-4.5-1.7-9.2-2-13.9-1.7c-11.9,0.8-20,6.7-23.9,17.9
			c-4,11.5-3.8,23.3,0.2,34.8c2.9,8.3,8.5,14.2,17.1,16.3c4,1,8.4,1.3,12.6,1c11.5-0.8,19.5-6.9,23-17.9
			C434.4,480.2,435,474.4,435.8,469.8z"/>
		<path d="M787.2,340.8c-0.6-0.2-1-0.4-1.4-0.5c-11.6-3.4-17.3-12.2-15.6-24.2c1.3-9.2,6.5-14.9,15.4-17.2c10.3-2.7,20.8-1,31.3-1.6
			c0,26.3,0,52.3,0,78.4c-1.7,0-3.4,0-5.4,0c0-11.2,0-22.5,0-34.1c-1.4,0-2.4,0-3.5,0c-4.3,0-8.6,0.1-13,0c-1.7,0-2.6,0.6-3.4,1.9
			c-5.9,9.8-12,19.4-17.8,29.3c-1.4,2.3-2.9,3.6-5.6,3.1c-0.8-0.1-1.6,0-3,0C772.7,364.1,779.9,352.6,787.2,340.8z M811.4,302.4
			c-4.8,0-9.2,0-13.7,0c-2.1,0-4.2,0.1-6.2,0.5c-4.9,0.8-9.6,2-12.7,6.4c-7.3,10.3-1.5,25.1,10.9,27c7,1,14.2,0.5,21.3,0.7
			c0.1,0,0.2-0.2,0.4-0.3C811.4,325.3,811.4,314,811.4,302.4z"/>
		<path d="M622.7,371.1c1.6,0.3,3,0.6,4.4,0.8c3.7,0.6,6.7-0.9,8-4.2c1.8-4.7,3.5-9.6,4.3-14.6c3-18.1,5.5-36.3,8.2-54.5
			c0-0.3,0.1-0.6,0.2-1c12.8,0,25.6,0,38.5,0c0,26.1,0,52.1,0,78.3c-1.8,0-3.5,0-5.5,0c0-24.4,0-48.6,0-73c-9.6,0-18.9,0-28.4,0
			c-0.6,4.9-1.1,9.8-1.9,14.7c-2.5,15.2-5,30.4-7.7,45.6c-0.6,3.1-2,6.1-3.6,8.8c-3,5-10.2,6.9-15.5,4.5c-0.5-0.2-1-1-1.1-1.5
			C622.6,373.6,622.7,372.4,622.7,371.1z"/>
		<path d="M688.5,165.5c1.8,0,3.4,0,5.2,0c0,11.5,0,23,0,34.6c15.4,0,30.5,0,46,0c0-11.6,0-23,0-34.6c1.9,0,3.6,0,5.4,0
			c0,26.1,0,52.1,0,78.3c-1.7,0-3.3,0-5.3,0c0-12.8,0-25.5,0-38.4c-15.4,0-30.5,0-45.9,0c0,12.8,0,25.5,0,38.4c-1.9,0-3.6,0-5.4,0
			C688.5,217.8,688.5,191.7,688.5,165.5z"/>
		<path d="M379.7,297.5c2,0,3.6,0,5.3,0c0,26.1,0,52.1,0,78.3c-1.7,0-3.3,0-5.3,0c0-12.8,0-25.5,0-38.4c-15.4,0-30.5,0-45.9,0
			c0,12.8,0,25.5,0,38.4c-1.9,0-3.6,0-5.4,0c0-26.1,0-52.1,0-78.2c1.7,0,3.3,0,5.3,0c0,11.5,0,23,0,34.6c1,0.1,1.7,0.1,2.4,0.1
			c13.7,0,27.4,0,41,0c2,0,2.6-0.6,2.5-2.6c-0.1-9.8,0-19.7,0-29.5C379.7,299.4,379.7,298.6,379.7,297.5z"/>
		<path d="M238.2,508c-1.9,0-3.5,0.2-5.1-0.1c-0.7-0.1-1.5-1.1-1.8-1.8c-3.2-7.9-6.3-15.9-9.4-23.8c-0.6-1.5-1.3-2-2.9-2
			c-9.3,0.1-18.5,0.1-27.8,0c-1.6,0-2.2,0.5-2.8,1.9c-2.9,7.6-6,15.1-8.9,22.7c-0.9,2.4-2,3.6-4.6,3.1c-0.8-0.1-1.5-0.1-2.6-0.1
			c0.3-0.9,0.4-1.5,0.7-2.2c9.9-24.8,19.9-49.6,29.8-74.4c0.5-1.3,0.9-2.3,2.8-2.3c1.8,0,2,1.2,2.5,2.3
			c9.7,24.7,19.4,49.5,29.1,74.2C237.6,506.2,237.8,506.8,238.2,508z M205.5,438.6c-4.7,12.1-9.4,24.3-14.1,36.6
			c9.4,0,18.5,0,27.9,0C214.6,462.8,210,450.7,205.5,438.6z"/>
		<path d="M762.2,507.9c3.9-9.7,7.6-18.9,11.3-28.2c6.4-16.1,12.9-32.2,19.3-48.3c0.5-1.2,0.7-2.5,2.7-2.4c1.9,0,2.2,1.1,2.7,2.4
			c9.7,24.7,19.4,49.4,29.1,74c0.3,0.7,0.5,1.5,0.9,2.6c-1.9,0-3.6,0.2-5.2-0.1c-0.6-0.1-1.3-1-1.6-1.7c-3.2-7.9-6.3-15.7-9.3-23.6
			c-0.6-1.7-1.4-2.3-3.2-2.3c-9.1,0.1-18.2,0.1-27.4,0c-1.7,0-2.5,0.5-3.1,2.1c-2.9,7.5-6,15-8.8,22.5c-0.9,2.4-2.1,3.6-4.6,3.1
			C764.1,507.9,763.3,507.9,762.2,507.9z M781.3,475.2c9.4,0,18.5,0,27.9,0c-4.7-12.4-9.2-24.5-13.7-36.6
			C790.8,450.6,786.1,462.8,781.3,475.2z"/>
		<path d="M763.5,376c-1.9,0-3.6,0.2-5.2-0.1c-0.6-0.1-1.3-1-1.6-1.7c-3.2-7.9-6.3-15.9-9.4-23.8c-0.6-1.4-1.1-2.1-2.9-2.1
			c-9.3,0.1-18.6,0.1-27.8,0c-1.5,0-2.2,0.4-2.8,1.9c-3,7.8-6.1,15.4-9.1,23.2c-0.8,2.2-1.9,3.1-4.2,2.7c-0.9-0.1-1.7,0-2.9,0
			c0.3-0.9,0.5-1.5,0.7-2.1c10-24.9,19.9-49.8,29.9-74.7c0.5-1.3,0.9-2.2,2.6-2.2c1.6,0,2,0.8,2.5,2c9.8,25,19.6,49.9,29.4,74.9
			C763,374.5,763.2,375.1,763.5,376z M730.9,306.6c-4.8,12.3-9.4,24.4-14.1,36.5c9.4,0,18.5,0,27.8,0
			C740,330.8,735.4,318.8,730.9,306.6z"/>
		<path d="M643.6,429.6c14.4,0,28.5,0,42.8,0c0,1.6,0,3.1,0,4.9c-12.3,0-24.7,0-37.2,0c0,10,0,19.7,0,29.7c11.7,0,23.2,0,35,0
			c0,1.8,0,3.3,0,5.1c-11.6,0-23.2,0-34.9,0c0,11.2,0,22.3,0,33.7c12.3,0,24.6,0,37.1,0c0,1.8,0,3.2,0,5c-0.6,0.1-1.3,0.2-2,0.2
			c-12.9,0-25.8,0-38.6,0c-1.8,0-2.3-0.5-2.3-2.3c0.1-24.8,0-49.6,0-74.4C643.6,430.8,643.6,430.3,643.6,429.6z"/>
		<path d="M538.4,375.8c-4.4,0.5-7.6,0.3-10.7-3.1c-10.8-11.7-22.1-22.9-33.1-34.3c-0.6-0.6-1.1-1.3-1.7-2c-0.2,0.1-0.4,0.2-0.6,0.3
			c0,13,0,26.1,0,39.2c-2,0-3.6,0-5.4,0c0-26.2,0-52.2,0-78.3c1.8,0,3.4,0,5.2,0c0,12.5,0,24.8,0,37.8c1-1,1.6-1.5,2.2-2.1
			c11-11.1,22-22.1,32.9-33.2c1.9-1.9,3.7-3,6.4-2.6c0.9,0.1,1.9,0,3.1,0c-12.7,12.6-25.3,25-38,37.5
			C512.4,348.9,525.2,362.2,538.4,375.8z"/>
		<path d="M124.5,475.5c0,11,0,21.6,0,32.3c-1.8,0-3.5,0-5.3,0c0-26.1,0-52.1,0-78.4c6.7,0,13.4-0.1,20.1,0c3,0.1,6.1,0.4,9,0.9
			c10.9,2,17,8.5,17.9,18.9c1,11.7-4,20.3-14.6,23.8c-4.3,1.4-8.9,1.9-13.4,2.3C133.8,475.8,129.3,475.5,124.5,475.5z M124.7,434.3
			c0,12.3,0,24.3,0,36.4c4,0,7.8,0,11.6,0c1.6,0,3.2,0.1,4.8-0.2c3-0.5,6-0.9,8.9-1.8c5.6-1.8,8.9-5.8,9.9-11.5
			c0.4-2.5,0.5-5.1,0.3-7.6c-0.7-7.5-4.6-11.9-11.8-13.9C140.6,433.6,132.6,434.6,124.7,434.3z"/>
		<path d="M459.6,429c9.9,0.5,19.7,0.3,29.4,1.6c10.7,1.4,16.8,8.4,17.6,18.5c1,11.8-3.8,20.4-14.1,23.9c-4.3,1.5-9,2.1-13.6,2.5
			c-4.5,0.4-9.1,0.1-13.9,0.1c0,10.8,0,21.5,0,32.3c-1.9,0-3.5,0-5.4,0C459.6,481.8,459.6,455.7,459.6,429z M465,434.3
			c0,12.4,0,24.3,0,36.4c4.8,0,9.4,0.1,14,0c2,0,4-0.2,6-0.6c6.2-1.1,12.1-3.1,14.2-9.7c1.1-3.4,1.5-7.2,1.2-10.8
			c-0.6-7.8-4.6-12-12.2-14C480.6,433.6,472.9,434.6,465,434.3z"/>
		<path d="M572.3,502.5c3.5,0.5,6.9,1.1,10.3,1.3c4.4,0.2,8.2-1.5,10.8-5.1c2.1-2.9,3.9-6,5.6-9.2c0.4-0.7-0.1-2.1-0.6-3
			c-9.3-17.6-18.6-35.2-27.9-52.8c-0.7-1.3-1.4-2.7-2.2-4.3c1.8,0,3.4-0.2,4.8,0.1c0.9,0.1,2,0.7,2.4,1.4
			c8.9,17.1,17.6,34.2,26.4,51.3c0.1,0.1,0.2,0.2,0.4,0.6c0.6-1.4,1.2-2.8,1.8-4.1c6.9-15.4,13.9-30.9,20.7-46.4
			c1-2.3,2.2-3.3,4.6-2.9c0.8,0.1,1.7,0,2.8,0c-0.2,0.7-0.3,1.1-0.5,1.5c-9.6,21-19.2,42-28.8,62.9c-0.5,1.1-1.1,2.1-1.7,3.2
			c-6,10.5-14,14-25.8,11.4c-2.3-0.5-3.6-1.3-3.1-3.9C572.5,503.8,572.3,503,572.3,502.5z"/>
		<path d="M303.1,432.7c-0.7,1.6-1.4,3.1-1.9,4.3c-4.7-1.2-9.1-2.7-13.7-3.4c-18.5-2.8-33.5,8.7-35.8,27.3c-1,8-0.8,16,1.8,23.7
			c4,11.9,13.3,18.9,25.9,19.3c3.5,0.1,7,0,10.5-0.4c3.4-0.3,6.7-1.1,10.1-1.7c0.5,4.7,0.5,4.8-3.9,5.7c-7.6,1.6-15.2,2.3-22.9,1
			c-12.3-2.1-20.8-9.2-25-20.9c-4.5-12.7-4.7-25.6,0.6-38.2c5.5-13.1,16-19.7,30-20.8c7.2-0.6,14.4,0.2,21.2,2.8
			c0.7,0.3,1.3,0.5,2,0.8C302.4,432.3,302.7,432.4,303.1,432.7z"/>
		<path d="M338.2,507.9c-2.1,0-3.7,0-5.6,0c0-24.4,0-48.7,0-73.1c-8.6,0-16.9,0-25.4,0c0-1.8,0-3.4,0-5.2c18.7,0,37.4,0,56.2,0
			c0,1.6,0,3.1,0,5c-8.3,0-16.7,0-25.2,0C338.2,459.1,338.2,483.4,338.2,507.9z"/>
		<path d="M529.3,507.9c-2,0-3.6,0-5.4,0c0-26.2,0-52.2,0-78.3c14.2,0,28.4,0,42.7,0c0,1.6,0,3.1,0,4.9c-12.4,0-24.7,0-37.3,0
			C529.3,459.1,529.3,483.3,529.3,507.9z"/>
	</g>
</g>
</svg>
