<?xml version="1.0" encoding="utf-8"?>
<!-- Generator: Adobe Illustrator 16.0.0, SVG Export Plug-In . SVG Version: 6.00 Build 0)  -->
<!DOCTYPE svg PUBLIC "-//W3C//DTD SVG 1.1//EN" "http://www.w3.org/Graphics/SVG/1.1/DTD/svg11.dtd">
<svg version="1.1" xmlns="http://www.w3.org/2000/svg" xmlns:xlink="http://www.w3.org/1999/xlink" x="0px" y="0px"
	 width="1848.839px" height="738.074px" viewBox="0 0 1848.839 738.074" enable-background="new 0 0 1848.839 738.074"
	 xml:space="preserve">
<g id="Layer_2__x2B__Group_1__x2B__Group_1_copy_xA0_Image_1_">
</g>
<g id="Фонд_поддержки_кинематографии_Николая_Расторгуева_1_">
	<g>
		<g>
			<defs>
				<rect id="SVGID_1_" x="784.787" y="-262.415" width="1133.861" height="1133.859"/>
			</defs>
			<clipPath id="SVGID_2_">
				<use xlink:href="#SVGID_1_"  overflow="visible"/>
			</clipPath>
			<g clip-path="url(#SVGID_2_)">
				<polygon fill="none" points="1348.001,606.177 1348.001,94.369 1344.238,94.367 1344.238,608.956 				"/>
				<path fill="none" d="M1594.056,276.593c-0.301-126.668-158.666-102-158.666-102l-0.334,213.668
					C1435.056,388.262,1594.39,416.927,1594.056,276.593z"/>
				<path fill="none" d="M1098.376,276.593c-0.332,140.333,159,111.668,159,111.668l-0.332-213.668
					C1257.044,174.593,1098.679,149.925,1098.376,276.593z"/>
				<linearGradient id="SVGID_3_" gradientUnits="userSpaceOnUse" x1="1007.1401" y1="350.2725" x2="1684.9626" y2="350.2725">
					<stop  offset="0" style="stop-color:#4B9CD6"/>
					<stop  offset="0.1376" style="stop-color:#4B9CD6"/>
					<stop  offset="1" style="stop-color:#106CB6"/>
				</linearGradient>
				<path fill="url(#SVGID_3_)" d="M1435.787,541.349l0.146-71.449c0,0,73.662,0.73,97.494-4.5
					c0.629-0.139,157.492-24,151.492-187.492c-6.645-181.09-179.99-182.99-179.99-182.99l-156.562-0.549h-0.365v511.808
					L1435.787,541.349z M1435.39,174.593c0,0,158.365-24.668,158.666,102c0.334,140.333-159,111.668-159,111.668L1435.39,174.593z"
					/>
				<linearGradient id="SVGID_4_" gradientUnits="userSpaceOnUse" x1="1007.3472" y1="383.9824" x2="1685.1677" y2="383.9824">
					<stop  offset="0" style="stop-color:#4B9CD6"/>
					<stop  offset="0.1376" style="stop-color:#4B9CD6"/>
					<stop  offset="1" style="stop-color:#106CB6"/>
				</linearGradient>
				<path fill="url(#SVGID_4_)" d="M1344.238,94.367h-0.172l-156.561,0.549c0,0-173.346,1.902-179.99,182.992
					c-6.002,163.492,150.861,187.353,151.49,187.49c23.832,5.232,97.496,4.5,97.496,4.5l0.166,203.656l0.037,0.045l87.533-64.643
					V94.367z M1098.376,276.593c0.303-126.668,158.668-102,158.668-102l0.332,213.668
					C1257.376,388.262,1098.044,416.927,1098.376,276.593z"/>
			</g>
		</g>
		<rect x="888.101" y="186.22" fill="#4F9DD4" width="5" height="359"/>
		<g>
			<rect x="-69.808" y="188.687" fill="none" width="853.595" height="356.533"/>
			<path fill="#4F9DD4" d="M504.114,192.633h5.479v9.668h2.31c9.847,0,17.465,2.524,22.854,7.573
				c5.39,5.049,8.084,12.067,8.084,21.055c0,6.23-1.244,11.62-3.732,16.167c-2.489,4.548-6.178,8.048-11.064,10.5
				c-4.889,2.453-10.842,3.679-17.859,3.679h-0.591v12.085h-5.479v-12.085h-0.967c-6.911,0-12.775-1.217-17.59-3.652
				c-4.816-2.435-8.459-5.854-10.93-10.259s-3.706-9.668-3.706-15.791c0-5.586,1.253-10.625,3.76-15.12
				c2.506-4.493,6.104-7.976,10.796-10.447c4.69-2.471,10.24-3.706,16.65-3.706h1.987V192.633z M504.114,206.813h-2.202
				c-7.842,0-13.983,2.185-18.423,6.553c-4.44,4.369-6.66,10.331-6.66,17.886c0,8.129,2.3,14.413,6.902,18.853
				c4.601,4.44,11.109,6.66,19.524,6.66h0.859V206.813z M509.592,256.764h0.806c8.45,0,14.977-2.229,19.578-6.687
				c4.601-4.458,6.901-10.769,6.901-18.933c0-7.842-2.148-13.857-6.445-18.047s-10.474-6.284-18.53-6.284h-2.31V256.764z"/>
			<path fill="#4F9DD4" d="M625.93,232.917c0,12.461-3.115,22.317-9.346,29.568s-14.824,10.876-25.781,10.876
				c-10.922,0-19.497-3.625-25.728-10.876s-9.346-17.142-9.346-29.675c0-12.496,3.142-22.334,9.427-29.514
				c6.283-7.179,14.868-10.769,25.754-10.769c10.957,0,19.532,3.608,25.728,10.823C622.833,210.564,625.93,220.42,625.93,232.917z
				 M561.692,232.917c0,11.244,2.506,19.936,7.52,26.077c5.013,6.142,12.21,9.211,21.592,9.211c9.453,0,16.678-3.043,21.672-9.131
				c4.996-6.087,7.493-14.806,7.493-26.157c0-11.314-2.497-19.989-7.493-26.023c-4.994-6.033-12.184-9.05-21.564-9.05
				c-9.346,0-16.552,3.044-21.619,9.131C564.225,213.062,561.692,221.709,561.692,232.917z"/>
			<path fill="#4F9DD4" d="M700.857,272.287h-5.532v-38.618h-45.869v38.618h-5.479v-78.525h5.479v34.858h45.869v-34.858h5.532
				V272.287z"/>
			<path fill="#4F9DD4" d="M780.51,292.106h-5.264v-19.819h-57.202v19.819h-5.317V267.13h5.64
				c5.299-9.202,9.954-20.884,13.965-35.046c4.01-14.161,6.248-26.936,6.714-38.323h33.408v73.369h8.057V292.106z M766.868,267.13
				v-68.213h-23.096c-0.859,11.279-3.115,23.437-6.768,36.47c-3.652,13.034-7.824,23.615-12.515,31.743H766.868z"/>
			<path fill="#4F9DD4" d="M340.886,404.286h-5.532v-38.618h-45.869v38.618h-5.479v-78.525h5.479v34.858h45.869v-34.858h5.532
				V404.286z"/>
			<path fill="#4F9DD4" d="M363.123,325.761h5.264v51.348c0,3.652-0.144,9.775-0.43,18.369h0.322l46.406-69.716h5.532v78.525H414.9
				v-51.025c0-5.801,0.232-12.066,0.698-18.799h-0.43l-46.567,69.824h-5.479V325.761z"/>
			<path fill="#4F9DD4" d="M494.231,404.286h-7.466l-38.833-40.014v40.014h-5.479v-78.525h5.479v38.027l37.759-38.027h7.251
				l-37.974,38.027L494.231,404.286z"/>
			<path fill="#4F9DD4" d="M571.36,364.917c0,12.461-3.115,22.317-9.346,29.568s-14.824,10.876-25.781,10.876
				c-10.922,0-19.497-3.625-25.728-10.876s-9.346-17.142-9.346-29.675c0-12.496,3.142-22.334,9.426-29.514
				c6.284-7.179,14.869-10.769,25.754-10.769c10.957,0,19.532,3.608,25.728,10.823C568.262,342.564,571.36,352.42,571.36,364.917z
				 M507.122,364.917c0,11.244,2.506,19.936,7.52,26.077c5.013,6.142,12.21,9.211,21.592,9.211c9.453,0,16.678-3.043,21.672-9.13
				c4.996-6.087,7.493-14.806,7.493-26.157c0-11.314-2.497-19.989-7.493-26.023c-4.994-6.033-12.184-9.05-21.564-9.05
				c-9.346,0-16.552,3.044-21.619,9.131C509.654,345.062,507.122,353.709,507.122,364.917z"/>
			<path fill="#4F9DD4" d="M642.097,404.286h-5.532v-73.369h-28.467c-1.469,12.139-3.026,23.651-4.673,34.536
				c-1.647,10.886-3.035,18.638-4.162,23.257c-1.129,4.619-2.311,8.048-3.545,10.286c-1.236,2.238-2.731,3.886-4.485,4.941
				c-1.755,1.056-3.975,1.585-6.66,1.585c-2.399,0-4.494-0.449-6.284-1.344v-4.941c2.184,0.789,4.207,1.182,6.069,1.182
				c3.115,0,5.541-1.934,7.278-5.801c1.736-3.867,3.634-12.209,5.693-25.029c2.059-12.818,4.108-27.428,6.149-43.828h38.618V404.286
				z"/>
			<path fill="#4F9DD4" d="M702.146,376.572h-31.904l-10.957,27.714h-6.069l31.582-78.847h3.491l30.938,78.847h-6.177
				L702.146,376.572z M672.229,371.63h28.091l-10.688-28.306c-0.896-2.22-1.97-5.299-3.223-9.238
				c-0.967,3.438-2.023,6.553-3.169,9.346L672.229,371.63z"/>
			<path fill="#4F9DD4" d="M748.499,370.073l-21.001,34.213h-6.606l22.075-35.288c-5.479-1.074-9.722-3.419-12.729-7.036
				c-3.008-3.616-4.512-8.164-4.512-13.643c0-15.039,9.417-22.559,28.252-22.559h18.691v78.525h-5.479v-34.213H748.499z
				 M767.19,330.703h-12.998c-7.914,0-13.651,1.37-17.214,4.109c-3.563,2.739-5.345,7.153-5.345,13.24
				c0,5.729,1.754,10.044,5.264,12.944c3.509,2.9,8.647,4.351,15.415,4.351h14.878V330.703z"/>
			<path fill="#4F9DD4" d="M121.907,480.319c0,7.592-2.578,13.41-7.734,17.457s-12.461,6.068-21.914,6.068H80.12v32.441h-5.479
				v-78.525H93.87C112.561,457.761,121.907,465.28,121.907,480.319z M80.12,499.118h10.796c8.844,0,15.235-1.458,19.175-4.377
				c3.938-2.918,5.908-7.654,5.908-14.207c0-6.051-1.862-10.535-5.586-13.454c-3.725-2.918-9.489-4.378-17.295-4.378H80.12V499.118z
				"/>
			<path fill="#4F9DD4" d="M176.799,508.571h-31.904l-10.957,27.715h-6.069l31.582-78.848h3.491l30.938,78.848h-6.177
				L176.799,508.571z M146.882,503.63h28.091l-10.688-28.305c-0.896-2.221-1.97-5.299-3.223-9.238
				c-0.967,3.438-2.023,6.553-3.169,9.346L146.882,503.63z"/>
			<path fill="#4F9DD4" d="M238.513,461.575c-9.848,0-17.6,3.15-23.257,9.453c-5.658,6.303-8.486,14.932-8.486,25.889
				c0,11.207,2.667,19.908,8.003,26.104c5.335,6.195,12.962,9.291,22.881,9.291c6.588,0,12.64-0.84,18.154-2.523v4.834
				c-5.192,1.826-11.674,2.738-19.443,2.738c-11.029,0-19.712-3.562-26.05-10.688s-9.507-17.08-9.507-29.863
				c0-7.984,1.512-15.021,4.539-21.109c3.025-6.086,7.376-10.786,13.052-14.099c5.675-3.312,12.273-4.968,19.792-4.968
				c7.662,0,14.52,1.432,20.571,4.297l-2.202,4.941C250.831,463.007,244.815,461.575,238.513,461.575z"/>
			<path fill="#4F9DD4" d="M293.782,536.286h-5.532v-73.369h-25.513v-5.156h56.558v5.156h-25.513V536.286z"/>
			<path fill="#4F9DD4" d="M396.96,496.917c0,12.461-3.115,22.316-9.346,29.567s-14.824,10.876-25.781,10.876
				c-10.922,0-19.497-3.625-25.728-10.876s-9.346-17.142-9.346-29.675c0-12.496,3.142-22.335,9.426-29.515
				c6.284-7.179,14.869-10.769,25.754-10.769c10.957,0,19.532,3.607,25.728,10.822C393.863,474.564,396.96,484.421,396.96,496.917z
				 M332.722,496.917c0,11.244,2.506,19.936,7.52,26.076c5.013,6.142,12.21,9.211,21.592,9.211c9.453,0,16.677-3.043,21.672-9.131
				c4.995-6.086,7.493-14.805,7.493-26.156c0-11.314-2.498-19.989-7.493-26.023c-4.995-6.033-12.184-9.051-21.565-9.051
				c-9.346,0-16.552,3.045-21.619,9.131C335.255,477.062,332.722,485.71,332.722,496.917z"/>
			<path fill="#4F9DD4" d="M462.273,480.319c0,7.592-2.578,13.41-7.734,17.457s-12.461,6.068-21.914,6.068h-12.139v32.441h-5.479
				v-78.525h19.229C452.927,457.761,462.273,465.28,462.273,480.319z M420.486,499.118h10.796c8.844,0,15.235-1.458,19.175-4.377
				c3.938-2.918,5.908-7.654,5.908-14.207c0-6.051-1.862-10.535-5.586-13.454c-3.725-2.918-9.489-4.378-17.295-4.378h-12.998
				V499.118z"/>
			<path fill="#4F9DD4" d="M484.832,536.286h-5.479v-78.525h43.022v5.049h-37.544V536.286z"/>
			<path fill="#4F9DD4" d="M538.274,537.36c-4.262,0-7.699-0.537-10.312-1.611v-5.531c3.079,1.324,6.338,1.986,9.775,1.986
				c2.578,0,4.789-0.438,6.633-1.315c1.845-0.877,3.554-2.291,5.13-4.243c1.575-1.951,3.491-5.219,5.747-9.803l-31.26-59.082h6.499
				l24.009,45.869c1.253,2.471,2.381,5.031,3.384,7.682h0.215l1.343-3.277l22.559-50.273h6.123l-25.19,55.215
				c-1.611,3.545-3.151,6.813-4.619,9.803c-1.469,2.99-3.098,5.559-4.888,7.707c-1.791,2.148-3.886,3.832-6.284,5.049
				C544.737,536.751,541.783,537.36,538.274,537.36z"/>
			<path fill="#4F9DD4" d="M642.151,536.286h-42.915v-78.525h42.915v5.049h-37.437v29.703h35.342v5.049h-35.342v33.676h37.437
				V536.286z"/>
			<path fill="#4F9DD4" d="M659.929,457.761h21.538c9.703,0,16.829,1.648,21.377,4.941c4.547,3.295,6.821,8.271,6.821,14.932
				c0,4.549-1.388,8.335-4.163,11.36c-2.774,3.026-6.83,4.968-12.165,5.827v0.322c6.266,0.932,10.876,2.91,13.831,5.936
				c2.953,3.026,4.431,7.242,4.431,12.648c0,7.234-2.399,12.803-7.197,16.705c-4.799,3.902-11.602,5.854-20.41,5.854h-24.062
				V457.761z M665.408,492.728h17.295c7.376,0,12.738-1.227,16.087-3.68c3.348-2.452,5.021-6.293,5.021-11.521
				c0-5.227-1.889-9.023-5.666-11.387c-3.778-2.363-9.409-3.545-16.893-3.545h-15.845V492.728z M665.408,497.562v33.891h18.477
				c14.537,0,21.807-5.908,21.807-17.725c0-10.777-7.663-16.166-22.988-16.166H665.408z"/>
			<path fill="#4F9DD4" d="M766.707,508.571h-31.904l-10.957,27.715h-6.069l31.582-78.848h3.491l30.938,78.848h-6.177
				L766.707,508.571z M736.79,503.63h28.091l-10.688-28.305c-0.896-2.221-1.97-5.299-3.223-9.238
				c-0.967,3.438-2.023,6.553-3.169,9.346L736.79,503.63z"/>
		</g>
	</g>
</g>
</svg>
