<?xml version="1.0" encoding="utf-8"?>
<!-- Generator: Adobe Illustrator 16.0.0, SVG Export Plug-In . SVG Version: 6.00 Build 0)  -->
<!DOCTYPE svg PUBLIC "-//W3C//DTD SVG 1.1//EN" "http://www.w3.org/Graphics/SVG/1.1/DTD/svg11.dtd">
<svg version="1.1" id="Layer_1" xmlns="http://www.w3.org/2000/svg" xmlns:xlink="http://www.w3.org/1999/xlink" x="0px" y="0px"
	 width="644px" height="174px" viewBox="0 0 644 174" enable-background="new 0 0 644 174" xml:space="preserve">
<g>
	<path fill-rule="evenodd" clip-rule="evenodd" fill="#F4BC19" d="M357.27,145.002c-0.131-0.347-0.263-0.693-0.394-1.04
		c0.4-0.12,0.802-0.351,1.199-0.344c6.87,0.116,13.739,0.326,20.609,0.379c5.071,0.04,10.145-0.118,15.217-0.184
		c7.636-0.099,15.273-0.124,22.907-0.306c9.387-0.224,18.775-0.484,28.155-0.899c9.582-0.424,19.155-1.051,28.732-1.594
		c3.272-0.186,6.545-0.375,9.816-0.587c0.982-0.063,1.961-0.206,2.941-0.312c-0.001-0.163-0.002-0.325-0.002-0.487
		c-0.979,0-1.961-0.041-2.938,0.006c-8.308,0.395-16.61,0.949-24.922,1.183c-20.228,0.567-40.457,1.175-60.689,1.403
		c-13.831,0.157-27.672-0.183-41.503-0.511c-11.707-0.278-23.41-0.787-35.108-1.328c-8.545-0.396-17.08-0.999-25.619-1.529
		c-5.504-0.341-11.007-0.688-16.507-1.085c-7.094-0.513-14.185-1.069-21.275-1.627c-2.75-0.216-5.495-0.492-8.242-0.739
		c-0.277-0.025-0.619-0.162-0.824-0.05c-1.916,1.047-3.83,0.225-5.742,0.041c-4.81-0.461-9.623-0.889-14.426-1.412
		c-3.293-0.359-6.573-0.839-9.854-1.312c-0.373-0.054-0.704-0.405-1.054-0.619c0.329-0.24,0.629-0.621,0.993-0.699
		c3.979-0.854,7.982-1.607,11.954-2.497c4.232-0.947,8.305,0.387,12.446,0.718c1.033,0.082,2.088,0.157,3.081,0.426
		c4.848,1.315,9.864,1.383,14.799,2.039c3.959,0.526,7.953,0.797,11.937,1.137c3.942,0.335,7.891,0.605,11.835,0.92
		c6.174,0.493,12.347,0.992,18.52,1.505c3.225,0.268,6.443,0.625,9.673,0.814c0.744,0.043,1.62-0.279,2.263-0.697
		c5.155-3.352,10.237-6.814,15.41-10.137c1.904-1.223,3.984-2.176,6.002-3.217c0.423-0.218,0.925-0.282,1.391-0.417
		c0.093,0.115,0.186,0.23,0.279,0.346c-0.536,0.839-1.071,1.678-1.607,2.517c0.089,0.068,0.178,0.135,0.267,0.203
		c0.975-0.971,1.938-1.952,2.926-2.909c1.062-1.029,2.115-2.07,3.239-3.027c0.307-0.261,0.855-0.236,1.293-0.342
		c-0.045,0.437,0.015,0.917-0.15,1.303c-1.085,2.534-2.225,5.044-3.326,7.571c-0.133,0.305-0.142,0.664-0.209,0.997
		c0.095,0.053,0.188,0.105,0.282,0.158c0.521-0.672,1.077-1.321,1.557-2.021c1.94-2.833,3.82-5.71,5.818-8.502
		c0.361-0.504,1.156-0.941,1.776-0.977c3.946-0.226,7.897-0.405,11.85-0.455c4.462-0.056,8.928,0.15,13.388,0.048
		c9.065-0.207,18.128-0.544,27.191-0.827c1.363-0.042,1.623,0.51,1.023,1.808c-1.235,2.68-2.397,5.395-3.577,8.101
		c-0.106,0.245-0.119,0.531-0.234,1.081c0.432-0.274,0.724-0.374,0.887-0.576c2.635-3.263,5.236-6.553,7.895-9.797
		c0.337-0.41,0.929-0.81,1.433-0.852c3.863-0.323,7.736-0.516,11.6-0.833c2.423-0.199,4.835-0.534,7.252-0.819
		c7.694-0.909,15.403-1.721,23.079-2.769c5.379-0.734,10.71-1.812,16.071-2.685c0.816-0.133,1.68,0.017,2.521,0.035
		c-0.232,0.731-0.402,1.49-0.707,2.19c-2.21,5.093-4.304,10.245-6.726,15.236c-1.686,3.474-3.833,6.723-5.777,10.072
		c-0.334,0.576-0.684,1.143-1.058,1.767c0.983,0.585,1.643,0.287,2.338-0.328c4.748-4.19,9.127-8.743,13.062-13.691
		c3.528-4.439,6.866-9.032,10.216-13.609c0.734-1.003,1.554-1.456,2.764-1.587c12.494-1.356,25.031-2.063,37.592-2.024
		c8.554,0.026,17.106,0.485,25.658,0.778c0.393,0.014,1.03,0.233,1.102,0.484c0.104,0.368-0.077,0.962-0.351,1.271
		c-5.282,5.948-10.679,11.782-17.076,16.583c-0.596,0.447-1.173,0.92-1.68,1.58c1.063-0.472,2.168-0.87,3.183-1.428
		c6.905-3.8,12.18-9.357,16.756-15.656c0.235-0.323,0.496-0.633,0.692-0.979c0.739-1.299,1.763-1.53,3.235-1.318
		c2.445,0.352,4.943,0.323,7.408,0.563c3.77,0.368,7.533,0.817,11.2,1.824c0.3,0.083,0.647,0.346,0.762,0.615
		c0.067,0.158-0.226,0.577-0.456,0.736c-2.101,1.446-4.21,2.879-6.342,4.279c-2.965,1.946-5.946,3.867-8.931,5.785
		c-2.612,1.679-5.215,3.375-7.863,4.996c-3.763,2.303-7.563,4.543-11.514,6.91c0.355,0.096,0.62,0.266,0.803,0.202
		c1.534-0.538,3.1-1.019,4.565-1.708c2.342-1.101,4.608-2.357,6.916-3.53c1.735-0.881,3.496-1.711,5.225-2.605
		c3.283-1.7,6.612-3.325,9.812-5.173c3.581-2.069,7.067-4.309,10.532-6.571c0.817-0.534,1.548-0.742,2.455-0.547
		c3.274,0.702,6.595,1.243,9.812,2.146c2.396,0.674,4.664,1.812,6.987,2.747c3.278,1.319,6.213,3.234,8.975,5.393
		c2.211,1.727,4.212,3.673,5.27,6.395c0.299,0.769,0.899,1.414,1.258,2.166c0.651,1.366,0.286,2.849-0.925,3.745
		c-0.605,0.448-1.267,0.896-1.974,1.115c-1.63,0.506-3.309,0.851-4.957,1.302c-1.724,0.472-3.425,1.028-5.153,1.483
		c-3.806,1-7.626,1.944-11.432,2.945c-1.845,0.485-3.658,1.084-5.504,1.563c-2.041,0.531-4.105,0.969-6.152,1.477
		c-1.072,0.266-2.117,0.65-3.195,0.882c-2.217,0.476-4.456,0.84-6.669,1.332c-1.897,0.422-3.768,0.966-5.653,1.438
		c-1.041,0.262-2.091,0.487-3.135,0.732c-2.242,0.527-4.484,1.054-6.726,1.588c-0.349,0.083-0.685,0.229-1.036,0.296
		c-2.429,0.452-4.869,0.845-7.287,1.347c-2.336,0.485-4.649,1.078-6.973,1.625c-0.194,0.047-0.381,0.129-0.576,0.166
		c-2.46,0.47-4.919,0.949-7.384,1.396c-3.684,0.67-7.372,1.31-11.057,1.973c-2.037,0.367-4.069,0.758-6.106,1.129
		c-0.353,0.064-0.723,0.164-1.066,0.116c-0.731-0.103-1.415-0.231-1.762,0.676c-0.053,0.139-0.321,0.229-0.507,0.278
		c-4.35,1.158-8.702,2.169-13.256,2.299c-3.258,0.094-6.492,0.806-9.751,1.032c-8.89,0.617-17.785,1.159-26.682,1.656
		c-3.552,0.198-7.116,0.302-10.67,0.228c-1.054-0.022-2.251-0.595-3.108-1.266c-3.641-2.849-7.292-5.702-10.72-8.798
		c-3.465-3.13-6.668-6.549-9.991-9.836c-0.181-0.179-0.41-0.31-0.817-0.309c0.291,0.48,0.537,0.996,0.881,1.435
		c3.284,4.174,6.518,8.391,9.913,12.472c1.395,1.677,3.17,3.034,4.727,4.583c0.33,0.329,0.462,0.857,0.686,1.293
		c-0.494,0.176-0.994,0.518-1.482,0.502c-7.711-0.248-15.422-0.512-23.13-0.836c-4.272-0.181-8.553-0.344-12.807-0.762
		c-4.288-0.421-8.531-1.292-12.82-1.703c-5.572-0.535-10.085-3.06-14.048-6.815c-0.23-0.219-0.479-0.426-0.74-0.605
		c-0.323-0.223-0.671-0.412-1.069-0.653c-0.087,0.359-0.156,0.645-0.265,1.094c-15.144-3.458-29.908-7.91-44.35-13.42
		c0.015-0.189,0.029-0.379,0.044-0.567c0.645-0.048,1.294-0.173,1.933-0.129c2.827,0.197,5.648,0.52,8.479,0.652
		c3.55,0.168,7.107,0.182,10.66,0.288c1.837,0.056,3.678,0.302,5.506,0.218c1.853-0.085,3.272,0.768,4.736,1.639
		c0.219,0.354,0.359,0.809,0.667,1.046c3.181,2.457,6.381,4.889,9.597,7.3c0.589,0.441,1.273,0.755,1.913,1.128
		c0.063-0.352,0.003-0.506-0.107-0.601c-1.725-1.477-3.371-3.061-5.205-4.387C361.948,147.859,359.574,146.479,357.27,145.002z
		 M518.015,136.801c0.008,0.17,0.015,0.339,0.022,0.509c0.574,0,1.152,0.037,1.724-0.006c5.69-0.42,11.38-0.85,17.068-1.293
		c0.396-0.031,0.781-0.187,1.172-0.285c-0.024-0.158-0.049-0.317-0.074-0.476C531.257,135.363,524.69,136.753,518.015,136.801z
		 M540.689,134.648c0.019,0.188,0.037,0.376,0.056,0.564c2.491,0.049,4.966-0.084,7.398-0.661c-0.012-0.128-0.022-0.257-0.034-0.386
		C545.637,134.326,543.163,134.487,540.689,134.648z M513.873,138.072c-0.01-0.182-0.021-0.365-0.031-0.547
		c-2.789,0.151-5.578,0.301-8.367,0.453c0.01,0.172,0.02,0.344,0.029,0.517C508.294,138.354,511.084,138.212,513.873,138.072z
		 M490.86,138.923c-0.001,0.207-0.002,0.414-0.003,0.621c2.974-0.148,5.946-0.297,8.921-0.446c-0.007-0.059-0.013-0.117-0.02-0.175
		C496.793,138.923,493.827,138.923,490.86,138.923z M556.877,133.742c-0.024-0.199-0.049-0.398-0.073-0.597
		c-2.559,0.269-5.118,0.537-7.677,0.805c0.013,0.121,0.024,0.241,0.037,0.362C551.735,134.122,554.307,133.932,556.877,133.742z
		 M233.997,132.946c0.022-0.17,0.045-0.339,0.067-0.509c-1.907-0.187-3.813-0.373-5.721-0.56c1.432,0.528,2.895,0.815,4.365,1.059
		C233.128,133.004,233.567,132.946,233.997,132.946z"/>
	<g>
		<path fill-rule="evenodd" clip-rule="evenodd" fill="#18144A" d="M22,97.481c0.194-0.361,0.502-0.703,0.566-1.086
			c1.642-9.783,7.519-15.975,16.54-19.454c5.249-2.024,10.693-2.405,16.172-1.261c5.804,1.212,10.749,3.913,13.854,9.217
			c3.8,6.495,2.594,14.562-2.877,19.938c-5.446,5.352-12.072,7.099-19.492,6.349c-3.402-0.344-6.705-1.145-9.775-2.697
			c-0.516-0.261-0.85-0.884-1.268-1.34c0.616,0.049,1.296-0.055,1.837,0.172c6.613,2.766,13.343,3.624,20.229,1.167
			c5.642-2.012,10.023-5.508,11.605-11.51c1.853-7.026-0.847-13.045-7.325-16.222c-5.904-2.895-12.079-2.737-18.271-1.101
			c-5.187,1.371-9.698,3.95-13.158,8.121c-4.735,5.706-6.57,12.247-4.813,19.494c1.257,5.181,4.627,8.942,9.16,11.682
			c5.24,3.167,10.956,3.995,16.965,3.614c10.41-0.66,18.644-5.496,25.358-13.183c5.155-5.901,9.458-12.43,12.861-19.462
			c5.466-11.294,10.624-22.736,15.928-34.109c3.174-6.806,6.118-13.737,9.646-20.355c2.753-5.167,6.245-9.939,9.412-14.885
			c0.271-0.423,0.562-0.834,0.843-1.25c-0.071-0.065-0.144-0.131-0.215-0.196c-0.319,0.312-0.655,0.609-0.956,0.938
			c-6.567,7.162-12.021,15.138-17.274,23.284c-4.81,7.457-9.676,14.9-15.727,21.452c-2.982,3.23-6.293,6.099-10.606,7.386
			c-5.58,1.666-11.085,1.82-16.015-1.902c-3.439-2.596-4.729-6.375-5.014-10.493c-0.428-6.189,0.89-12.083,3.386-17.732
			c0.097-0.22,0.211-0.431,0.309-0.65c0.654-1.464,0.624-1.653-0.812-2.456c-1.984-1.109-3.739-2.483-5.043-4.352
			c-4.734-6.787-4.32-17.563,4.696-23.465c6.015-3.937,12.61-4.477,19.483-2.854c4.307,1.017,8.24,2.809,11.685,5.612
			c0.721,0.586,1.368,0.301,2.119,0.048c3.4-1.147,6.766-2.485,10.254-3.252c2.695-0.593,5.561-0.66,8.337-0.568
			c4.028,0.132,5.862,3.021,5.263,6.957c-0.512,3.353-2.527,5.951-4.843,8.247c-4.103,4.068-9.045,6.962-14.14,9.589
			c-4.848,2.5-9.9,4.508-15.23,5.708c-4.311,0.971-8.675,1.503-13.077,0.554c-0.806-0.174-1.304,0.073-1.666,0.774
			c-3.841,7.419-5.103,15.121-2.342,23.18c0.533,1.557,1.471,3.01,2.405,4.386c0.909,1.339,2.351,1.842,3.973,1.85
			c4.69,0.021,8.733-1.646,12.315-4.603c4.111-3.396,7.414-7.518,10.458-11.832c5.577-7.906,10.928-15.973,16.538-23.855
			c6.138-8.622,13.524-16.083,21.852-22.609c0.546-0.428,1.242-1.343,1.921-0.568c0.648,0.74-0.347,1.272-0.832,1.707
			c-6.966,6.252-11.51,14.171-15.4,22.509c-1.806,3.871-3.331,7.873-4.971,11.822c-0.157,0.379-0.214,0.8-0.317,1.201
			c0.106,0.055,0.213,0.11,0.319,0.165c0.396-0.55,0.842-1.071,1.181-1.655c4.398-7.58,9.73-14.455,15.739-20.814
			c3.976-4.208,8.287-8.005,13.522-10.602c3.791-1.88,7.797-2.595,12.003-1.983c5.173,0.752,9.102,4.742,10.365,10.334
			c1.287,5.697,0.169,11.13-1.708,16.47c-1.012,2.878-1.078,2.816,1.18,4.736c5.017,4.267,7.109,9.659,5.867,16.164
			c-0.541,2.833-1.896,5.34-4.096,7.298c-0.258,0.229-0.661,0.293-0.997,0.434c0.117-0.369,0.122-0.854,0.368-1.088
			c3.294-3.136,3.938-7.061,3.54-11.353c-0.405-4.367-3.047-7.059-6.614-9.103c-0.173-0.099-0.357-0.18-0.532-0.275
			c-1.138-0.623-1.396-0.532-2.011,0.664c-1.242,2.417-2.342,4.923-3.768,7.228c-5.562,8.99-13.071,15.82-22.978,19.712
			c-4.208,1.654-8.711,2.107-13.225,1.601c-3.824-0.428-6.579-3.633-7.319-7.978c-0.637-3.737,0.596-6.969,2.56-9.97
			c5.019-7.671,12.162-12.575,20.741-15.477c3.954-1.337,8.057-2.106,12.233-2.229c1.941-0.057,3.904,0.176,5.836,0.435
			c1.584,0.212,1.708,0.202,2.15-1.389c1.385-4.986,2.611-10.013,2.188-15.23c-0.148-1.832-0.611-3.735-1.381-5.398
			c-1.658-3.585-4.106-4.461-7.951-3.693c-6.974,1.395-12.428,5.353-17.365,10.121c-7.205,6.958-12.988,15.034-18.291,23.512
			c-4.885,7.811-8.313,16.287-12.027,24.648c-3.179,7.158-6.276,14.361-9.73,21.387c-3.876,7.884-9,14.917-15.729,20.673
			c-4.54,3.884-9.585,6.907-15.253,8.867c-5.535,1.914-11.227,2.942-17.075,2.758c-8.157-0.257-15.234-3.075-20.654-9.391
			c-2.599-3.028-4.326-6.506-4.999-10.479c-0.086-0.51-0.394-0.982-0.599-1.472C22,101.001,22,99.241,22,97.481z M127.69,71.313
			c5.903-0.024,10.944-2.745,15.493-6.53c7.168-5.964,11.456-13.945,15.304-22.213c0.291-0.626,0.068-1.116-0.587-1.321
			c-0.53-0.166-1.088-0.337-1.634-0.338c-2.672-0.003-5.35-0.051-8.015,0.102c-9.593,0.551-17.651,4.45-24.176,11.457
			c-2.53,2.717-4.685,5.767-4.956,9.629C118.763,67.181,121.155,71.828,127.69,71.313z M80.548,38.192
			c2.711-0.346,6.273-0.465,9.658-1.3c7.28-1.796,13.896-5.188,20.091-9.385c3.734-2.53,6.588-5.776,8.055-10.133
			c0.943-2.801-0.276-5.072-3.155-5.725c-0.428-0.097-0.863-0.199-1.299-0.218c-5.836-0.256-11.346,1.003-16.56,3.612
			c-0.713,0.357-0.803,0.731-0.192,1.36c2.059,2.119,4.066,4.286,6.084,6.444c0.242,0.259,0.471,0.556,0.612,0.876
			c0.077,0.174,0.033,0.52-0.095,0.633c-0.127,0.113-0.464,0.106-0.641,0.016c-0.236-0.121-0.411-0.367-0.605-0.566
			c-2.114-2.174-4.239-4.337-6.332-6.532c-0.736-0.771-1.396-0.812-2.294-0.214c-7.787,5.193-14.656,11.324-19.83,19.212
			c-0.604,0.919-0.443,1.403,0.68,1.527C76.389,37.984,78.068,38.034,80.548,38.192z M76.678,8.891
			c-4.162,0.041-7.565,0.592-10.758,2.173c-7.96,3.943-9.846,10.791-6.584,18.592c1.354,3.239,4.159,4.855,7.18,6.15
			c0.329,0.141,1.052-0.196,1.361-0.527c1.117-1.195,2.073-2.542,3.204-3.724c6.124-6.407,13.047-11.767,20.941-15.84
			c1.026-0.53,1.088-0.878,0.181-1.479C87.302,10.988,81.975,9.011,76.678,8.891z"/>
		<path fill-rule="evenodd" clip-rule="evenodd" fill="#18144A" d="M622,80.202c-0.454,0.367-0.943,0.698-1.356,1.106
			c-3.012,2.973-5.953,6.021-9.044,8.91c-0.96,0.898-2.246,1.559-3.498,2.011c-2.336,0.845-4.473-0.447-4.982-2.875
			c-0.213-1.01-0.249-2.056-0.369-3.085c-0.044-0.37-0.102-0.737-0.191-1.39c-0.571,0.476-0.915,0.771-1.268,1.056
			c-2.326,1.876-4.513,3.974-7.018,5.573c-3.568,2.278-7.555,0.496-8.34-3.66c-0.387-2.044-0.194-4.198-0.253-6.303
			c-0.009-0.307,0.041-0.616,0.09-1.262c-0.576,0.405-0.987,0.595-1.266,0.905c-2.685,2.984-5.979,4.576-10.032,4.601
			c-0.522,0.003-1.122,0.389-1.549,0.757c-2.312,1.992-4.679,3.894-7.561,5.007c-0.889,0.343-1.821,0.624-2.76,0.773
			c-4.363,0.696-6.923-1.472-7.06-5.915c-0.066-2.143,0.475-4.167,1.597-5.944c1.916-3.037,3.992-5.973,5.996-8.954
			c0.273-0.406,0.521-0.828,0.78-1.243c-0.084-0.068-0.169-0.136-0.253-0.203c-0.333,0.304-0.695,0.582-0.993,0.917
			c-3.054,3.437-6.074,6.903-9.153,10.316c-1.938,2.149-4.25,3.771-7.136,4.386c-0.889,0.189-1.821,0.298-2.726,0.258
			c-0.883-0.04-1.496,0.241-2.126,0.834c-1.279,1.202-2.604,2.365-3.984,3.449c-1.847,1.449-3.985,2.159-6.341,2.235
			c-2.956,0.095-5.097-1.427-5.877-4.268c-0.701-2.551-0.709-5.129-0.249-7.728c0.074-0.417-0.079-0.874-0.127-1.312
			c-0.371,0.249-0.822,0.431-1.103,0.758c-3.093,3.623-6.24,7.191-10.031,10.117c-0.755,0.583-1.574,1.101-2.414,1.555
			c-3.228,1.747-6.01,0.635-7.196-2.846c-0.797-2.335-0.827-4.626,0.412-6.844c0.213-0.382,0.493-0.795,0.509-1.204
			c0.024-0.661,0.088-1.622-0.289-1.922c-0.465-0.368-1.38-0.304-2.071-0.209c-0.564,0.078-1.065,0.541-1.631,0.715
			c-1.164,0.358-2.169,0.026-2.212-0.723c-0.062-1.091,0.789-1.383,1.635-1.569c0.463-0.102,0.973-0.182,1.428-0.095
			c2.37,0.452,4.235-0.629,5.878-2.061c1.649-1.438,3.148-3.054,4.647-4.654c1.206-1.287,2.319-2.65,4.064-3.264
			c1.334-0.47,2.604-0.352,3.815,0.333c1.143,0.646,1.611,2.204,1.049,3.348c-0.552,1.124-2.181,1.815-3.275,1.158
			c-0.586-0.352-1.013-1.168-1.244-1.863c-0.349-1.045-0.692-1.333-1.569-0.688c-0.726,0.534-1.436,1.185-1.918,1.935
			c-1.835,2.852-4.16,5.04-7.469,6.054c-0.193,0.059-0.498,0.346-0.469,0.428c0.096,0.273,0.294,0.525,0.5,0.742
			c0.952,0.998,2.027,1.899,2.853,2.991c0.938,1.242,0.832,2.707,0.3,4.129c-0.434,1.16-0.966,2.292-1.285,3.482
			c-0.153,0.573-0.146,1.533,0.198,1.812c0.447,0.363,1.436,0.496,1.957,0.244c1.427-0.691,2.923-1.437,4.048-2.52
			c2.96-2.849,5.786-5.844,8.577-8.863c3.996-4.325,7.943-8.711,13.436-11.204c1.623-0.736,3.394-1.188,5.135-1.615
			c5.773-1.416,8.225,3.117,7.659,7.282c-0.477,3.514-2.229,6.459-4.284,9.258c-0.237,0.323-0.348,0.738-0.517,1.111
			c0.44,0.087,0.894,0.289,1.32,0.244c3.039-0.321,5.374-1.977,7.357-4.143c3.616-3.951,7.339-7.825,10.683-12
			c2.763-3.451,5.021-7.303,7.542-10.95c3.204-4.632,6.345-9.313,9.716-13.821c1.863-2.492,4.157-4.689,6.948-6.175
			c1.129-0.601,2.471-1.011,3.743-1.095c3.211-0.211,5.039,1.993,4.607,5.197c-0.331,2.458-1.708,4.372-3.147,6.239
			c-3.743,4.853-8.521,8.644-13.112,12.621c-3.111,2.696-6.207,5.413-9.361,8.058c-2.157,1.809-3.755,4.032-5.05,6.482
			c-2.018,3.813-3.998,7.646-5.919,11.508c-0.623,1.25-1.232,2.719-0.115,3.945c1.146,1.256,2.696,0.694,4.066,0.327
			c7.176-1.924,12.831-8.994,13.313-17.564c0.076-1.357,0.129-2.719,0.285-4.068c0.187-1.61,1.093-2.48,2.429-2.477
			c1.209,0.003,2.099,0.935,2.273,2.5c0.326,2.916-0.668,5.545-2.026,8.016c-1.132,2.06-2.509,3.984-3.76,5.978
			c-0.178,0.283-0.258,0.625-0.384,0.94c0.355,0.102,0.727,0.328,1.064,0.286c2.296-0.286,4.313-1.284,5.95-2.862
			c1.867-1.801,3.537-3.803,5.339-5.675c4.114-4.276,8.776-7.683,14.694-9.031c0.584-0.133,1.177-0.239,1.771-0.309
			c3.327-0.39,5.252,1.409,5.151,4.792c-0.014,0.455-0.002,0.911,0.275,1.481c0.265-0.309,0.561-0.597,0.785-0.933
			c0.266-0.397,0.472-0.834,0.7-1.256c2.414-4.458,2.368-3.226,6.318-3.583c0.266-0.024,0.701,0.14,0.793,0.339
			c0.091,0.197-0.093,0.594-0.262,0.825c-4.372,5.983-8.255,12.267-11.593,18.883c-0.322,0.639-0.574,1.326-0.761,2.017
			c-0.381,1.412,0.312,2.281,1.748,1.984c1.022-0.212,2.17-0.603,2.902-1.294c3.396-3.202,6.659-6.544,9.988-9.817
			c0.499-0.49,1.098-0.879,1.65-1.315C622,79.242,622,79.722,622,80.202z M546.881,72.398c0-0.319,0.02-0.64-0.004-0.958
			c-0.212-2.856-1.883-4.189-4.61-3.404c-1.38,0.397-2.754,1.107-3.899,1.979c-4.053,3.081-6.653,7.272-8.566,11.909
			c-0.904,2.191-1.446,4.489-1.2,6.895c0.176,1.725,1.07,2.603,2.781,2.377c1.396-0.184,2.853-0.542,4.09-1.188
			c3.717-1.942,6.359-5.045,8.45-8.604C545.551,78.63,546.749,75.677,546.881,72.398z M589.216,87.525
			c-0.071,3.33,1.51,4.398,4.029,3.311c0.584-0.251,1.173-0.522,1.693-0.881c5.133-3.541,9.056-8.166,11.894-13.681
			c0.716-1.39,1.146-2.995,1.381-4.551c0.428-2.848-1.309-4.407-4.082-3.744c-1.143,0.272-2.309,0.714-3.291,1.347
			c-4.445,2.863-7.271,7.089-9.545,11.736C590.202,83.294,589.297,85.592,589.216,87.525z M569.572,67.661
			c0.066,0.063,0.133,0.126,0.198,0.189c0.43-0.301,0.889-0.566,1.283-0.907c3.387-2.925,6.763-5.863,10.141-8.799
			c3.505-3.045,6.945-6.149,9.612-10.001c1.443-2.084,2.694-4.246,3.145-6.795c0.466-2.636-1.186-4.305-3.666-3.406
			c-1.53,0.555-3.021,1.474-4.251,2.549c-2.854,2.497-4.97,5.634-6.79,8.932c-3.204,5.806-6.3,11.672-9.434,17.516
			C569.692,67.159,569.649,67.419,569.572,67.661z"/>
		<path fill-rule="evenodd" clip-rule="evenodd" fill="#18144A" d="M285.163,122.618c7.157-0.093,12.603-0.645,17.897-2.192
			c5.544-1.621,10.588-4.287,15.204-7.734c8.001-5.976,13.732-13.797,17.97-22.731c4.64-9.784,9.115-19.646,13.642-29.484
			c3.451-7.502,7.286-14.775,12.583-21.177c4.494-5.432,9.555-10.216,15.789-13.635c0.278-0.153,0.579-0.373,0.868-0.372
			c0.354,0.001,0.804,0.115,1.021,0.354c0.125,0.137-0.023,0.744-0.233,0.922c-0.634,0.539-1.318,1.046-2.054,1.432
			c-4.954,2.596-8.241,6.671-10.721,11.59c-5.028,9.976-9.201,20.304-13.004,30.794c-3.044,8.396-6.504,16.593-11.499,24.064
			c-7.608,11.38-17.565,19.935-30.293,25.088c-10.303,4.171-21.05,5.616-32.106,4.631c-9.252-0.824-17.746-3.751-24.985-9.711
			c-8.795-7.241-13.14-16.653-12.483-28.024c0.545-9.429,5.076-16.982,12.5-22.715c8.144-6.288,17.388-8.558,27.553-6.951
			c8.39,1.327,15.464,4.982,20.621,11.915c3.805,5.115,5.048,10.958,4.286,17.146c-1.001,8.133-5.764,13.759-12.896,17.334
			c-8.497,4.26-17.307,4.44-26.177,1.136c-1.936-0.721-3.767-1.724-5.633-2.624c-0.315-0.152-0.651-0.388-0.821-0.676
			c-0.155-0.263-0.235-0.74-0.094-0.955c0.121-0.184,0.662-0.265,0.916-0.156c1.101,0.473,2.149,1.062,3.241,1.556
			c9.563,4.319,19.109,4.584,28.52-0.375c8.667-4.567,12.717-14.193,10.187-23.625c-2.159-8.046-7.581-12.664-15.401-14.661
			c-6.309-1.611-12.713-1.702-18.982,0.106c-10.982,3.167-19.443,9.555-23.311,20.599c-3.157,9.016-1.303,17.527,4.583,25.068
			c3.816,4.891,8.88,8.098,14.56,10.422C272.954,121.656,279.797,122.632,285.163,122.618z"/>
		<path fill-rule="evenodd" clip-rule="evenodd" fill="#18144A" d="M443.223,71.777c-0.45,0.141-0.909,0.257-1.349,0.425
			c-2.023,0.776-4.067,1.548-6.276,1.28c-1.006-0.122-2.011-0.478-2.945-0.889c-0.853-0.375-1.47-0.371-2.125,0.354
			c-3.621,4-7.271,7.973-10.908,11.958c-2.323,2.546-4.688,5.044-7.807,6.652c-0.53,0.273-1.092,0.502-1.663,0.672
			c-2.535,0.754-4.331-0.218-5.1-2.73c-0.941-3.078-0.456-5.998,1.334-8.586c1.86-2.691,3.986-5.196,5.942-7.823
			c0.757-1.017,1.454-2.101,1.997-3.241c0.207-0.435,0.098-1.305-0.221-1.625c-0.305-0.305-1.142-0.347-1.618-0.168
			c-2.748,1.028-4.972,2.893-7.062,4.868c-7.751,7.325-14.199,15.697-19.694,24.819c-1.238,2.054-2.461,4.117-3.724,6.157
			c-0.195,0.316-0.542,0.715-0.856,0.752c-1.386,0.162-2.791,0.318-4.179,0.252c-0.972-0.046-0.541-0.744-0.248-1.22
			c1.361-2.213,2.736-4.418,4.104-6.628c6.012-9.725,12.024-19.45,18.03-29.178c0.288-0.466,0.51-0.972,0.559-1.635
			c-0.608,0.644-1.25,1.259-1.818,1.936c-3.652,4.346-7.223,8.763-10.951,13.042c-2.711,3.11-6.077,5.007-10.406,4.756
			c-0.496-0.029-1.084,0.411-1.525,0.763c-1.716,1.366-3.317,2.886-5.1,4.155c-1.812,1.291-3.971,1.671-6.175,1.565
			c-2.451-0.117-3.942-1.556-4.789-3.75c-1.016-2.627-0.785-5.342-0.527-8.059c0.045-0.475-0.056-0.964-0.089-1.447
			c-0.397,0.201-0.789,0.415-1.195,0.596c-0.2,0.09-0.428,0.119-0.947,0.257c0.255-0.556,0.331-0.944,0.561-1.188
			c3.762-3.987,7.437-8.121,12.605-10.346c1.999-0.861,4.151-1.493,6.297-1.857c3.579-0.608,6.22,1.606,6.625,5.251
			c0.296,2.654-0.482,5.085-1.721,7.36c-0.816,1.502-1.861,2.88-2.783,4.326c-0.158,0.248-0.215,0.561-0.318,0.844
			c0.32,0.108,0.647,0.329,0.959,0.309c2.643-0.167,4.927-1.305,6.668-3.185c3.121-3.368,6.086-6.885,9.036-10.406
			c5.01-5.978,9.915-12.042,13.981-18.722c0.686-1.126,1.576-1.624,2.827-1.646c0.795-0.014,1.59-0.039,2.385-0.059
			c-0.325,0.702-0.594,1.438-0.984,2.102c-5.585,9.469-11.187,18.927-16.779,28.391c-0.206,0.351-0.354,0.736-0.528,1.105
			c0.151,0.126,0.303,0.252,0.455,0.378c0.393-0.514,0.744-1.067,1.186-1.536c3.344-3.543,6.591-7.19,10.112-10.549
			c1.607-1.534,3.664-2.712,5.702-3.651c2.507-1.154,4.46,0.125,5.019,2.85c0.54,2.639-0.369,4.893-1.809,6.994
			c-2.213,3.232-4.5,6.414-6.692,9.66c-0.504,0.747-0.843,1.64-1.096,2.513c-0.484,1.673,0.252,2.524,1.973,2.179
			c0.991-0.199,1.992-0.631,2.847-1.178c3.588-2.295,6.184-5.639,9.027-8.72c2.764-2.994,5.554-5.963,8.372-8.905
			c0.564-0.59,0.619-1.022,0.274-1.773c-0.983-2.143,0.386-4.185,2.578-3.974c1.783,0.172,2.548,1.76,1.547,3.211
			c-0.9,1.304-0.709,1.839,0.839,2.284c2.181,0.626,4.188-0.24,6.217-0.784c2.185-0.585,4.205-1.507,5.807-3.193
			c0.407-0.429,0.9-0.829,1.433-1.071c0.405-0.184,0.934-0.097,1.407-0.131c0.018,0.556,0.27,1.307,0.004,1.627
			c-0.595,0.716-1.396,1.304-2.203,1.793c-6.133,3.715-10.243,9.062-12.639,15.745c-0.372,1.039-0.359,2.304-0.21,3.422
			c0.225,1.674,1.334,2.208,2.766,1.314c1.685-1.052,3.362-2.188,4.802-3.543c2.413-2.272,4.525-4.868,6.964-7.11
			c3.837-3.528,7.087-7.72,11.75-10.329c2.787-1.56,5.66-2.802,8.844-3.21c3.467-0.444,5.409,1.384,5.268,4.901
			c-0.017,0.414-0.003,0.829,0.278,1.354c0.285-0.344,0.599-0.669,0.848-1.038c0.267-0.396,0.542-0.81,0.694-1.257
			c1.046-3.068,3.404-3.735,6.275-3.464c0.286,0.027,0.71,0.148,0.794,0.344c0.087,0.203-0.104,0.593-0.275,0.826
			c-4.408,6.008-8.289,12.339-11.65,18.987c-0.322,0.638-0.553,1.333-0.746,2.023c-0.335,1.197,0.309,2.088,1.537,1.871
			c1.062-0.188,2.281-0.539,3.037-1.241c3.388-3.15,6.68-6.407,9.92-9.71c3.273-3.336,6.445-6.772,9.662-10.164
			c0.138-0.145,0.323-0.256,0.426-0.421c1.561-2.519,4.005-3.057,6.709-2.989c0.369,0.009,0.734,0.164,1.101,0.251
			c-0.08,0.333-0.085,0.711-0.252,0.994c-4.556,7.754-9.113,15.507-13.735,23.222c-0.306,0.509-1.102,0.888-1.729,1.003
			c-1.172,0.216-2.387,0.219-3.585,0.253c-0.319,0.01-0.815-0.101-0.922-0.312c-0.112-0.225,0.066-0.682,0.244-0.956
			c4.167-6.398,8.353-12.785,12.528-19.177c0.232-0.354,0.411-0.744,0.615-1.117c-0.076-0.079-0.151-0.157-0.228-0.235
			c-0.442,0.332-0.945,0.606-1.316,1.004c-3.32,3.569-6.541,7.235-9.945,10.723c-2.897,2.968-5.961,5.778-9.037,8.563
			c-0.738,0.669-1.775,1.105-2.75,1.397c-2.337,0.7-4.387-0.575-4.84-2.971c-0.256-1.353-0.337-2.739-0.526-4.376
			c-0.493,0.375-0.851,0.624-1.184,0.902c-2.052,1.714-4.079,3.457-6.158,5.137c-0.549,0.444-1.223,0.77-1.887,1.032
			c-3.308,1.31-6.728-0.407-7.364-3.906c-0.382-2.097-0.257-4.285-0.362-6.432c-0.026-0.517-0.064-1.032-0.097-1.549
			c-0.47,0.312-1.003,0.558-1.397,0.946c-3.13,3.083-6.187,6.242-9.365,9.272c-1.72,1.641-3.847,2.332-6.287,2.067
			c-3.188-0.345-4.995-2.596-4.563-5.793c0.301-2.232,1.529-3.988,3.089-5.422c2.792-2.566,5.75-4.953,8.644-7.409
			c0.647-0.549,1.315-1.075,1.974-1.612C443.364,72.04,443.294,71.909,443.223,71.777z M379.894,72.494
			c0-0.399,0.019-0.8-0.003-1.199c-0.141-2.661-1.779-4.018-4.342-3.306c-1.424,0.396-2.853,1.095-4.03,1.986
			c-3.855,2.919-6.405,6.87-8.321,11.25c-1.053,2.407-1.74,4.895-1.484,7.568c0.164,1.716,1.031,2.63,2.749,2.409
			c1.397-0.18,2.852-0.547,4.096-1.189c3.58-1.85,6.161-4.806,8.216-8.202C378.502,78.955,379.912,75.951,379.894,72.494z
			 M455.035,88.243c-0.024,2.613,1.502,3.647,3.919,2.633c0.587-0.246,1.183-0.507,1.704-0.863
			c5.29-3.615,9.314-8.358,12.123-14.081c0.733-1.494,1.148-3.26,1.237-4.926c0.126-2.391-1.368-3.553-3.719-3.096
			c-1.188,0.231-2.421,0.645-3.438,1.285c-4.583,2.888-7.484,7.201-9.803,11.97C455.969,83.406,455.107,85.711,455.035,88.243z"/>
		<path fill-rule="evenodd" clip-rule="evenodd" fill="#18144A" d="M221.878,83.727c-0.484,0.563-0.98,1.116-1.451,1.691
			c-2.63,3.219-5.535,6.1-9.443,7.766c-3.264,1.391-6.617-0.223-7.544-3.635c-0.64-2.357-0.826-4.718-0.12-7.099
			c0.09-0.305,0.161-0.625,0.173-0.942c0.026-0.774-0.36-1.098-1.036-0.667c-0.562,0.358-1.036,0.867-1.518,1.341
			c-3.097,3.059-6.149,6.165-9.302,9.166c-0.818,0.779-1.895,1.337-2.933,1.828c-2.451,1.158-4.814,0.011-5.485-2.64
			c-0.75-2.969-0.289-5.787,1.229-8.443c0.262-0.458,0.454-0.955,0.679-1.434c-0.077-0.08-0.154-0.159-0.231-0.238
			c-0.414,0.177-0.813,0.428-1.246,0.515c-1.155,0.234-2.324,0.54-3.489,0.547c-1.052,0.006-1.798-0.678-2.259-1.703
			c-0.237-0.528-0.812-1.32-1.166-1.287c-0.604,0.058-1.354,0.546-1.69,1.078c-1.579,2.499-3.039,5.074-4.541,7.622
			c-0.975,1.652-1.875,3.356-2.963,4.931c-0.393,0.568-1.191,1.031-1.882,1.176c-1.121,0.236-2.305,0.19-3.464,0.222
			c-0.336,0.009-0.677-0.119-1.016-0.184c0.095-0.358,0.105-0.771,0.297-1.067c3.604-5.572,7.229-11.13,10.851-16.69
			c0.777-1.192,1.557-2.384,2.335-3.576c-0.082-0.088-0.164-0.175-0.246-0.263c-0.357,0.245-0.771,0.436-1.064,0.741
			c-2.581,2.674-5.062,5.451-7.735,8.028c-1.913,1.845-3.997,3.543-6.156,5.095c-1.727,1.241-3.818,1.52-5.956,1.479
			c-0.593-0.011-1.29,0.33-1.774,0.716c-1.342,1.069-2.556,2.299-3.897,3.368c-1.894,1.508-4.076,2.326-6.517,2.443
			c-3.065,0.147-5.336-1.523-6.043-4.529c-0.574-2.442-0.7-4.897-0.192-7.377c0.093-0.457-0.06-0.964-0.099-1.448
			c-0.388,0.214-0.771,0.435-1.164,0.641c-0.195,0.103-0.405,0.177-0.916,0.396c0.177-0.595,0.177-1.019,0.388-1.239
			c3.733-3.898,7.331-8.013,12.381-10.264c2.124-0.947,4.448-1.611,6.749-1.954c3.623-0.539,6.07,1.604,6.454,5.268
			c0.311,2.959-0.684,5.602-2.134,8.094c-0.7,1.205-1.549,2.324-2.307,3.498c-0.181,0.278-0.267,0.617-0.396,0.927
			c0.327,0.098,0.661,0.297,0.981,0.277c2.417-0.151,4.541-1.149,6.227-2.788c4.694-4.569,9.294-9.236,13.883-13.912
			c0.725-0.738,1.421-1.204,2.475-1.187c0.957,0.016,1.914-0.127,2.873-0.157c0.297-0.009,0.794,0.049,0.853,0.206
			c0.102,0.271,0.018,0.693-0.14,0.964c-1.383,2.386-2.81,4.747-4.193,7.133c-0.203,0.351-0.251,0.792-0.371,1.192
			c0.406,0.03,0.823,0.132,1.219,0.076c1.751-0.244,3.261-0.088,4.106,1.805c0.391,0.874,1.597,1.119,2.619,0.433
			c1.146-0.768,2.329-1.626,3.146-2.709c1.876-2.485,3.563-5.113,5.272-7.719c0.51-0.777,1.085-1.206,2.037-1.206
			c0.997,0,1.994-0.144,2.992-0.161c0.359-0.006,0.722,0.172,1.083,0.266c-0.112,0.364-0.146,0.781-0.35,1.083
			c-2.531,3.742-5.179,7.408-7.608,11.213c-1.865,2.922-3.479,6.006-5.16,9.042c-0.237,0.429-0.312,1.004-0.297,1.505
			c0.038,1.191,1.197,1.868,2.383,1.195c1.724-0.979,3.459-2.039,4.916-3.364c2.36-2.149,4.437-4.608,6.747-6.816
			c3.915-3.741,7.412-7.971,12.278-10.621c3.029-1.65,6.086-3.226,9.594-3.559c0.785-0.075,1.607-0.056,2.381,0.089
			c2.259,0.425,3.407,2.064,3.287,4.57c-0.035,0.733-0.107,1.466-0.163,2.198c0.1,0.04,0.198,0.079,0.298,0.119
			c0.304-0.38,0.666-0.727,0.9-1.146c0.74-1.325,1.367-2.719,2.178-3.999c0.317-0.501,0.957-0.968,1.531-1.101
			c1.12-0.258,2.296-0.295,3.453-0.368c0.324-0.021,0.805,0.053,0.95,0.265c0.139,0.202,0.028,0.698-0.134,0.966
			c-4.614,7.626-9.249,15.239-13.873,22.859c-0.252,0.415-0.435,0.871-0.649,1.308c0.078,0.086,0.156,0.172,0.234,0.258
			c0.516-0.236,1.05-0.438,1.543-0.715c5.392-3.024,9.605-7.386,13.595-12c0.261-0.302,0.495-0.644,0.807-0.88
			c0.176-0.133,0.486-0.089,0.736-0.125c0.009,0.259,0.066,0.528,0.012,0.772c-0.04,0.176-0.223,0.324-0.354,0.475
			c-4.145,4.799-8.547,9.31-14.076,12.558c-0.311,0.182-0.604,0.428-0.938,0.525c-2.111,0.613-3.1,2.241-4.083,4.058
			c-3.9,7.206-8.468,13.958-14.519,19.556c-1.705,1.578-3.799,2.743-5.758,4.032c-0.443,0.292-1.056,0.367-1.604,0.454
			c-3.493,0.554-5.964-1.812-5.585-5.33c0.275-2.569,1.448-4.701,3.182-6.571c3.717-4.009,8.253-6.926,12.899-9.692
			c2.507-1.492,5.059-2.909,7.547-4.43c0.58-0.355,1.141-0.917,1.447-1.517c1.688-3.31,3.298-6.66,4.929-9.999
			c0.167-0.341,0.299-0.7,0.447-1.05C222.105,83.879,221.992,83.803,221.878,83.727z M156.896,73.364
			c-0.012-0.241-0.015-0.561-0.047-0.878c-0.293-2.921-2.013-4.176-4.787-3.257c-1.371,0.454-2.744,1.158-3.865,2.061
			c-4.417,3.559-7.313,8.216-8.977,13.583c-0.527,1.703-0.58,3.613-0.523,5.418c0.047,1.473,1.07,2.237,2.55,2.083
			c1.248-0.13,2.549-0.41,3.673-0.946c3.797-1.812,6.514-4.829,8.681-8.354C155.415,80.121,156.783,76.991,156.896,73.364z
			 M226.024,72.788c0.059-3.167-1.31-4.42-3.921-3.669c-1.725,0.496-3.471,1.287-4.905,2.352c-4.191,3.114-7.142,7.294-9.271,12.016
			c-0.761,1.687-1.299,3.537-1.573,5.367c-0.432,2.886,1.395,4.243,4.111,3.217c0.891-0.336,1.771-0.762,2.562-1.287
			c4.673-3.1,7.997-7.413,10.777-12.188C224.934,76.655,225.892,74.635,226.024,72.788z M215.278,98.428
			c-0.103-0.104-0.205-0.207-0.309-0.31c-0.344,0.134-0.717,0.221-1.027,0.41c-2.217,1.348-4.438,2.69-6.626,4.083
			c-3.994,2.545-7.676,5.463-10.693,9.153c-1.543,1.886-2.464,3.986-2.366,6.483c0.109,2.791,1.189,3.632,3.927,2.95
			c0.42-0.105,0.862-0.256,1.205-0.508c1.218-0.896,2.503-1.737,3.573-2.791c4.855-4.776,8.041-10.685,11.098-16.668
			C214.522,100.326,214.875,99.364,215.278,98.428z"/>
		<path fill-rule="evenodd" clip-rule="evenodd" fill="#18144A" d="M368.206,14.505c8.276,0,16.559,0.186,24.827-0.078
			c4.17-0.132,8.313-1.075,12.469-1.656c1.029-0.144,2.051-0.363,3.084-0.436c0.425-0.03,1.121,0.121,1.243,0.393
			c0.168,0.371,0.078,1.103-0.2,1.39c-1.462,1.511-2.849,3.187-4.575,4.333c-4.244,2.817-9.016,4.213-14.123,4.428
			c-6.633,0.279-13.161-0.64-19.69-1.62c-12.484-1.873-25.036-2.889-37.658-2.24c-9.187,0.472-17.823,2.932-25.32,8.499
			c-5.055,3.754-8.897,8.453-9.886,14.897c-1.096,7.15,1.746,14.176,9.516,16.96c3.116,1.116,6.359,1.101,9.605,0.753
			c8.804-0.941,15.938-5.194,22.062-11.319c4.819-4.822,8.556-10.431,11.48-16.583c0.069-0.144,0.095-0.335,0.205-0.429
			c0.304-0.257,0.643-0.474,0.967-0.707c0.145,0.406,0.494,0.871,0.397,1.208c-0.428,1.496-0.9,2.99-1.506,4.422
			c-3.385,7.993-7.717,15.361-14.36,21.135c-6.289,5.465-13.512,8.09-21.908,6.999c-6.564-0.853-12.118-3.526-15.897-9.156
			c-3.43-5.109-3.76-10.67-1.99-16.435c2.304-7.5,7.531-12.5,14.165-16.173c6.711-3.716,13.941-5.878,21.534-7.025
			c7.348-1.11,14.725-1.302,22.123-1.331c4.479-0.018,8.957-0.003,13.437-0.003C368.206,14.656,368.206,14.581,368.206,14.505z"/>
	</g>
</g>
<g>
</g>
<g>
</g>
<g>
</g>
<g>
</g>
<g>
</g>
<g>
</g>
</svg>
