<?xml version="1.0" encoding="utf-8"?>
<!-- Generator: Adobe Illustrator 16.0.0, SVG Export Plug-In . SVG Version: 6.00 Build 0)  -->
<!DOCTYPE svg PUBLIC "-//W3C//DTD SVG 1.1//EN" "http://www.w3.org/Graphics/SVG/1.1/DTD/svg11.dtd">
<svg version="1.1" id="Layer_1" xmlns="http://www.w3.org/2000/svg" xmlns:xlink="http://www.w3.org/1999/xlink" x="0px" y="0px"
	 width="123.5px" height="150.744px" viewBox="0 0 123.5 150.744" enable-background="new 0 0 123.5 150.744" xml:space="preserve">
<g id="Layer_4" display="none">
</g>
<rect x="19.611" y="18.726" fill="#D9DEE2" width="84.278" height="113.292"/>
<rect x="24.052" y="18.726" fill="#F0F2F4" width="80.106" height="113.292"/>
<rect x="14.193" y="30.837" fill="#EE3E24" width="56.85" height="33.104"/>
<path fill="#EE3E24" d="M58.155,100.683c1.028-2.019,2.198-4.291,3.134-6.574l0,0l0.37-0.901c-1.223-4.655-1.955-8.394-1.301-10.81
	l0,0c0.177-0.629,0.906-1.012,1.686-1.012l0,0l0.476,0.008h0.088c1.065-0.018,1.568,1.342,1.625,1.869l0,0
	c0.096,0.879-0.312,2.368-0.312,2.368l0,0c0-0.603,0.024-1.571-0.354-2.411l0,0c-0.441-0.97-0.863-1.549-1.241-1.642l0,0
	c-0.19,0.128-0.376,0.394-0.439,0.899l0,0c-0.132,0.713-0.171,1.611-0.171,2.076l0,0c0,1.637,0.322,3.799,0.955,6.027l0,0
	c0.12-0.346,0.225-0.678,0.309-0.986l0,0c0.131-0.49,0.955-3.734,0.955-3.734l0,0c0,0-0.207,4.318-0.498,5.627l0,0
	c-0.062,0.275-0.131,0.549-0.203,0.828l0,0c1.045,2.92,2.729,5.525,4.735,7.401l0,0c0.791,0.74,1.791,1.337,2.737,1.882l0,0
	c2.066-0.295,3.968-0.436,5.557-0.418l0,0c2.104,0.027,3.649,0.34,4.275,0.957l0,0c0.307,0.301,0.431,0.661,0.47,1.067l0,0
	c0.011,0.157-0.067,0.528-0.091,0.622l0,0c0.023-0.112,0.023-0.667-1.667-1.207l0,0c-1.332-0.426-3.821-0.412-6.812-0.094l0,0
	c3.457,1.691,6.826,2.533,7.895,2.029l0,0c0.261-0.127,0.577-0.562,0.577-0.562l0,0c0,0-0.188,0.855-0.323,1.068l0,0
	c-0.172,0.232-0.51,0.484-0.831,0.569l0,0c-1.687,0.45-6.075-0.592-9.901-2.778l0,0c-4.273,0.629-8.969,1.793-12.73,3.028l0,0
	c-3.698,6.484-6.479,9.464-8.74,8.33l0,0l-0.832-0.418c-0.338-0.192-0.39-0.665-0.311-1.049l0,0c0.263-1.29,1.881-3.235,5.13-5.177
	l0,0c0.35-0.213,1.908-1.037,1.908-1.037l0,0c0,0-1.153,1.117-1.424,1.338l0,0c-2.594,2.127-4.508,4.802-4.46,5.84l0,0l0.01,0.09
	C50.604,113.485,53.907,108.999,58.155,100.683 M59.501,101.372c-0.709,1.337-1.402,2.577-2.043,3.716l0,0
	c3.541-1.485,7.353-2.437,10.981-3.11l0,0c-0.487-0.336-0.961-0.692-1.406-1.069l0,0c-1.998-1.693-3.521-3.806-4.626-6.028l0,0
	C61.707,96.767,60.875,98.772,59.501,101.372"/>
<g>
	<path fill="#F1F2F2" d="M25.333,39.646h5.553c1.45,0,2.611,0.437,3.485,1.31c0.872,0.873,1.31,2.006,1.31,3.398
		c0,1.399-0.438,2.531-1.31,3.393c-0.874,0.862-2.039,1.294-3.496,1.294h-3.323v5.379h-2.219V39.646z M27.552,41.539v5.628h2.078
		c0.628,0,1.16-0.039,1.597-0.118c0.437-0.08,0.826-0.223,1.169-0.428c0.343-0.206,0.596-0.494,0.758-0.866
		c0.162-0.371,0.243-0.839,0.243-1.401c0-0.895-0.243-1.588-0.73-2.078c-0.487-0.491-1.175-0.736-2.062-0.736L27.552,41.539
		L27.552,41.539z"/>
	<path fill="#F1F2F2" d="M37.942,39.646h4.946c0.931,0,1.766,0.118,2.506,0.356c0.739,0.238,1.358,0.568,1.856,0.99
		c0.497,0.423,0.91,0.944,1.239,1.564c0.328,0.621,0.566,1.297,0.714,2.029s0.222,1.542,0.222,2.43c0,0.873-0.07,1.674-0.211,2.403
		c-0.141,0.729-0.373,1.407-0.698,2.034c-0.324,0.628-0.735,1.158-1.233,1.592c-0.498,0.433-1.118,0.77-1.861,1.012
		c-0.743,0.242-1.588,0.362-2.533,0.362h-4.946L37.942,39.646L37.942,39.646z M40.172,41.561v10.942h2.522
		c1.493,0,2.604-0.45,3.333-1.353c0.729-0.902,1.094-2.27,1.094-4.102c0-0.852-0.08-1.605-0.238-2.263
		c-0.159-0.656-0.409-1.229-0.753-1.721c-0.343-0.49-0.801-0.864-1.374-1.12c-0.573-0.256-1.261-0.385-2.062-0.385h-2.522V41.561z"
		/>
	<path fill="#F1F2F2" d="M54.274,54.419h-2.229V39.646h8.951v1.927h-6.722v4.729h6.159v1.905h-6.159V54.419z"/>
</g>
<g id="doc" display="none">
</g>
<g id="xls" display="none">
</g>
<g id="xls_copy" display="none">
</g>
</svg>
