<?xml version="1.0" encoding="utf-8"?>
<!-- Generator: Adobe Illustrator 16.0.0, SVG Export Plug-In . SVG Version: 6.00 Build 0)  -->
<!DOCTYPE svg PUBLIC "-//W3C//DTD SVG 1.1//EN" "http://www.w3.org/Graphics/SVG/1.1/DTD/svg11.dtd">
<svg version="1.1" id="Background__x2B__Levels_1_xA0_Image_1_"
	 xmlns="http://www.w3.org/2000/svg" xmlns:xlink="http://www.w3.org/1999/xlink" x="0px" y="0px" width="1552.422px"
	 height="223.489px" viewBox="0 0 1552.422 223.489" enable-background="new 0 0 1552.422 223.489" xml:space="preserve">
<g>
	<path fill-rule="evenodd" clip-rule="evenodd" fill="#102D53" d="M1189.814,205.73c14.264-46.907,28.271-92.972,42.332-139.214
		c1.813-0.132,3.297-0.331,4.778-0.334c10.975-0.028,21.948-0.026,32.923-0.015c4.235,0.004,4.526,0.264,5.729,4.117
		c10.003,32.024,20.026,64.042,30.02,96.069c3.516,11.264,6.956,22.55,10.448,33.818c0.241,0.782,0.622,1.521,0.909,2.21
		c2.542,0.336,2.885-1.727,3.649-3.053c7.581-13.155,15.087-26.353,22.616-39.538c3.85-6.739,7.51-13.599,11.638-20.163
		c2.003-3.187,1.843-5.671,0.048-8.81c-11.302-19.773-22.457-39.631-33.651-59.467c-0.724-1.281-1.368-2.605-2.297-4.382
		c1.584-0.327,2.655-0.735,3.729-0.742c9.624-0.056,19.248,0.037,28.87-0.097c2.787-0.038,4.222,1.049,5.378,3.538
		c6.039,12.997,12.25,25.916,18.401,38.863c0.642,1.349,1.288,2.695,2.415,5.048c1.056-2.065,1.815-3.397,2.437-4.79
		c5.69-12.783,11.444-25.541,16.974-38.394c1.419-3.298,3.389-4.282,6.931-4.272c44.57,0.125,89.142,0.082,133.713,0.094
		c1.484,0.001,2.968,0.146,4.331,0.218c1.256,4.093,1.408,20.642,0.178,26.55c-11.98,0.597-24.209-0.104-37.119,0.398
		c-0.127,12.836-0.049,25.267-0.062,37.694c-0.014,12.326-0.002,24.65-0.002,36.975c0,12.462,0,24.926,0,37.91
		c-10.71,0.688-20.91,0.29-31.664,0.245c-0.167-2.415-0.438-4.533-0.44-6.652c-0.027-33.092-0.014-66.186-0.029-99.277
		c-0.002-2.14-0.172-4.279-0.29-7.014c-12.354,0-24.265,0-36.852,0c-0.649-8.045-0.021-15.592-0.417-23.219
		c-2.317-0.172-2.596,1.601-3.274,2.765c-7.297,12.544-14.555,25.113-21.826,37.671c-3.806,6.572-7.49,13.22-11.489,19.67
		c-1.829,2.95-1.862,5.264-0.06,8.321c12.088,20.493,23.982,41.101,35.926,61.681c0.919,1.582,1.727,3.226,2.788,5.216
		c-1.292,0.403-2.171,0.913-3.052,0.918c-9.962,0.055-19.925-0.078-29.883,0.096c-2.959,0.053-4.2-1.504-5.31-3.731
		c-6.919-13.893-13.854-27.776-20.803-41.655c-0.589-1.177-1.297-2.293-2.257-3.975c-0.857,1.301-1.571,2.123-2.003,3.074
		c-6.396,14.131-12.83,28.244-19.063,42.446c-1.205,2.746-2.793,3.838-5.729,3.827c-20.597-0.075-41.196-0.024-61.793-0.064
		c-4.321-0.007-4.357-0.092-5.613-4.187c-2.771-9.024-5.49-18.065-8.259-27.092c-1.382-4.509-1.598-4.672-6.396-4.688
		c-9.961-0.029-19.922-0.049-29.882-0.009c-4.587,0.018-4.755,0.223-5.939,4.472c-2.531,9.096-5.02,18.205-7.633,27.276
		c-1.216,4.22-1.329,4.239-5.536,4.256c-7.936,0.033-15.871,0.023-23.808-0.025C1193.263,206.299,1191.981,206.005,1189.814,205.73z
		 M1267.521,146.194c-2.725-9.489-5.015-18.208-7.748-26.783c-2.697-8.458-4.224-17.284-7.256-25.636
		c-0.348,0.046-0.697,0.092-1.047,0.138c-4.489,17.102-8.98,34.202-13.625,51.893C1247.941,146.519,1257.267,146,1267.521,146.194z"
		/>
	<path fill-rule="evenodd" clip-rule="evenodd" fill="#102D53" d="M7.769,152.342c2.757-2.648,5.313-5.567,8.361-7.824
		c1.43-1.06,3.805-1.136,5.756-1.149c13.843-0.091,27.688-0.04,41.533-0.062c1.782-0.002,3.564-0.166,6.431-0.307
		c-2.191-3.297-3.589-5.95-5.551-8.084c-0.801-0.872-2.82-0.837-4.289-0.847c-9.285-0.063-18.57-0.014-27.856-0.029
		c-1.314-0.002-2.629-0.151-4.028-0.237c2.127-5.844,7.964-10.221,13.409-10.234c5.521-0.013,11.04-0.002,17.35-0.002
		c-0.775-3.65-1.379-6.49-2.007-9.443c-3.245-0.206-6.025-0.382-10.125-0.644c2.894-2.899,5.137-4.823,6.961-7.085
		c1.312-1.627,2.735-3.632,2.956-5.598c1.517-13.483,7.73-24.679,16.45-34.66c11.049-12.65,24.738-21.843,39.55-29.452
		c21.304-10.943,43.92-17.998,67.331-22.815c22.058-4.539,44.315-6.709,66.807-7.353c26.933-0.771,53.614,1.301,80.044,6.258
		c25.967,4.87,51.098,12.478,74.555,24.939c15.942,8.468,30.477,18.765,41.551,33.29c9.247,12.128,13.964,25.704,12.289,41.126
		c-1.38,12.706-7.09,23.473-15.249,33.024c-12.518,14.649-28.322,24.889-45.513,33.111c-22.522,10.771-46.294,17.577-70.817,21.978
		c-17.805,3.196-35.739,4.81-53.807,5.605c-31.204,1.378-62.062-1.281-92.534-7.769c-28.527-6.071-55.946-15.353-80.549-31.568
		c-4.358-2.872-8.585-6.008-12.535-9.412c-2.605-2.244-5.201-3.227-8.637-3.206c-20.597,0.13-41.195,0.073-61.792,0.076
		c-1.787,0-3.575,0-5.361,0C8.225,153.427,7.997,152.884,7.769,152.342z M399.901,103.296c0.202-9.041-2.359-16.851-5.825-24.365
		c-6.065-13.15-15.383-23.719-26.676-32.629c-17.807-14.052-38.203-22.649-59.955-28.36c-0.814-0.213-1.733-0.027-2.581-0.027
		c7.156,5.768,14.283,11.077,20.896,16.962c6.642,5.914,12.167,12.853,16.371,20.968c-5.153,1.278-5.263,1.316-7.659-2.124
		c-4.845-6.955-10.258-13.388-16.736-18.896c-14.95-12.715-32.125-20.318-51.661-22.442c-2.258-0.246-4.566-0.033-7.489-0.033
		c0,2.278,0,4.093,0,5.907c0.002,10.47,0.01,20.939,0.005,31.408c-0.001,1.519-0.007,3.041-0.101,4.556
		c-0.1,1.611-1.086,2.668-2.625,2.298c-0.894-0.215-1.884-1.271-2.231-2.179c-0.397-1.037-0.147-2.329-0.148-3.51
		c-0.007-10.976,0.01-21.953-0.028-32.927c-0.006-1.8-0.243-3.599-0.369-5.341c-43.174-1.48-91.124,38.245-91.031,90.733
		C241.157,103.296,320.256,103.296,399.901,103.296z M350.026,109.382c-1.851-0.107-3.48-0.282-5.109-0.283
		c-26.646-0.01-53.291,0.001-79.936,0.011c-1.18,0-2.361,0.001-3.54,0.049c-1.835,0.074-2.737,1.119-2.813,2.895
		c-0.058,1.347-0.06,2.698-0.06,4.046c0,19.731,0.006,39.461,0.006,59.193c0,6.915-0.062,13.83,0.006,20.743
		c0.042,4.204,0.497,4.528,4.777,4.257c12.804-0.815,24.925-4.239,36.179-10.294c25.456-13.695,41.728-34.667,48.537-62.79
		C349.44,121.557,350.75,115.781,350.026,109.382z M166.484,134.068c1.396,8.798,1.912,9.271,9.257,9.27
		c12.147-0.004,24.296-0.028,36.445-0.013c1.758,0.002,3.515,0.176,5.273,0.27c0.154,0.362,0.308,0.722,0.461,1.083
		c-1.924,1.993-3.957,3.896-5.746,6.006c-2.147,2.533-4.717,3.419-8.019,3.34c-7.757-0.182-15.522-0.081-23.283-0.057
		c-1.617,0.007-3.233,0.181-4.929,0.281c5.746,21.868,54.761,50.651,76.803,45.478c1.109-4.484,1.02-84.211-0.213-88.552
		c-3.968,3.569-8.741,2.602-13.331,2.606c-23.791,0.021-47.583-0.006-71.374,0.031c-1.907,0.002-3.813,0.365-5.714,0.56
		c0,1.163-0.053,1.67,0.008,2.162c0.866,7.009,0.869,7.01,8.059,7.014c20.753,0.013,41.507,0.02,62.261,0.047
		c1.588,0.002,3.176,0.149,5.128,0.248c-0.961,3.247-3.421,4.407-4.91,6.332c-2.35,3.037-5.299,4.033-9.215,3.983
		c-17.04-0.217-34.083-0.09-51.125-0.088C170.511,134.068,168.701,134.068,166.484,134.068z M400.026,109.451
		c-6-1.224-40.203-0.93-44.001,0.346c-0.124,1.375-0.277,2.869-0.391,4.365c-0.707,9.312-2.626,18.371-5.97,27.084
		c-8.256,21.521-22.07,38.457-41.865,50.422c-0.982,0.595-1.788,1.481-2.958,2.471c1.052,0.312,1.377,0.51,1.675,0.475
		c0.834-0.096,1.674-0.228,2.482-0.45c13.364-3.695,26.391-8.298,38.572-14.995c18.34-10.083,34.251-22.855,44.509-41.575
		C396.824,128.936,399.792,119.709,400.026,109.451z M112.033,102.921c1.089,0.302,1.717,0.625,2.346,0.627
		c12.822,0.053,25.642,0.056,38.464,0.104c2.576,0.009,3.393-1.234,3.609-3.726c0.447-5.196,0.799-10.474,2.012-15.519
		c6.667-27.729,22.04-49.247,46.518-64.108c0.898-0.545,1.694-1.257,2.538-1.892c-1.444-0.547-2.64-0.625-3.68-0.26
		c-10.64,3.742-21.562,6.875-31.812,11.499c-18.528,8.357-34.767,20.024-46.768,36.821
		C117.57,77.231,112.579,89.033,112.033,102.921z M406.077,109.086c-0.433,2.741-0.708,5.231-1.239,7.664
		c-0.896,4.104-1.655,8.273-2.997,12.237c-5.536,16.338-16.176,29.045-29.156,39.972c-9.75,8.207-20.667,14.567-32.234,19.852
		c-1.046,0.478-1.987,1.184-2.977,1.783c0.132,0.312,0.265,0.623,0.396,0.934c1.631-0.243,3.321-0.29,4.883-0.761
		c10.483-3.161,21.085-6.012,31.372-9.724c19.003-6.857,36.794-16.049,52.111-29.498c9.395-8.25,17.104-17.763,21.182-29.762
		c1.367-4.02,2.863-8.151,2.417-12.697C435.016,109.086,420.752,109.086,406.077,109.086z M176.123,21.312
		c-0.08-0.243-0.161-0.486-0.241-0.729c-1.782,0.244-3.639,0.246-5.335,0.771c-12.222,3.784-24.595,7.178-36.566,11.645
		c-18.433,6.879-35.566,16.256-50.167,29.703c-8.8,8.104-15.857,17.496-19.506,29.053c-1.132,3.586-2.617,7.248-1.954,11.166
		c0.765,0.287,1.226,0.608,1.688,0.61c12.987,0.056,25.973,0.057,38.958,0.122c3.036,0.015,3.442-1.888,3.688-4.296
		c2.217-21.693,13.388-38.579,29.077-52.767c10.947-9.899,23.452-17.561,37.033-23.416
		C173.957,22.672,175.017,21.938,176.123,21.312z M406.053,103.273c14.983,0,29.236,0,44.017,0c-0.273-2.05-0.435-3.672-0.711-5.275
		c-1.831-10.636-7.018-19.623-13.885-27.716c-10.554-12.439-23.856-21.28-38.181-28.719c-16.402-8.518-33.75-14.502-51.621-19.05
		c-3.303-0.84-6.646-1.521-11.017-2.514c1.265,1.179,1.581,1.613,2.006,1.844c1.48,0.802,2.968,1.602,4.507,2.282
		c15.77,6.973,29.846,16.426,41.728,28.952c12.02,12.671,20.258,27.305,22.342,44.959
		C405.431,99.68,405.743,101.311,406.053,103.273z M132.252,154.548c2.586,2.669,4.395,4.781,6.448,6.618
		c19.066,17.061,41.77,26.968,66.187,33.448c0.731,0.194,1.628-0.236,2.947-0.459c-0.773-0.675-0.997-0.946-1.283-1.107
		c-15.473-8.766-27.658-20.879-36.675-36.174c-1.279-2.168-2.876-2.973-5.347-2.946c-9.451,0.101-18.905,0.032-28.357,0.063
		C135.242,153.994,134.312,154.246,132.252,154.548z M176.859,191.528c-1.609-0.883-3.161-1.896-4.836-2.63
		c-17.387-7.607-32.75-18.071-45.398-32.303c-1.761-1.98-3.627-2.678-6.167-2.653c-8.772,0.083-17.548-0.004-26.322,0.031
		c-1.074,0.005-2.145,0.353-3.218,0.542c-0.085,0.383-0.169,0.768-0.254,1.149C116.102,175.13,145.599,185.241,176.859,191.528z
		 M63.154,113.789c0.101,1.792,0.072,2.614,0.204,3.409c0.949,5.691,1.729,6.347,7.543,6.354c10.44,0.013,20.882,0.031,31.322-0.001
		c1.766-0.005,3.532-0.251,5.216-0.379c0.163-1.115,0.327-1.612,0.292-2.094c-0.528-7.166-0.669-7.294-7.704-7.294
		c-10.272,0-20.545,0.003-30.817,0.005C67.391,113.79,65.57,113.789,63.154,113.789z M156.145,114.325
		c-6.794-0.989-39.535-0.716-43.286,0.324c0,1.091-0.144,2.253,0.025,3.369c0.752,4.977,1.407,5.534,6.489,5.54
		c11.106,0.015,22.213,0.009,33.32-0.037c1.413-0.006,2.824-0.304,4.415-0.487c-0.067-1.396-0.056-2.22-0.156-3.03
		C156.723,118.186,156.44,116.375,156.145,114.325z M162.496,143.313c-0.334-1.833-0.414-2.636-0.632-3.402
		c-1.672-5.863-1.68-5.865-7.953-5.865c-9.945-0.001-19.89-0.012-29.835,0.023c-1.607,0.005-3.211,0.23-4.93,0.362
		c2.238,7.855,3.483,8.876,10.349,8.88c8.934,0.007,17.869,0.002,26.802,0.002C158.115,143.313,159.933,143.313,162.496,143.313z
		 M116.558,142.901c-1.454-2.695-2.584-4.488-3.409-6.411c-0.79-1.841-2.024-2.409-3.935-2.403
		c-11.627,0.037-23.255-0.032-34.882,0.021c-0.924,0.003-1.845,0.659-3.008,1.104c0.955,1.36,1.611,2.139,2.096,3.012
		c2.32,4.171,5.808,5.386,10.515,5.207c8.919-0.339,17.86-0.087,26.791-0.124C112.322,143.3,113.916,143.092,116.558,142.901z"/>
	<path fill-rule="evenodd" clip-rule="evenodd" fill="#102D53" d="M1015.631,199.717c0,3.887,0,7.688,0,11.584
		c-1.363,0.314-2.147,0.65-2.936,0.653c-7.592,0.046-15.185,0.091-22.775,0.02c-4.012-0.036-4.297-0.388-4.402-4.354
		c-0.066-2.497-0.013-4.999-0.013-7.982c-3.008-0.519-5.609-0.939-8.2-1.419c-17.23-3.194-31.945-10.499-41.846-25.655
		c-6.186-9.468-8.605-20.092-9.229-31.162c-0.743-13.187,1.214-25.924,7.646-37.671c8.253-15.081,21.348-23.964,37.501-28.745
		c3.38-1,6.896-1.562,10.362-2.247c4.111-0.814,4.21-0.867,4.299-5.303c0.045-2.308,0.009-4.615,0.009-7.481
		c10.222-0.326,19.716-0.323,29.913,0.028c0,2.585-0.009,4.722,0.002,6.858c0.027,5.158,0.066,4.983,5.247,6.007
		c5.439,1.075,10.985,2.025,16.167,3.908c21.81,7.922,34.123,23.656,37.567,46.561c1.862,12.397,1.193,24.597-2.787,36.443
		c-6.642,19.776-21.166,31.098-40.713,36.584C1026.456,197.743,1021.295,198.529,1015.631,199.717z M1016.249,176.335
		c2.02-0.388,3.488-0.514,4.854-0.958c8.529-2.779,14.662-8.434,18.031-16.602c6.396-15.51,6.324-31.269-0.067-46.737
		c-3.21-7.772-9.093-13.325-17.216-16.114c-1.638-0.562-3.439-0.655-5.603-1.042
		C1016.249,122.199,1016.249,148.781,1016.249,176.335z M985.786,94.766c-2.351,0.523-3.984,0.705-5.483,1.252
		c-8.781,3.207-14.828,9.495-18.062,18c-5.334,14.031-5.701,28.35-0.137,42.476c3.635,9.234,10.074,15.847,19.647,19.058
		c1.159,0.39,2.479,0.309,4.035,0.479C985.786,148.899,985.786,122.343,985.786,94.766z"/>
	<path fill-rule="evenodd" clip-rule="evenodd" fill="#102D53" d="M893.234,130.238c2.494,1.132,3.836,1.732,5.17,2.346
		c10.738,4.951,18.269,12.74,20.734,24.548c3.662,17.54-5.382,34.999-21.707,42.656c-7.73,3.628-15.938,5.575-24.328,6.529
		c-17.334,1.976-34.7,1.452-52.039-0.101c-5.184-0.464-5.509-0.978-5.51-6.329c-0.009-42.199-0.011-84.398-0.002-126.598
		c0.002-5.17,0.415-5.85,5.607-6.339c19.999-1.884,40.031-3.727,60.039-0.318c9.818,1.674,18.994,5.277,25.86,12.769
		c12.482,13.615,11.097,36.857-7.939,47.659C897.535,127.961,895.912,128.796,893.234,130.238z M847.707,144.492
		c0,12.491-0.005,24.272,0.006,36.057c0.001,1.596,0.871,2.504,2.432,2.696c9.532,1.181,18.931,0.931,27.49-4.011
		c6.506-3.758,8.738-9.819,8.325-17.187c-0.37-6.628-3.792-11.088-9.428-13.893C867.612,143.714,858.053,143.881,847.707,144.492z
		 M847.636,104.566c0.016,0,0.031,0,0.049,0c0,4.386,0.021,8.772-0.009,13.158c-0.019,2.538,1.21,3.704,3.714,3.667
		c2.532-0.036,5.067,0.087,7.592-0.057c5.233-0.297,10.404-0.936,15.172-3.397c6.008-3.1,8.974-8.058,8.661-14.753
		c-0.297-6.386-4.288-10.909-10.827-13.151c-6.924-2.374-14.001-1.531-21.057-1.248c-2.611,0.105-3.333,1.812-3.307,4.141
		C847.667,96.806,847.636,100.687,847.636,104.566z"/>
	<path fill-rule="evenodd" clip-rule="evenodd" fill="#102D53" d="M669.141,139.742c-0.001-20.353,4.092-36.484,14.625-50.491
		c10.39-13.818,24.214-22.119,41.427-24.772c15.442-2.38,30.337-0.872,44.272,6.355c16.544,8.58,26.688,22.587,31.295,40.334
		c5.368,20.664,4.504,41.223-4.523,60.823c-8.776,19.059-23.937,30.461-44.446,34.736c-13.654,2.847-27.236,2.548-40.41-2.177
		c-17.905-6.421-29.88-19.084-36.757-36.651C670.708,157.899,668.965,147.47,669.141,139.742z M702.977,136.493
		c0,0.677-0.021,1.352,0.002,2.027c0.394,11.314,2.571,22.135,9.28,31.566c7.926,11.14,21.133,15.508,34.026,11.091
		c9.83-3.368,15.577-10.93,19.315-20.199c3.861-9.571,4.904-19.651,4.312-29.832c-0.615-10.571-3.071-20.699-9.427-29.496
		c-6.056-8.38-14.32-13.075-24.612-12.661c-11.656,0.471-20.364,6.348-25.958,16.732
		C704.728,115.35,703.001,125.722,702.977,136.493z"/>
	<path fill-rule="evenodd" clip-rule="evenodd" fill="#102D53" d="M1119.726,156.591c-0.105,1.897-0.274,3.535-0.278,5.173
		c-0.025,12.482-0.017,24.965-0.025,37.447c0,1.35-0.004,2.7-0.06,4.048c-0.085,2.056-1.229,3.025-3.246,3.034
		c-2.7,0.011-5.398,0.018-8.098,0.021c-5.398,0.007-10.797,0.074-16.192-0.009c-3.404-0.053-3.768-0.487-3.989-3.763
		c-0.057-0.842-0.021-1.687-0.021-2.53c0.004-42.005,0.009-84.007,0.014-126.011c0-0.844,0.075-1.693-0.003-2.53
		c-0.225-2.456,0.88-3.832,3.28-4.223c0.832-0.136,1.659-0.306,2.495-0.388c15.447-1.501,30.912-2.855,46.438-1.66
		c10.826,0.832,21.371,2.848,30.738,8.919c8.996,5.83,14.443,14.176,16.643,24.435c2.122,9.894,1.376,19.79-2.266,29.342
		c-4.891,12.833-14.909,20.176-27.27,24.541c-11.08,3.916-22.613,5.215-34.372,3.977
		C1122.403,156.299,1121.258,156.511,1119.726,156.591z M1119.444,110.274c0,5.739-0.08,11.48,0.031,17.217
		c0.064,3.335,0.923,4.244,4.152,4.473c2.687,0.191,5.398,0.105,8.096,0.034c5.489-0.144,10.698-1.405,15.397-4.329
		c7.404-4.606,9.993-11.639,9.423-19.937c-0.551-8-4.74-13.453-12.362-16.275c-7.204-2.668-14.557-2.296-21.964-1.426
		c-2.452,0.288-2.791,2.009-2.778,4.037C1119.467,99.47,1119.447,104.872,1119.444,110.274z"/>
	<path fill-rule="evenodd" clip-rule="evenodd" fill="#102D53" d="M665.436,70.042c-2.415,8.913-4.557,16.82-6.742,24.882
		c-5.406-1.322-10.247-2.668-15.157-3.673c-9.267-1.898-18.516-1.565-27.513,1.381c-15.44,5.057-24.057,16.223-27.188,31.774
		c-1.995,9.912-1.509,19.863,1.632,29.518c5.271,16.209,17.988,25.37,34.965,27.253c9.663,1.071,19.201,0.091,28.539-2.683
		c0.967-0.287,1.963-0.504,2.961-0.65c0.465-0.069,0.967,0.106,1.94,0.236c0.424,2.007,0.9,4.104,1.308,6.215
		c0.833,4.305,1.688,8.604,2.425,12.926c0.897,5.251,0.825,5.854-4.485,7.059c-7.381,1.675-14.873,3.21-22.398,3.824
		c-13.386,1.088-26.672,0.024-39.399-4.773c-21.377-8.059-34.838-23.283-39.852-45.519c-3.743-16.606-3.341-33.216,2.849-49.309
		c8.762-22.778,25.772-36.165,49.036-41.963c15.67-3.905,31.462-3.422,47.157,0.079C658.719,67.333,661.765,68.754,665.436,70.042z"
		/>
	<path fill-rule="evenodd" clip-rule="evenodd" fill="#102D53" d="M308.077,96.491c0.1-1.812,0.186-3.371,0.266-4.807
		c3.875-1.482,8.421-0.597,10.596-5.635c-1.341,0-2.235-0.032-3.126,0.006c-5.799,0.245-9.779-2.646-10.722-7.805
		c-0.849-4.64,2.304-10.033,6.874-11.763c7.195-2.722,13.706,0.653,15.651,8.178C330.168,84.537,324.638,98.43,308.077,96.491z
		 M320.411,76.379c-0.121-2.694-2.019-4.976-4.117-4.949c-2.038,0.026-3.659,2.091-3.666,4.667c-0.008,2.658,1.996,4.74,4.34,4.507
		C319.141,80.388,320.515,78.702,320.411,76.379z"/>
	<path fill-rule="evenodd" clip-rule="evenodd" fill="#102D53" d="M366.222,86.156c-1.714,0-2.7,0.003-3.684-0.001
		c-5.188-0.022-8.882-2.664-9.772-6.986c-1.084-5.253,1.58-10.613,6.215-12.503c7.327-2.987,14.068,0.384,16.06,8.032
		c2.958,11.363-4.983,22.326-16.134,22.271c-3.034-0.015-4.396-1.401-3.413-3.904c0.37-0.94,1.805-1.794,2.903-2.049
		C361.305,90.335,364.335,90.077,366.222,86.156z M367.7,76.547c0.024-2.798-1.636-4.982-3.852-5.068
		c-2.101-0.081-3.858,1.898-3.894,4.388c-0.037,2.65,1.853,4.789,4.167,4.714C366.282,80.512,367.68,78.937,367.7,76.547z"/>
	<path fill-rule="evenodd" clip-rule="evenodd" fill="#102D53" d="M341.143,89.707c3.783,0.306,6.352,0.515,9.313,0.754
		c0,1.918,0,3.637,0,6.03c-6.416,0-12.592,0.172-18.75-0.085c-2.451-0.103-3.101-3.229-1.158-5.529
		c1.399-1.657,3.231-2.939,4.758-4.5c2.113-2.159,4.295-4.289,6.116-6.682c1.482-1.947,2.099-4.334,0.25-6.51
		c-1.678-1.976-3.848-1.735-6.027-0.947c-0.473,0.17-0.916,0.421-1.371,0.64c-1.707,0.815-2.924,0.309-3.674-1.384
		c-0.704-1.593-0.428-2.867,1.083-3.93c3.753-2.639,11.794-2.558,15.365,0.315c3.08,2.479,4.176,5.898,2.966,9.496
		c-0.934,2.777-2.748,5.303-4.42,7.772C344.625,86.58,343.162,87.677,341.143,89.707z"/>
	<path fill-rule="evenodd" clip-rule="evenodd" fill="#102D53" d="M271.761,73.318c-0.387,2.51-0.611,3.958-0.87,5.637
		c-3.162-0.019-6.445-0.655-8.44,2.223c-0.798,1.15-1.292,2.771-1.283,4.173c0.028,4.213,2.677,5.69,9.32,5.496
		c1.718,4.726,1.083,5.84-3.482,6.105c-8.696,0.506-13.807-4.145-13.567-12.344c0.169-5.826,3.883-10.345,9.654-11.224
		C265.669,72.993,268.354,73.318,271.761,73.318z"/>
	<path fill-rule="evenodd" clip-rule="evenodd" fill="#102D53" d="M285.645,74.841c-1.831-4.324-1.711-4.85,1.526-6.531
		c3.324-1.728,6.723-3.003,10.74-1.436c0,9.711,0,19.366,0,29.249c-1.259,0.202-2.215,0.414-3.182,0.499
		c-2.598,0.229-3.649-1.077-3.62-3.595c0.049-4.375,0.004-8.752,0-13.127c-0.002-1.83-0.001-3.659-0.001-5.971
		C288.972,74.285,287.285,74.567,285.645,74.841z"/>
</g>
</svg>
