<?xml version="1.0" encoding="utf-8"?>
<!-- Generator: Adobe Illustrator 16.0.0, SVG Export Plug-In . SVG Version: 6.00 Build 0)  -->
<!DOCTYPE svg PUBLIC "-//W3C//DTD SVG 1.1//EN" "http://www.w3.org/Graphics/SVG/1.1/DTD/svg11.dtd">
<svg version="1.1" xmlns="http://www.w3.org/2000/svg" xmlns:xlink="http://www.w3.org/1999/xlink" x="0px" y="0px" width="386px"
	 height="142.667px" viewBox="0 0 386 142.667" enable-background="new 0 0 386 142.667" xml:space="preserve">
<g id="CОЮЗ__x0D_ПЕНСИОНЕРОВ_x0D_РОССИИ__x0D_">
	<g>
		<path d="M177.276,28.005c-2.264,0-4.051,0.754-5.361,2.264c-1.31,1.509-1.965,3.575-1.965,6.198c0,2.699,0.631,4.784,1.895,6.255
			c1.263,1.472,3.064,2.207,5.403,2.207c1.437,0,3.076-0.258,4.917-0.775v2.101c-1.428,0.536-3.189,0.804-5.283,0.804
			c-3.034,0-5.375-0.921-7.023-2.765c-1.648-1.842-2.472-4.461-2.472-7.855c0-2.125,0.396-3.986,1.19-5.585
			c0.793-1.598,1.939-2.83,3.438-3.695s3.262-1.297,5.291-1.297c2.16,0,4.048,0.395,5.663,1.185l-1.014,2.059
			C180.395,28.372,178.835,28.005,177.276,28.005z"/>
		<path d="M204.537,36.439c0,3.3-0.833,5.896-2.5,7.785c-1.668,1.89-3.985,2.835-6.953,2.835c-3.034,0-5.375-0.929-7.023-2.786
			s-2.473-4.478-2.473-7.863c0-3.356,0.827-5.958,2.479-7.806c1.653-1.847,4.002-2.771,7.045-2.771c2.958,0,5.269,0.94,6.932,2.82
			C203.706,30.535,204.537,33.13,204.537,36.439z M188.124,36.439c0,2.792,0.594,4.911,1.782,6.354
			c1.188,1.443,2.914,2.165,5.178,2.165c2.282,0,4.006-0.719,5.171-2.158c1.164-1.438,1.746-3.559,1.746-6.361
			c0-2.773-0.58-4.877-1.739-6.311c-1.16-1.434-2.877-2.151-5.149-2.151c-2.282,0-4.018,0.722-5.206,2.165
			S188.124,33.684,188.124,36.439z"/>
		<path d="M234.8,36.439c0,3.329-0.801,5.931-2.401,7.806c-1.602,1.876-3.83,2.814-6.686,2.814c-2.827,0-5.041-0.863-6.643-2.588
			c-1.602-1.726-2.454-4.191-2.558-7.397h-4.987v9.703h-2.395V26.158h2.395v8.772h5.016c0.216-2.924,1.115-5.171,2.698-6.742
			c1.582-1.57,3.722-2.355,6.417-2.355c2.884,0,5.129,0.942,6.734,2.828C233.997,30.546,234.8,33.139,234.8,36.439z M219.021,36.439
			c0,2.783,0.559,4.899,1.677,6.347s2.762,2.172,4.931,2.172c2.198,0,3.854-0.719,4.967-2.158s1.669-3.559,1.669-6.361
			c0-2.802-0.552-4.913-1.655-6.333c-1.104-1.419-2.745-2.129-4.924-2.129c-2.188,0-3.846,0.717-4.973,2.151
			C219.584,31.562,219.021,33.666,219.021,36.439z"/>
		<path d="M251.368,30.981c0,1.354-0.43,2.454-1.289,3.3s-2.046,1.382-3.558,1.608v0.113c1.719,0.235,3.021,0.775,3.909,1.622
			c0.888,0.847,1.332,1.951,1.332,3.314c0,1.928-0.719,3.43-2.156,4.506c-1.437,1.077-3.466,1.615-6.086,1.615
			c-2.396,0-4.358-0.372-5.889-1.114v-2.229c0.901,0.433,1.876,0.767,2.923,1.001c1.047,0.235,2.055,0.353,3.022,0.353
			c1.859,0,3.266-0.353,4.219-1.058c0.954-0.705,1.431-1.721,1.431-3.046c0-1.26-0.528-2.214-1.585-2.863
			c-1.057-0.649-2.633-0.973-4.727-0.973h-3.071v-2.017h2.944c1.925,0,3.416-0.345,4.473-1.037c1.057-0.691,1.585-1.657,1.585-2.898
			c0-1.006-0.38-1.81-1.141-2.412c-0.761-0.602-1.785-0.903-3.071-0.903c-1.033,0-1.968,0.118-2.804,0.353
			c-0.836,0.235-1.804,0.701-2.902,1.396l-1.184-1.608c0.948-0.705,2.013-1.239,3.191-1.601c1.179-0.362,2.401-0.543,3.67-0.543
			c2.113,0,3.769,0.463,4.966,1.389C250.769,28.177,251.368,29.42,251.368,30.981z"/>
		<path d="M183.827,81.438h-2.395v-18.49h-10.581v18.49h-2.395v-20.62h15.37V81.438z"/>
		<path d="M200.974,81.438h-11.482v-20.62h11.482v2.129h-9.088v6.643h8.538v2.115h-8.538v7.588h9.088V81.438z"/>
		<path d="M221.176,81.438h-2.395v-9.703h-10.849v9.703h-2.395v-20.62h2.395v8.772h10.849v-8.772h2.395V81.438z"/>
		<path d="M235.646,62.666c-2.264,0-4.051,0.754-5.36,2.264c-1.311,1.508-1.966,3.574-1.966,6.197c0,2.699,0.632,4.783,1.895,6.256
			c1.264,1.471,3.064,2.207,5.403,2.207c1.438,0,3.076-0.26,4.917-0.775v2.102c-1.428,0.535-3.188,0.803-5.283,0.803
			c-3.034,0-5.375-0.922-7.023-2.764c-1.648-1.844-2.473-4.461-2.473-7.855c0-2.125,0.397-3.986,1.19-5.586
			c0.794-1.598,1.939-2.829,3.438-3.694c1.497-0.865,3.261-1.297,5.29-1.297c2.16,0,4.048,0.395,5.663,1.185l-1.014,2.059
			C238.764,63.033,237.204,62.666,235.646,62.666z"/>
		<path d="M245.057,60.818h2.239v11.465c0,2.117-0.065,4.029-0.197,5.74h0.113l11.553-17.206h2.62v20.62h-2.254V70.084
			c0-1.891,0.08-3.873,0.239-5.952h-0.127l-11.566,17.305h-2.62V60.818z"/>
		<path d="M284.898,71.1c0,3.301-0.833,5.895-2.5,7.785c-1.668,1.889-3.985,2.834-6.953,2.834c-3.034,0-5.375-0.928-7.023-2.785
			s-2.473-4.479-2.473-7.863c0-3.355,0.827-5.957,2.479-7.806c1.653-1.847,4.002-2.771,7.045-2.771c2.958,0,5.269,0.94,6.932,2.82
			C284.067,65.196,284.898,67.79,284.898,71.1z M268.485,71.1c0,2.793,0.594,4.91,1.782,6.354s2.914,2.164,5.178,2.164
			c2.282,0,4.006-0.719,5.171-2.158c1.164-1.438,1.746-3.559,1.746-6.359c0-2.773-0.58-4.877-1.739-6.311
			c-1.16-1.435-2.877-2.152-5.149-2.152c-2.282,0-4.018,0.722-5.206,2.166C269.079,66.247,268.485,68.344,268.485,71.1z"/>
		<path d="M305.13,81.438h-2.395v-9.703h-10.849v9.703h-2.395v-20.62h2.395v8.772h10.849v-8.772h2.395V81.438z"/>
		<path d="M322.263,81.438H310.78v-20.62h11.482v2.129h-9.088v6.643h8.538v2.115h-8.538v7.588h9.088V81.438z"/>
		<path d="M339.887,66.827c0,2.088-0.711,3.693-2.134,4.816s-3.459,1.686-6.107,1.686h-2.424v8.109h-2.395v-20.62h5.34
			C337.313,60.818,339.887,62.821,339.887,66.827z M329.222,71.268h2.156c2.122,0,3.658-0.342,4.606-1.029
			c0.948-0.686,1.423-1.785,1.423-3.299c0-1.363-0.446-2.379-1.338-3.047c-0.893-0.667-2.282-1.001-4.171-1.001h-2.677V71.268z"/>
		<path d="M362.076,71.1c0,3.301-0.833,5.895-2.5,7.785c-1.668,1.889-3.985,2.834-6.953,2.834c-3.034,0-5.375-0.928-7.023-2.785
			s-2.473-4.479-2.473-7.863c0-3.355,0.827-5.957,2.479-7.806c1.653-1.847,4.002-2.771,7.045-2.771c2.958,0,5.269,0.94,6.932,2.82
			C361.245,65.196,362.076,67.79,362.076,71.1z M345.663,71.1c0,2.793,0.594,4.91,1.782,6.354s2.914,2.164,5.178,2.164
			c2.282,0,4.006-0.719,5.171-2.158c1.164-1.438,1.746-3.559,1.746-6.359c0-2.773-0.58-4.877-1.739-6.311
			c-1.16-1.435-2.877-2.152-5.149-2.152c-2.282,0-4.018,0.722-5.206,2.166C346.257,66.247,345.663,68.344,345.663,71.1z"/>
		<path d="M366.67,60.818h5.818c2.733,0,4.71,0.409,5.932,1.227c1.221,0.818,1.831,2.111,1.831,3.879
			c0,1.223-0.341,2.23-1.021,3.025c-0.681,0.793-1.674,1.309-2.979,1.543v0.143c3.128,0.535,4.691,2.18,4.691,4.936
			c0,1.842-0.622,3.281-1.866,4.314c-1.245,1.035-2.985,1.553-5.221,1.553h-7.185V60.818z M369.064,69.647h3.945
			c1.69,0,2.906-0.266,3.648-0.797s1.113-1.426,1.113-2.688c0-1.154-0.413-1.99-1.24-2.502c-0.826-0.512-2.141-0.769-3.944-0.769
			h-3.522V69.647z M369.064,71.678v7.715h4.297c1.663,0,2.914-0.322,3.755-0.967s1.261-1.652,1.261-3.025
			c0-1.277-0.43-2.219-1.289-2.82s-2.167-0.902-3.924-0.902H369.064z"/>
		<path d="M181.517,101.487c0,2.088-0.711,3.693-2.135,4.816c-1.423,1.123-3.458,1.686-6.107,1.686h-2.423v8.109h-2.395V95.479
			h5.339C178.943,95.479,181.517,97.481,181.517,101.487z M170.852,105.928h2.155c2.123,0,3.658-0.342,4.607-1.029
			c0.949-0.686,1.423-1.785,1.423-3.299c0-1.363-0.446-2.379-1.338-3.047c-0.892-0.668-2.282-1.002-4.17-1.002h-2.677V105.928z"/>
		<path d="M203.706,105.76c0,3.301-0.833,5.895-2.5,7.785c-1.668,1.889-3.985,2.834-6.953,2.834c-3.034,0-5.375-0.928-7.023-2.785
			s-2.473-4.479-2.473-7.863c0-3.355,0.827-5.957,2.479-7.805c1.653-1.848,4.002-2.771,7.045-2.771c2.958,0,5.269,0.939,6.932,2.82
			C202.875,99.856,203.706,102.45,203.706,105.76z M187.293,105.76c0,2.793,0.594,4.91,1.782,6.354s2.914,2.164,5.178,2.164
			c2.282,0,4.006-0.719,5.171-2.158c1.164-1.438,1.746-3.559,1.746-6.359c0-2.773-0.58-4.877-1.739-6.312
			c-1.16-1.434-2.877-2.15-5.149-2.15c-2.282,0-4.018,0.723-5.206,2.166S187.293,103.004,187.293,105.76z"/>
		<path d="M217.119,97.327c-2.264,0-4.051,0.754-5.36,2.264c-1.311,1.508-1.966,3.574-1.966,6.197c0,2.699,0.632,4.783,1.895,6.256
			c1.264,1.471,3.064,2.207,5.403,2.207c1.438,0,3.076-0.26,4.917-0.775v2.102c-1.428,0.535-3.188,0.803-5.283,0.803
			c-3.034,0-5.375-0.922-7.023-2.764c-1.648-1.844-2.473-4.461-2.473-7.855c0-2.125,0.397-3.986,1.19-5.586
			c0.794-1.598,1.939-2.83,3.438-3.695c1.497-0.863,3.261-1.297,5.29-1.297c2.16,0,4.048,0.395,5.663,1.186l-1.014,2.059
			C220.237,97.692,218.678,97.327,217.119,97.327z"/>
		<path d="M235.321,97.327c-2.264,0-4.051,0.754-5.36,2.264c-1.311,1.508-1.966,3.574-1.966,6.197c0,2.699,0.632,4.783,1.895,6.256
			c1.264,1.471,3.064,2.207,5.403,2.207c1.438,0,3.076-0.26,4.917-0.775v2.102c-1.428,0.535-3.188,0.803-5.283,0.803
			c-3.034,0-5.375-0.922-7.023-2.764c-1.648-1.844-2.473-4.461-2.473-7.855c0-2.125,0.397-3.986,1.19-5.586
			c0.794-1.598,1.939-2.83,3.438-3.695c1.497-0.863,3.261-1.297,5.29-1.297c2.16,0,4.048,0.395,5.663,1.186l-1.014,2.059
			C238.439,97.692,236.88,97.327,235.321,97.327z"/>
		<path d="M244.732,95.479h2.239v11.465c0,2.117-0.065,4.029-0.197,5.74h0.113l11.553-17.205h2.62v20.619h-2.254v-11.354
			c0-1.891,0.08-3.873,0.239-5.951h-0.127l-11.566,17.305h-2.62V95.479z"/>
		<path d="M266.726,95.479h2.239v11.465c0,2.117-0.065,4.029-0.197,5.74h0.113l11.553-17.205h2.62v20.619H280.8v-11.354
			c0-1.891,0.08-3.873,0.239-5.951h-0.127l-11.566,17.305h-2.62V95.479z"/>
	</g>
</g>
<g id="logo3_copy.jpg_copy_xA0_Image_1_">
	<g>
		<path fill-rule="evenodd" clip-rule="evenodd" fill="#DF2026" d="M96.505,136.027c-0.602-0.562-0.778-1.203-0.56-2.031
			c2.705-10.269,5.384-20.543,8.081-30.813c0.433-1.649,0.992-2.053,2.681-2.201c4.208-0.368,8.058-1.919,11.825-3.696
			c12.22-5.764,18.226-15.73,19.986-28.857c1.271-9.476-2.295-17.071-8.265-23.858c-2.469-2.808-5.327-5.283-8.093-7.816
			c-0.989-0.905-1.138-1.861-0.826-3.012c1.335-4.935,2.687-9.865,4.031-14.798c0.497-1.822,0.968-2.05,2.746-1.283
			c12.712,5.481,21.243,14.803,25.964,27.812c2.656,7.317,2.896,14.844,2.72,22.45c-0.138,5.964-0.779,11.862-2.63,17.584
			c-3.709,11.456-10.901,20.065-21.344,25.934c-2.555,1.436-5.324,2.57-8.112,3.489c-3.009,0.992-5.025,2.377-5.446,5.887
			c-0.497,4.144-1.566,8.22-2.377,12.326c-0.423,2.141-0.833,2.503-3.005,2.606c-1.872,0.088-3.744,0.186-5.616,0.279
			C104.345,136.027,100.425,136.027,96.505,136.027z"/>
		<path fill-rule="evenodd" clip-rule="evenodd" fill="#DF2026" d="M37.623,90.979c-0.06,0.024-0.361,0.147-0.979,0.399
			c3.479,1.045,6.703,2.101,9.977,2.964c2.042,0.539,3.621,1.431,4.223,3.579c0.021,0.072,0.074,0.144,0.13,0.196
			c0.056,0.052,0.134,0.079,0.204,0.118c0.039,0,0.097,0.017,0.113-0.003c1.624-1.907,3.522-1.666,5.602-0.849
			c2.879,1.131,5.978,0.889,8.982,1.233c1.104,0.126,2.214,0.201,3.425,0.309c-0.787,2.815-1.585,5.532-2.303,8.271
			c-1.104,4.204-2.167,8.42-3.211,12.64c-0.191,0.771-0.465,1.119-1.357,1.054c-3.94-0.287-7.891-0.424-11.559-2.185
			c-1.575-0.757-3.217-1.374-5.062-2.153c0.693-0.559,1.146-0.924,1.75-1.412c-1.393-0.559-2.293-1.503-2.464-3.278
			c-0.658,0.513-1.197,0.825-1.6,1.264c-1.829,1.986-3.931,2.738-6.578,1.772c-1.785-0.651-3.822-0.815-5.41-1.761
			c-5.177-3.081-10.414-6.181-13.974-11.265c-2.36-3.37-4.932-6.669-6.734-10.331c-1.688-3.43-2.745-7.236-3.619-10.985
			c-1.389-5.963-2.16-12.061-1.477-18.189C6.839,52.171,8.897,42.2,15.104,33.685c4.769-6.544,10.294-12.342,17.675-16.059
			c4.001-2.015,8.354-2.902,12.638-4.022c3.148-0.823,6.342-1.236,9.596-1.182c1.312,0.022,1.722,0.449,1.344,1.705
			c-1.723,5.734-3.514,11.448-5.254,17.177c-0.441,1.451-1.434,2.246-2.813,2.682c-1.865,0.59-3.756,1.114-5.584,1.805
			c-6.708,2.536-11.259,7.363-14.474,13.648c-1.426,2.789-1.963,5.737-2.494,8.791c-1.133,6.521-0.861,12.9,1.145,19.161
			c1.619,5.056,4.634,9.274,8.642,12.745C36.066,90.606,36.924,90.71,37.623,90.979z"/>
	</g>
</g>
<g id="logo3_copy.jpg_xA0_Image_1_">
	<g>
		<path fill-rule="evenodd" clip-rule="evenodd" fill="#393186" d="M125.064,6.427c-0.758,2.808-1.484,5.624-2.281,8.42
			c-2.79,9.792-5.639,19.568-8.399,29.368c-2.89,10.259-5.717,20.536-8.548,30.812c-2.895,10.506-5.727,21.029-8.651,31.526
			c-1.532,5.498-3.251,10.944-4.794,16.439c-0.874,3.113-1.556,6.279-2.336,9.418c-0.586,2.36-1.147,2.806-3.557,2.816
			c-6.118,0.029-12.236,0.05-18.354,0.072c-0.36,0.001-0.721,0.007-1.08-0.019c-1.157-0.082-1.552-0.551-1.438-1.707
			c0.023-0.236,0.08-0.472,0.145-0.701c1.322-4.678,2.65-9.354,3.973-14.031c1.902-6.725,3.877-13.429,5.688-20.178
			C80.188,80.93,84.847,63.171,89.6,45.437c1.623-6.053,3.415-12.061,5.116-18.093c0.392-1.391,0.057-1.841-1.414-1.851
			c-3.479-0.024-6.959-0.017-10.439-0.008c-1.635,0.004-2.247,0.448-2.685,1.996c-1.229,4.343-2.466,8.685-3.645,13.042
			c-3.587,13.253-7.112,26.524-10.738,39.767c-1.599,5.84-3.439,11.613-5.07,17.444c-3.395,12.144-6.722,24.307-10.079,36.46
			c-0.431,1.563-0.693,1.803-2.34,1.771c-5.517-0.109-11.033-0.264-16.549-0.378c-1.275-0.026-2.555-0.004-3.829,0.066
			c-1.794,0.099-2.514-0.634-2.034-2.371c0.914-3.311,1.955-6.587,2.903-9.888c3.475-12.092,6.956-24.182,10.391-36.284
			c3.477-12.251,6.899-24.518,10.35-36.776c3.333-11.838,6.67-23.674,10.004-35.512c0.649-2.304,1.334-4.599,1.92-6.919
			c0.292-1.156,0.697-2.187,1.682-2.915c20.64,0,41.28,0,61.919,0C125.064,5.467,125.064,5.947,125.064,6.427z"/>
	</g>
</g>
</svg>
