<?xml version="1.0" encoding="utf-8"?>
<!-- Generator: Adobe Illustrator 21.1.0, SVG Export Plug-In . SVG Version: 6.00 Build 0)  -->
<svg version="1.1" id="Layer_1" xmlns="http://www.w3.org/2000/svg" xmlns:xlink="http://www.w3.org/1999/xlink" x="0px" y="0px"
	 viewBox="0 0 40.8 16.4" style="enable-background:new 0 0 40.8 16.4;" xml:space="preserve">
<style type="text/css">
	.st0{fill:#4F9DD4;}
</style>
<g>
	<path class="st0" d="M12.8,5.2c0,0.9-0.7,1.9-1.6,2.8L9.6,9.8h3.5v1.7H6.8v-1.4l3-3.2c0.5-0.5,0.8-1.1,0.8-1.4
		c0-0.5-0.3-0.8-0.9-0.8C9,4.8,8.1,5.2,7.4,5.8L6.6,4.3C7.6,3.5,8.8,3,10,3C11.6,3,12.8,3.9,12.8,5.2z"/>
	<path class="st0" d="M21.4,7.3c0,2.7-1.3,4.3-3.7,4.3c-2.4,0-3.7-1.5-3.7-4.3c0-2.7,1.3-4.3,3.7-4.3C20.1,3.1,21.4,4.6,21.4,7.3z
		 M16.2,7.3c0,1.9,0.5,2.7,1.5,2.7c1.1,0,1.5-0.8,1.5-2.7s-0.5-2.7-1.5-2.7C16.7,4.6,16.2,5.4,16.2,7.3z"/>
	<path class="st0" d="M23.6,11.5V4.8H22V3.1h3.7v8.4C25.7,11.5,23.6,11.5,23.6,11.5z"/>
	<path class="st0" d="M30.7,11.5h-2.3l3-6.7h-2.3V6h-1.9V3.1h6.5v1.5L30.7,11.5z"/>
</g>
</svg>
