<?xml version="1.0" encoding="utf-8"?>
<!-- Generator: Adobe Illustrator 21.1.0, SVG Export Plug-In . SVG Version: 6.00 Build 0)  -->
<svg version="1.1" id="Слой_1" xmlns="http://www.w3.org/2000/svg" xmlns:xlink="http://www.w3.org/1999/xlink" x="0px" y="0px"
	 viewBox="0 0 361.5 154.2" style="enable-background:new 0 0 361.5 154.2;" xml:space="preserve">
<style type="text/css">
	.st0{font-family:'AA-BebasNeue';}
	.st1{font-size:77.1043px;}
	.st2{font-size:73.8243px;}
</style>
<g>
	<text transform="matrix(1 0 0 1 162.7694 120.9385)" class="st0 st1">BRAVO</text>
	<text transform="matrix(1 0 0 1 309.4442 117.8975)" class="st0 st2">™</text>
	<g>
		<path d="M88,145.6c-0.1-0.1-0.2-0.2-0.3-0.3c-3.2-2.9-6.5-5.7-9.7-8.6c-4.7-4.2-8.4-9.2-11.4-14.7c-3-5.5-5.3-11.4-6.5-17.6
			c-0.7-3.6-1.1-7.2-1.2-10.8c0-1.8-0.1-3.5-0.1-5.3C58.7,83,59.5,78,60.9,73c0.4-1.3,0.7-2.7,0.9-4.1c0.3-1.5-0.2-2.8-1.2-3.9
			c-0.6-0.8-1.3-1.5-1.9-2.3c-3-3.9-4.3-8.2-3.9-13.1c0.2-2.8,1.2-5.4,2.9-7.6c0.7-0.9,1.4-1.8,2-2.8c1.3-1.8,1.6-3.7,1.4-5.8
			c-0.3-2.4-0.5-4.8-0.7-7.2c0-0.2,0-0.5,0.1-0.7c0.3,0.4,0.6,0.7,0.9,1.1c1.3,1.9,2.6,3.8,3.9,5.6c0.3,0.4,0.7,0.7,1.1,1.1
			c0.5,0.4,1.1,0.5,1.7,0.3c0.7-0.2,1.5-0.4,2.1-0.7c1.8-0.8,3.6-1.1,5.6-1.2c3.6-0.2,7.2-0.4,10.7-0.6c2.5-0.1,4.9,0.1,7.4,0.2
			c2,0.1,4.1,0.2,6.1,0.4c2.1,0.2,4.2,0.6,6.1,1.4c0.5,0.2,1.1,0.4,1.7,0.5c0.8,0.2,1.4-0.1,2-0.6c1.3-1.2,2.1-2.7,3.1-4.1
			c0.7-1,1.4-2.1,2.2-3.1c0.1-0.1,0.2-0.2,0.4-0.4c0,0.8,0.1,1.5,0,2.2c-0.2,1.9-0.4,3.7-0.6,5.6c-0.3,2.6,0.3,4.9,1.9,6.9
			c1.1,1.4,2.2,2.9,3.1,4.5c1.3,2.4,1.5,5.1,1.4,7.9c-0.3,4.7-2.2,8.6-5.3,12c-0.9,1-1.6,2-1.7,3.4c-0.1,1,0.1,2,0.3,2.9
			c0.6,2.5,1.3,4.9,1.8,7.4c0.6,2.6,0.8,5.3,0.9,8c0.1,3.6,0,7.1-0.3,10.7c-0.5,6.4-2,12.6-4.4,18.5c-2.9,7.2-6.9,13.6-12.4,19.1
			c-2.4,2.4-5,4.7-7.6,7c-1.4,1.3-2.9,2.6-4.4,3.8c-0.1,0.1-0.2,0.2-0.3,0.3C88.2,145.6,88.1,145.6,88,145.6z M70.8,64.8
			c0.6-0.1,1.7-0.2,2.7-0.4c2.6-0.6,4.7-2,6.7-3.7c1.6-1.4,2.5-3.1,2.7-5.2c0.1-1.2-0.2-2.1-1.2-2.8c-1-0.7-2.2-1.2-3.4-1.5
			c-3-0.6-5.9-1.5-8.7-2.7c-1.7-0.7-3.4-1.4-5.2-1.8c-0.7-0.1-1.4-0.3-2-0.2c-1.1,0.1-2,0.8-2.7,1.7c-0.8,1.1-1,2.3-1,3.6
			c0,2.4,0.6,4.8,1.6,6.9C62.4,62.7,65.8,64.7,70.8,64.8z M93.3,53.7c0,1.3,0.1,2.6,0.6,3.8c0.5,1.2,1.3,2.1,2.6,2.3
			c1.3,0.2,2.5,0.4,3.8,0.4c2.2,0.1,4.4,0.2,6.6,0.2c1.9,0,3.7,0,5.6-0.2c2.2-0.2,3.3-1.3,3.8-3.5c0.2-1.3,0.3-2.6,0.1-3.9
			c-0.3-1.9-0.9-3.8-2-5.5c-0.7-1.1-1.8-1.6-3.1-1.5c-1,0.1-1.9,0.4-2.8,0.9c-3.1,1.6-6.1,3.2-9.2,4.7
			C97.3,52.4,95.5,53.4,93.3,53.7z M88.1,74.6c0.2-0.2,0.3-0.4,0.4-0.5c1.4-2.5,2.9-4.9,4.3-7.4c1.1-1.9,0.9-3.4-0.7-4.9
			c-1.1-1-2.3-1.9-3.5-2.8c-0.3-0.2-0.6-0.2-0.8,0c-1.2,0.9-2.4,1.8-3.5,2.9c-1.5,1.4-1.7,2.9-0.7,4.7c1,1.8,2,3.5,3,5.3
			C86.9,72.7,87.5,73.6,88.1,74.6z"/>
		<path d="M164.7,42.6c0,0.3-0.1,0.6-0.1,1c-0.2,3.6-0.6,7.1-1.8,10.5c-0.4,1.1-0.6,2.3-0.9,3.3c-1.1,3-2.4,5.9-4,8.6
			c-1.8,3-3.5,5.9-5.5,8.8c-2.6,3.8-5.4,7.4-8.1,11.1c-3.3,4.5-6.8,8.7-10.6,12.8c-2.3,2.5-4.7,5-7.4,7.2c-2.3,1.8-4.3,4-6.6,5.8
			c-0.8,0.6-1.6,1.2-2.5,1.8c0-0.1,0.1-0.3,0.1-0.4c1.7-4.6,2.8-9.4,3.2-14.3c0.3-3,0.4-6,0.5-9c0.1-2.6,0-5.1-0.3-7.7
			c-0.4-3.3-1.1-6.5-2-9.7c-0.3-1.1-0.6-2.3-0.8-3.5c-0.3-1.7,0.4-3.2,1.6-4.4c2.7-2.9,4.5-6.2,5.2-10.1c0.7-4.2,0.2-8.1-2.3-11.7
			c-0.4-0.5-0.8-1.1-1.2-1.6c-0.1-0.1-0.2-0.3-0.3-0.5c1.1-1.2,2.1-2.3,3.2-3.4c3.2-3.3,6.7-6.2,10.2-9.2c2.5-2.2,5-4.5,7.5-6.6
			c2.8-2.4,5.7-4.6,8.4-7c2.3-1.9,4.5-3.9,6.6-5.9c1.3-1.2,2.3-2.6,3.4-4c0.1-0.1,0.1-0.2,0.2-0.3c0.1,0,0.2,0,0.2,0
			c0,0.2,0.1,0.3,0.1,0.5c0.8,2.3,1.5,4.6,1.9,6.9c1.1,5.9,1.6,11.9,1.7,18c0,0.6,0.1,1.2,0.1,1.8C164.7,35,164.7,38.8,164.7,42.6z"
			/>
		<path d="M15.4,4.1c0.1,0.2,0.2,0.4,0.4,0.6c2.2,3,4.9,5.6,7.8,7.9c3.3,2.7,6.7,5.4,9.9,8.2c5.2,4.5,10.4,9.1,15.6,13.7
			c2,1.8,3.8,3.7,5.5,5.7c0.2,0.3,0.2,0.4,0,0.7c-1.1,1.3-2,2.8-2.7,4.4c-1,2.6-1.3,5.4-0.9,8.2c0.6,4.2,2.4,7.9,5.3,10.9
			c1.6,1.7,2,3.6,1.4,5.8c-0.6,2.4-1.2,4.7-1.8,7.1c-0.7,2.8-0.9,5.6-1.1,8.4c-0.1,3.6,0,7.2,0.3,10.8c0.5,5.5,1.5,11,3.4,16.2
			c0.1,0.2,0.1,0.4,0.1,0.6c-0.7-0.5-1.4-1-2.1-1.5c-1.5-1.2-3-2.5-4.4-3.9c-1.1-1.1-2.3-2-3.4-2.9c-2.7-2.3-5.2-4.9-7.6-7.6
			c-1.8-2-3.5-4-5.2-6.1c-2.1-2.6-4-5.3-6.1-7.9c-2.7-3.5-5.3-7.1-7.7-10.8c-2.3-3.5-4.4-7.1-6.3-10.9C15,60,14.3,58.1,13.8,56
			c-0.5-1.7-1-3.4-1.4-5.2c-0.6-2.3-0.8-4.7-0.9-7.1c0-0.1,0-0.3-0.1-0.4c0-4.1,0-8.3,0-12.4c0-0.1,0.1-0.2,0.1-0.3
			c0-4.2,0.2-8.3,0.7-12.4c0.3-2.9,0.8-5.8,1.5-8.6c0.5-1.8,1.1-3.6,1.7-5.4C15.3,4.1,15.4,4.1,15.4,4.1z"/>
	</g>
</g>
</svg>
