<?xml version="1.0" encoding="utf-8"?>
<!-- Generator: Adobe Illustrator 16.0.0, SVG Export Plug-In . SVG Version: 6.00 Build 0)  -->
<!DOCTYPE svg PUBLIC "-//W3C//DTD SVG 1.1//EN" "http://www.w3.org/Graphics/SVG/1.1/DTD/svg11.dtd">
<svg version="1.1" id="Layer_1" xmlns="http://www.w3.org/2000/svg" xmlns:xlink="http://www.w3.org/1999/xlink" x="0px" y="0px"
	 width="2819.437px" height="944px" viewBox="0 0 2819.437 944" enable-background="new 0 0 2819.437 944" xml:space="preserve">
<g>
	<g>
		<path fill-rule="evenodd" clip-rule="evenodd" fill="#0FA94B" d="M62.055,500.32c0.716-0.716,1.548-1.067,2.586-0.918
			c0.47,0.067,0.958,0.013,1.438,0.013c275.175,0,550.351,0,825.526,0.018c0.923,0,1.846,0.266,2.77,0.408c0,3.84,0,7.68,0,11.52
			c-0.141,0.845-0.388,1.687-0.406,2.533c-0.217,9.678-0.876,19.326-2.084,28.929c-1.056,8.395-2.118,16.792-3.458,25.144
			c-0.986,6.142-2.396,12.216-3.669,18.309c-2.185,10.467-4.969,20.776-8.013,31.027c-3.339,11.246-7.19,22.31-11.499,33.209
			c-5.517,13.958-11.798,27.575-18.796,40.86c-13.529,25.685-29.556,49.704-48.078,72.045
			c-17.919,21.614-37.816,41.233-59.694,58.851c-19.472,15.68-40.166,29.509-62.119,41.457
			c-17.118,9.317-34.739,17.555-53.097,24.13c-9.526,3.413-19.117,6.675-28.785,9.66c-6.845,2.112-13.838,3.771-20.819,5.403
			c-7.301,1.706-14.631,3.334-22.012,4.633c-7.541,1.327-15.143,2.36-22.749,3.253c-8.009,0.939-16.055,1.555-24.083,2.323
			c-3.175,0.304-6.346,0.635-9.519,0.954c-11.2,0-22.4,0-33.601,0c-0.786-0.111-1.568-0.264-2.358-0.328
			c-6.769-0.551-13.543-1.041-20.308-1.64c-5.012-0.443-10.036-0.856-15.011-1.579c-7.343-1.068-14.668-2.294-21.964-3.649
			c-7.214-1.34-14.436-2.709-21.557-4.459c-7.887-1.939-15.668-4.309-23.487-6.521c-10.29-2.912-20.331-6.57-30.272-10.473
			c-16.654-6.537-32.821-14.144-48.482-22.805c-29.232-16.168-56.145-35.554-80.751-58.152
			c-21.223-19.491-40.198-40.969-56.996-64.368c-14.522-20.229-27.12-41.606-37.802-64.103
			c-5.374-11.318-10.325-22.822-14.507-34.64c-2.471-6.984-4.931-13.98-7.114-21.058c-2.374-7.696-4.532-15.464-6.572-23.256
			c-1.332-5.086-2.357-10.257-3.392-15.416c-1.256-6.259-2.531-12.521-3.515-18.826c-1.133-7.259-2.148-14.547-2.868-21.856
			c-0.845-8.588-1.32-17.211-1.952-25.818c-0.315-4.298-0.622-8.596-0.932-12.894C62.055,501.601,62.055,500.961,62.055,500.32z
			 M413.428,767.083c0.005,0.188,0.009,0.375,0.014,0.562c-4.762,0.334-9.526,0.633-14.285,1.011
			c-8.12,0.645-16.235,1.348-24.354,2.003c-1.51,0.122-2.532,0.868-3.182,2.191c-4.221,8.594-8.445,17.185-12.645,25.789
			c-0.218,0.447-0.217,1.002-0.364,1.735c0.91,0.103,1.598,0.242,2.288,0.248c7.998,0.076,15.995,0.138,23.993,0.191
			c15.036,0.101,30.071,0.193,45.107,0.291c2.879,0.019,5.758,0.073,8.637,0.059c1.807-0.01,2.012-0.261,2.081-2.108
			c0.012-0.319-0.015-0.641,0.006-0.959c0.499-7.571,0.833-15.159,1.556-22.71c0.585-6.113,1.537-12.197,2.513-18.265
			c0.747-4.646,1.789-9.243,2.691-13.863c1.148-5.877,2.177-11.781,3.456-17.63c1.808-8.272,3.385-16.575,4.203-25.009
			c0.704-7.267,0.673-14.499-0.342-21.765c-0.949-6.787-2.731-13.266-5.723-19.414c-5.464-11.229-14.061-19.516-24.688-25.753
			c-13.27-7.789-27.53-12.905-42.744-15.388c-2.013-0.329-3.256,0.149-4.632,1.526c-5.765,5.77-11.614,11.456-17.476,17.129
			c-11.175,10.815-21.316,22.528-30.544,35.038c-0.426,0.578-0.727,1.248-1.086,1.875c0.958,0.102,1.549-0.074,2.089-0.351
			c2.062-1.052,4.087-2.176,6.161-3.202c8.298-4.106,16.752-7.823,25.584-10.672c6.794-2.19,13.703-3.765,20.811-4.322
			c3.01-0.235,6.071-0.235,9.08,0.013c6.89,0.567,12.931,3.313,18.263,7.676c1.085,0.888,2.046,1.846,2.388,3.294
			c-0.745-0.194-1.344-0.526-1.918-0.898c-8.562-5.552-17.924-8.093-28.14-7.828c-7.534,0.195-14.651,2.206-21.702,4.52
			c-7.816,2.565-15.361,5.84-22.668,9.61c-5.026,2.593-9.896,5.487-14.873,8.179c-0.645,0.349-1.534,0.466-2.27,0.372
			c-0.931-0.117-1.89-0.433-2.716-0.885c-5.543-3.027-10.4-6.836-13.826-12.273c-0.805-1.277-1.737-2.507-2.779-3.599
			c-5.055-5.297-10.833-9.702-17.131-13.404c-3.081-1.811-6.443-2.728-10.083-2.452c-2.701,0.204-4.405,1.766-4.859,4.38
			c-0.551,3.168,0.319,5.749,2.563,8.065c3.893,4.021,7.692,8.136,11.448,12.285c4.139,4.573,7.944,9.389,10.458,15.106
			c0.639,1.454,1.47,2.836,2.319,4.184c6.553,10.394,16.162,17.298,26.606,23.247c1.171,0.667,2.417,1.288,3.403,2.18
			c5.64,5.097,12.077,8.889,19.057,11.788c7.477,3.106,15.209,5.289,23.272,6.249c1.963,0.233,3.904,0.649,6.103,1.024
			c0,0.945,0,1.806,0,2.666c0,8.318-0.006,16.637,0.008,24.955c0.001,0.924,0.123,1.848,0.203,2.981
			C387.817,766.867,400.623,766.976,413.428,767.083z M543.541,767.627c0.015-0.183,0.027-0.365,0.042-0.548
			c12.832-0.107,25.665-0.216,38.676-0.324c0.085-1.272,0.2-2.209,0.201-3.146c0.015-8.318,0.005-16.638,0.015-24.956
			c0.001-0.845,0.081-1.688,0.126-2.549c0.647-0.11,1.034-0.188,1.424-0.239c7.605-1.019,15.13-2.373,22.407-4.916
			c8.984-3.139,17.297-7.426,24.419-13.839c0.588-0.528,1.222-1.064,1.929-1.39c5.124-2.357,9.579-5.738,14.056-9.09
			c7.083-5.304,12.934-11.664,16.694-19.759c1.526-3.286,3.324-6.405,5.686-9.127c4.294-4.951,8.747-9.763,13.113-14.651
			c1.543-1.728,3.192-3.394,4.493-5.293c1.68-2.451,1.409-5.177,0.157-7.744c-0.748-1.533-2.152-2.272-3.888-2.396
			c-3.098-0.222-6.077,0.229-8.824,1.689c-7.403,3.937-13.947,9.002-19.6,15.203c-0.589,0.646-1.123,1.365-1.563,2.12
			c-2.733,4.681-6.739,8.082-11.175,11.008c-1.514,0.998-3.248,1.681-4.924,2.409c-1.262,0.55-2.461,0.392-3.563-0.575
			c-0.714-0.626-1.543-1.146-2.381-1.602c-11.929-6.488-24.05-12.558-37.072-16.599c-6.334-1.966-12.716-3.583-19.433-3.734
			c-10.134-0.228-19.417,2.308-27.905,7.822c-0.562,0.365-1.158,0.677-1.738,1.013c0.293-1.698,1.341-2.698,2.49-3.637
			c6.312-5.154,13.614-7.727,21.685-7.743c9.755-0.019,19.185,2.133,28.365,5.293c10.278,3.537,20.124,8.08,29.683,13.252
			c0.51,0.275,1.11,0.385,1.67,0.572c-0.044-0.938-0.343-1.55-0.745-2.082c-2.023-2.679-4.08-5.334-6.114-8.004
			c-12.665-16.624-28.259-30.463-42.937-45.174c-0.741-0.742-1.592-0.986-2.624-0.767c-3.976,0.846-7.992,1.523-11.928,2.526
			c-9.38,2.391-18.405,5.777-26.995,10.253c-7.49,3.903-14.336,8.706-20.144,14.9c-9.642,10.282-14.268,22.718-15.581,36.53
			c-0.83,8.724-0.213,17.418,1.001,26.073c0.311,2.213,0.704,4.418,1.146,6.609c1.139,5.632,2.364,11.245,3.484,16.88
			c1.166,5.868,2.308,11.741,3.354,17.632c1.229,6.917,2.619,13.822,3.437,20.792c0.985,8.407,1.454,16.875,2.118,25.319
			c0.106,1.354,0.056,2.719,0.1,4.077c0.03,0.954,0.506,1.479,1.502,1.46c0.56-0.012,1.119-0.007,1.679-0.012
			c10.558-0.095,21.115-0.21,31.673-0.281c14.797-0.101,29.595-0.164,44.392-0.264c0.897-0.006,1.794-0.19,3.031-0.329
			c-0.477-1.174-0.749-1.987-1.126-2.75c-3.884-7.872-7.852-15.703-11.635-23.623c-1.01-2.116-2.236-3.365-4.663-3.369
			c-1.184-0.002-2.36-0.419-3.551-0.505c-6.854-0.496-13.713-0.941-20.568-1.422C552.587,768.308,548.064,767.961,543.541,767.627z
			 M323.775,675.617c0.571-0.717,1.068-1.311,1.535-1.929c2.791-3.7,5.565-7.412,8.364-11.106c1.398-1.845,1.397-1.812-0.314-3.495
			c-14.539-14.306-28.367-29.279-41.882-44.548c-8.595-9.711-16.05-20.31-23.783-30.688c-2.189-2.938-4.052-6.119-6.152-9.128
			c-1.964-2.815-3.953-5.622-6.098-8.3c-1.902-2.374-4.108-4.49-6.829-5.947c-0.828-0.443-1.758-0.796-2.68-0.944
			c-1.952-0.314-3.326,0.571-3.711,2.515c-0.258,1.307-0.264,2.699-0.154,4.035c0.388,4.737,1.878,9.226,3.554,13.613
			c5.191,13.593,12.091,26.287,21.535,37.381c10.825,12.717,21.991,25.146,33.136,37.588c6.569,7.333,13.653,14.149,21.732,19.851
			C322.533,674.869,323.073,675.175,323.775,675.617z M633.45,675.683c3.517-2.763,7.114-5.288,10.364-8.2
			c7.748-6.944,14.787-14.601,21.668-22.394c7.987-9.046,16.085-18.006,23.803-27.279c10.885-13.077,18.934-27.796,24.077-44.047
			c1.036-3.275,1.819-6.639,1.642-10.121c-0.193-3.803-2.651-5.267-6.025-3.485c-1.536,0.811-3.013,1.854-4.267,3.053
			c-1.843,1.76-3.637,3.625-5.137,5.677c-2.305,3.153-4.201,6.605-6.518,9.749c-6.92,9.39-13.823,18.797-20.989,27.997
			c-8.161,10.479-17.333,20.092-26.44,29.74c-7.353,7.788-14.893,15.399-22.353,23.086c-1.237,1.275-1.26,1.372-0.202,2.785
			c3.161,4.221,6.329,8.436,9.501,12.648C632.714,675.077,632.923,675.212,633.45,675.683z M348.634,645.034
			c-0.726-0.827-1.324-1.563-1.978-2.244c-8.48-8.823-17.156-17.468-25.393-26.513c-6.129-6.731-11.623-14.038-17.524-20.982
			c-8.134-9.57-15.953-19.37-23.264-29.595c-4.46-6.238-9.261-12.262-14.873-17.543c-1.495-1.407-3.265-2.546-4.997-3.672
			c-1.546-1.004-3.313-1.405-4.984-0.368c-1.79,1.111-1.55,3.005-1.432,4.766c0.238,3.546,1.375,6.881,2.601,10.164
			c2.862,7.665,6.973,14.717,11.274,21.619c6.619,10.62,14.906,19.983,23.024,29.45c13.966,16.284,29.035,31.535,44.113,46.775
			c0.487,0.492,1.053,0.908,1.714,1.472C340.832,653.908,344.616,649.604,348.634,645.034z M620.065,658.371
			c0.629-0.509,1.026-0.771,1.354-1.104c16.82-17.001,33.626-34.019,48.973-52.394c8.399-10.058,16.866-20.062,22.996-31.792
			c2.886-5.522,5.933-10.944,7.829-16.913c0.97-3.055,1.854-6.125,1.603-9.387c-0.163-2.108-1.321-3.234-3.417-3.154
			c-0.854,0.032-1.817,0.174-2.52,0.607c-1.823,1.128-3.672,2.287-5.255,3.716c-4.949,4.468-9.068,9.707-13.037,15.016
			c-7.85,10.501-15.783,20.914-24.15,31.024c-10.047,12.141-19.941,24.386-31.114,35.533c-4.529,4.52-8.96,9.137-13.426,13.719
			c-1.687,1.73-1.647,1.754-0.116,3.471c2.873,3.223,5.708,6.479,8.561,9.721C618.865,657.025,619.39,657.611,620.065,658.371z
			 M682.627,545.362c0-0.713,0.024-1.035-0.004-1.352c-0.286-3.239-2.935-5.247-5.864-3.584c-1.448,0.823-2.987,1.586-4.211,2.684
			c-2.137,1.916-4.202,3.95-6.05,6.144c-11.327,13.448-22.564,26.974-33.873,40.438c-7.869,9.37-15.939,18.557-25.017,26.804
			c-4.142,3.763-8.215,7.601-12.316,11.406c-1.788,1.658-1.868,2.276-0.248,3.914c3.43,3.467,6.9,6.893,10.378,10.312
			c1.002,0.983,1.334,0.966,2.381-0.05c1.09-1.058,2.116-2.18,3.186-3.258c20.29-20.465,39.102-42.215,56.518-65.169
			c4.297-5.663,8.365-11.499,11.712-17.793C681.031,552.448,682.179,548.812,682.627,545.362z M274.4,544.345
			c0.077,1.005,0.082,1.488,0.154,1.961c0.641,4.16,2.087,8.07,4.356,11.567c3.909,6.024,7.838,12.057,12.14,17.8
			c12.417,16.579,25.983,32.215,39.936,47.507c5.869,6.433,12.068,12.565,18.131,18.82c1.096,1.131,1.42,1.133,2.545,0.028
			c3.42-3.361,6.834-6.729,10.212-10.132c1.641-1.652,1.587-2.361-0.112-3.932c-1.937-1.789-3.926-3.523-5.818-5.359
			c-6.421-6.232-13.257-12.108-19.122-18.829c-14.971-17.154-29.482-34.71-44.233-52.058c-2.53-2.976-5.204-5.859-8.065-8.512
			c-1.474-1.366-3.432-2.302-5.31-3.11c-1.707-0.735-3.377,0.07-4.163,1.773C274.63,542.781,274.526,543.838,274.4,544.345z
			 M591.146,627.942c0.54-0.384,0.894-0.579,1.181-0.846c7.538-7.031,15.472-13.693,22.505-21.199
			c9.939-10.605,19.266-21.789,28.741-32.823c3.221-3.75,6.269-7.677,8.523-12.129c1.218-2.404,1.771-4.96,1.469-7.651
			c-0.273-2.425-1.787-4.215-4.015-4.422c-1.302-0.121-2.81-0.045-3.94,0.517c-1.602,0.795-3.155,1.924-4.355,3.248
			c-6.225,6.869-12.404,13.782-18.462,20.798c-12.913,14.953-26.021,29.707-41.233,42.422c-0.457,0.382-0.785,0.92-0.896,1.053
			C584.23,620.664,587.626,624.237,591.146,627.942z M376.816,617.248c-0.848-0.82-1.504-1.479-2.186-2.112
			c-5.447-5.054-11.045-9.954-16.32-15.182c-11.021-10.925-20.859-22.93-31.076-34.588c-3.896-4.446-7.841-8.854-11.898-13.152
			c-1.169-1.239-2.696-2.289-4.255-2.981c-3.29-1.461-7.854,0.072-7.69,5.125c0.082,2.536,0.45,4.962,1.805,7.094
			c1.881,2.959,3.711,5.993,5.946,8.677c7.821,9.393,15.805,18.651,23.73,27.957c8.839,10.38,19.08,19.326,29.141,28.453
			c1.802,1.635,1.843,1.602,3.659-0.185c2.109-2.073,4.208-4.156,6.307-6.24C374.871,619.227,375.75,618.325,376.816,617.248z"/>
		<path fill-rule="evenodd" clip-rule="evenodd" fill="#EF7324" d="M483.015,29.92c1.552,0.536,3.154,0.957,4.646,1.626
			c7.411,3.323,11.239,9.152,11.812,17.191c0.045,0.637,0.022,1.279,0.022,1.919c0.001,39.598-0.01,79.195,0.016,118.793
			c0.003,4.528-0.939,8.744-3.666,12.413c-4.728,6.364-11.2,9.091-18.9,7.762c-7.714-1.332-12.876-6.163-15.158-13.693
			c-0.657-2.171-0.7-4.584-0.705-6.888c-0.05-21.038-0.03-42.077-0.03-63.115c0-18.399,0.002-36.798-0.001-55.197
			c-0.001-3.386,0.28-6.724,1.872-9.79c2.842-5.472,7.149-9.117,13.255-10.481c0.532-0.119,1.038-0.356,1.557-0.539
			C479.495,29.92,481.255,29.92,483.015,29.92z"/>
		<path fill-rule="evenodd" clip-rule="evenodd" fill="#EF7324" d="M708.349,459.054c-0.238,6.4-0.383,12.318-0.709,18.225
			c-0.202,3.664-1.893,6.787-4.486,9.292c-5.306,5.124-11.721,6.874-18.964,5.779c-4.655-0.704-8.706-2.616-11.938-6.083
			c-3.285-3.526-4.521-7.641-4.211-12.52c0.401-6.295,0.561-12.639,0.27-18.937c-0.377-8.135-1.043-16.278-2.073-24.355
			c-0.785-6.161-2.268-12.237-3.554-18.328c-2.082-9.862-5.243-19.399-8.908-28.777c-6.756-17.286-15.69-33.362-26.862-48.182
			c-17.801-23.614-39.701-42.418-66.062-55.9c-11.468-5.865-23.45-10.431-35.947-13.64c-9.223-2.368-18.544-4.016-28.03-4.952
			c-7.266-0.718-14.528-1.066-21.793-0.723c-6.613,0.312-13.207,1.077-19.8,1.732c-7.493,0.745-14.812,2.451-22.049,4.44
			c-14.525,3.994-28.371,9.695-41.439,17.209c-31.932,18.359-56.414,44.003-74.224,76.136
			c-5.974,10.778-10.888,22.036-14.794,33.713c-3.167,9.466-5.648,19.119-7.45,28.955c-2.877,15.714-4.079,31.535-3.481,47.495
			c0.048,1.276,0.038,2.579,0.295,3.82c0.8,3.857-0.248,7.298-2.281,10.486c-2.322,3.642-5.68,6.047-9.734,7.415
			c-7.091,2.394-13.881,1.712-20.16-2.45c-4.777-3.167-7.3-7.715-7.585-13.458c-0.565-11.356-0.521-22.722,0.323-34.052
			c0.534-7.16,1.647-14.28,2.6-21.405c1.153-8.636,3.073-17.126,5.312-25.533c2.362-8.87,5.213-17.587,8.514-26.163
			c6.333-16.459,14.313-32.06,23.952-46.821c10.809-16.554,23.451-31.553,37.958-44.99c15.163-14.046,31.893-25.863,50.259-35.333
			c9.586-4.942,19.494-9.143,29.725-12.597c10.301-3.478,20.777-6.195,31.485-8.079c9.063-1.595,18.162-2.772,27.371-2.982
			c5.032-0.115,10.07-0.412,15.095-0.274c8.784,0.24,17.567,0.703,26.244,2.252c6.286,1.122,12.598,2.14,18.829,3.517
			c4.896,1.081,9.729,2.508,14.517,4.016c9.216,2.904,18.187,6.448,26.947,10.545c13.728,6.418,26.647,14.17,38.767,23.247
			c28.956,21.686,51.656,48.698,68.571,80.638c5.2,9.82,9.71,19.947,13.561,30.358c3.378,9.135,6.273,18.432,8.436,27.935
			c1.347,5.917,2.729,11.839,3.704,17.821c1.104,6.774,1.962,13.603,2.572,20.438C707.756,445.144,707.974,452.342,708.349,459.054z
			"/>
		<path fill-rule="evenodd" clip-rule="evenodd" fill="#EF7324" d="M618.813,463.019c0.11-7.539-0.307-15.691-1.483-23.767
			c-1.047-7.184-2.565-14.282-4.564-21.286c-3.394-11.887-8.088-23.212-14.252-33.905c-14.125-24.505-33.502-43.611-58.692-56.674
			c-8.535-4.426-17.493-7.801-26.776-10.233c-6.564-1.72-13.256-2.843-20.023-3.566c-6.628-0.709-13.261-0.758-19.886-0.458
			c-6.545,0.297-13.036,1.207-19.467,2.54c-18.896,3.916-36.074,11.663-51.637,23.027c-17.935,13.096-31.946,29.587-42.45,49.119
			c-4.894,9.102-8.814,18.612-11.735,28.504c-2.671,9.047-4.52,18.273-5.536,27.682c-1.127,10.449-1.167,20.915-0.805,31.379
			c0.195,5.613-3.445,10.431-9.186,12.277c-4.156,1.337-8.386,1.124-12.376-0.837c-4.544-2.233-7.163-5.927-7.288-10.993
			c-0.28-11.438-0.152-22.883,1.018-34.271c0.578-5.632,1.644-11.217,2.591-16.807c1.335-7.883,3.497-15.559,5.981-23.152
			c3.986-12.186,9.222-23.804,15.668-34.879c10.895-18.717,24.686-34.97,41.543-48.586c14.163-11.438,29.771-20.331,46.894-26.564
			c7.74-2.818,15.647-5.042,23.717-6.598c7.925-1.527,15.949-2.342,24.03-2.7c7.369-0.326,14.714-0.026,22.021,0.694
			c5.548,0.548,11.047,1.651,16.541,2.653c9.458,1.726,18.56,4.706,27.423,8.361c18.123,7.476,34.375,17.927,48.815,31.19
			c19.013,17.462,33.418,38.186,43.568,61.869c4.535,10.58,7.979,21.524,10.465,32.788c2.298,10.411,3.826,20.913,4.233,31.547
			c0.343,8.944,0.29,17.905,0.372,26.859c0.064,6.995-5.062,11.257-10.829,12.489c-4.1,0.876-8.115,0.416-11.802-1.803
			c-4.097-2.467-6.25-5.965-6.12-10.873C618.913,473.25,618.813,468.447,618.813,463.019z"/>
		<path fill-rule="evenodd" clip-rule="evenodd" fill="#EF7324" d="M362.038,464.535c-0.042-7.449,0.388-14.882,1.597-22.222
			c2.336-14.19,6.682-27.741,13.396-40.512c8.108-15.423,18.799-28.722,32.352-39.684c11.488-9.291,24.267-16.175,38.396-20.586
			c13.449-4.199,27.227-5.776,41.2-4.686c25.784,2.016,48.331,11.905,67.648,29.077c13.518,12.016,23.832,26.383,31.238,42.884
			c3.776,8.414,6.652,17.112,8.598,26.103c2.17,10.029,3.139,20.206,3.151,30.469c0.005,4.8-0.146,9.604,0.013,14.397
			c0.174,5.229-3.808,9.074-9.121,9.457c-4.733,0.341-8.905-1.952-10.312-5.797c-0.348-0.949-0.488-2.02-0.5-3.036
			c-0.099-8.317,0.036-16.643-0.28-24.95c-0.16-4.204-1.084-8.381-1.698-12.564c-0.78-5.31-2.276-10.437-4.006-15.504
			c-4.413-12.925-11.003-24.609-19.871-35.004c-10.022-11.747-22.056-20.795-36.253-26.903c-7.958-3.424-16.233-5.679-24.85-6.8
			c-6.536-0.852-13.055-1.063-19.61-0.499c-7.348,0.633-14.521,2.091-21.532,4.408c-17.858,5.901-32.608,16.341-44.657,30.657
			c-8.1,9.624-14.344,20.378-18.418,32.292c-1.828,5.346-3.488,10.797-4.603,16.326c-1.118,5.541-1.75,11.223-2.068,16.872
			c-0.355,6.301-0.175,12.635-0.118,18.953c0.049,5.394-2.391,8.546-7.7,9.496c-2.491,0.445-4.934,0.18-7.22-1.018
			c-3.208-1.679-4.793-4.319-4.775-7.949C362.055,473.654,362.038,469.095,362.038,464.535z"/>
		<path fill-rule="evenodd" clip-rule="evenodd" fill="#EF7324" d="M675.17,285.853c-10.04,0.066-19.401-9.077-18.363-20.979
			c0.448-5.144,2.786-9.453,6.709-12.859c3.623-3.146,7.243-6.294,10.876-9.429c26.7-23.038,53.412-46.063,80.096-69.121
			c3.966-3.428,8.426-5.483,13.718-5.378c9.022,0.18,16.127,5.925,18.231,14.001c1.967,7.544,0.109,14.283-5.808,19.602
			c-4.282,3.849-8.679,7.568-13.037,11.331c-16.284,14.056-32.574,28.104-48.861,42.158c-9.808,8.463-19.618,16.923-29.416,25.399
			C685.431,283.938,681.04,285.953,675.17,285.853z"/>
		<path fill-rule="evenodd" clip-rule="evenodd" fill="#EF7324" d="M287.315,282.911c-4.912,0.159-8.888-1.523-12.481-4.254
			c-7.191-5.464-14.362-10.953-21.548-16.422c-22.958-17.471-45.92-34.936-68.878-52.406c-2.099-1.597-4.239-3.146-6.259-4.838
			c-5.953-4.987-8.033-11.524-6.542-18.933c1.39-6.904,5.785-11.703,12.467-14.021c6.593-2.288,12.766-1.065,18.325,3.13
			c5.422,4.092,10.812,8.226,16.218,12.34c24.803,18.875,49.606,37.748,74.407,56.626c2.162,1.646,4.378,3.23,6.438,4.996
			c10.956,9.39,8.303,26.576-4.769,32.278C292.26,282.468,289.714,283.137,287.315,282.911z"/>
		<path fill-rule="evenodd" clip-rule="evenodd" fill="#EF7324" d="M87.63,421.95c11.634,0.556,22.173,1.087,32.716,1.555
			c12.303,0.545,24.61,0.997,36.913,1.56c11.02,0.503,22.035,1.118,33.053,1.651c5.669,0.274,11.341,0.484,17.013,0.71
			c7.387,0.293,12.996,3.619,16.636,10.026c6,10.56,0.24,24.207-11.425,27.583c-4.13,1.196-8.254,0.688-12.385,0.573
			c-4.473-0.125-8.938-0.508-13.41-0.722c-12.937-0.617-25.875-1.217-38.814-1.801c-5.432-0.246-10.868-0.41-16.3-0.656
			c-10.383-0.47-20.765-0.959-31.146-1.465c-5.907-0.287-11.827-0.45-17.712-0.981c-6.836-0.616-13.016-5.985-15.337-12.848
			c-3.388-10.018,2.214-20.354,11.375-23.941C82.002,421.943,85.34,421.753,87.63,421.95z"/>
		<path fill-rule="evenodd" clip-rule="evenodd" fill="#EF7324" d="M757.754,467.896c-1.921,0-4.078,0.068-6.231-0.012
			c-7.692-0.286-16.251-6.645-17.574-16.792c-0.976-7.478,2.964-16.306,11.752-20.005c1.868-0.786,3.992-1.208,6.025-1.322
			c10.688-0.6,21.386-1.052,32.08-1.546c6.863-0.317,13.727-0.622,20.591-0.93c7.264-0.326,14.527-0.649,21.79-0.976
			c7.264-0.325,14.527-0.653,21.79-0.979c7.185-0.321,14.373-0.58,21.553-0.987c3.035-0.172,6.023-0.416,9.054,0.216
			c7.938,1.655,14.32,8.753,15.058,16.919c0.757,8.382-4.18,16.443-11.803,19.548c-3.345,1.362-6.834,1.582-10.333,1.737
			c-10.219,0.454-20.443,0.76-30.662,1.211c-17.243,0.763-34.482,1.596-51.725,2.391c-6.944,0.32-13.891,0.605-20.835,0.934
			C764.852,467.465,761.423,467.687,757.754,467.896z"/>
		<path fill-rule="evenodd" clip-rule="evenodd" fill="#EF7324" d="M752.579,369.267c-8.59,0.111-16.562-5.273-18.765-14.391
			c-1.98-8.199,0.762-16.231,8.647-21.099c6.925-4.275,14.018-8.278,21.037-12.401c12.318-7.235,24.673-14.41,36.937-21.737
			c4.688-2.802,9.648-3.965,14.904-2.768c7.143,1.627,11.999,6.061,14.29,13.1c2.84,8.729-1.393,18.164-9.542,22.842
			c-15.436,8.858-30.726,17.972-46.076,26.98c-3.786,2.222-7.574,4.44-11.352,6.676C759.498,368.34,756.109,369.359,752.579,369.267
			z"/>
		<path fill-rule="evenodd" clip-rule="evenodd" fill="#EF7324" d="M656.769,114.398c0.276,3.841-1.072,7.215-2.976,10.434
			c-9.192,15.536-18.381,31.076-27.572,46.613c-2.155,3.643-4.288,7.3-6.48,10.919c-4.604,7.6-12.085,11.148-20.823,9.365
			c-7.434-1.516-12.258-6.289-14.437-13.536c-1.658-5.512-0.631-10.736,2.279-15.649c11.276-19.035,22.552-38.071,33.796-57.125
			c2.438-4.13,5.673-7.259,10.206-9.009c9.048-3.493,19.178,0.163,23.836,8.786C656.142,108.053,657.011,111.108,656.769,114.398z"
			/>
		<path fill-rule="evenodd" clip-rule="evenodd" fill="#EF7324" d="M320.564,100.75c7.782,0.352,13.244,3.21,17.005,8.986
			c7.368,11.315,14.659,22.681,21.973,34.03c4.847,7.521,9.651,15.069,14.53,22.57c2.528,3.887,3.793,8.084,3.369,12.712
			c-0.753,8.212-6.474,14.961-14.391,16.937c-8.396,2.096-16.73-1.526-21.478-8.962c-9.629-15.082-19.347-30.109-29.03-45.157
			c-2.335-3.629-4.659-7.264-7.023-10.873c-2.743-4.188-3.854-8.752-3.092-13.698c1.175-7.635,5.522-12.769,12.718-15.4
			C317.133,101.167,319.327,101,320.564,100.75z"/>
		<path fill-rule="evenodd" clip-rule="evenodd" fill="#EF7324" d="M212.875,367.268c-3.539-0.032-6.688-1.138-9.696-2.692
			c-19.772-10.222-39.539-20.454-59.292-30.713c-8.222-4.27-12.142-12.052-10.491-21.119c1.207-6.629,5.193-11.286,11.302-13.887
			c5.479-2.332,11.054-2.094,16.417,0.672c13.402,6.91,26.8,13.828,40.195,20.752c6.732,3.479,13.451,6.986,20.184,10.464
			c4.958,2.561,8.33,6.55,9.75,11.869c2.84,10.634-2.978,20.378-12.34,23.351C216.953,366.584,214.888,366.842,212.875,367.268z"/>
	</g>
	<g>
		<path d="M1106.324,278.587h-11.581v-27.238h-72.636v27.238h-11.581v-38.248h8.078c7.339-12.343,13.619-27.356,18.838-45.04
			c5.22-17.682,8.114-33.839,8.687-48.471h46.97v93.511h13.226V278.587z M1080.945,240.339v-82.572h-23.807
			c-0.858,11.535-3.742,25.392-8.65,41.572c-4.909,16.182-10.629,29.848-17.158,41H1080.945z"/>
		<path d="M1182.177,251.349h-58.265V146.828h58.265v10.795h-46.111v33.672h43.323v10.724h-43.323v38.462h46.111V251.349z"/>
		<path d="M1283.338,251.349h-12.154v-93.725h-53.689v93.725h-12.153V146.828h77.997V251.349z"/>
		<path d="M1377.777,251.349l-13.012-33.244h-41.894l-12.868,33.244h-12.297l41.322-104.949h10.223l41.107,104.949H1377.777z
			 M1360.977,207.167l-12.153-32.386c-1.572-4.098-3.193-9.126-4.861-15.084c-1.049,4.575-2.55,9.604-4.504,15.084l-12.297,32.386
			H1360.977z"/>
		<path d="M1471.002,177.284c0,10.581-3.61,18.719-10.831,24.414c-7.221,5.696-17.552,8.543-30.992,8.543h-12.296v41.107h-12.153
			V146.828h27.095C1457.942,146.828,1471.002,156.98,1471.002,177.284z M1416.883,199.803h10.938
			c10.771,0,18.562-1.739,23.377-5.219c4.813-3.479,7.221-9.055,7.221-16.729c0-6.91-2.264-12.058-6.791-15.442
			c-4.529-3.384-11.582-5.076-21.162-5.076h-13.583V199.803z"/>
		<path d="M1525.05,251.349h-12.153v-93.725h-33.101v-10.795h78.354v10.795h-33.101V251.349z"/>
		<path d="M1639.579,251.349l-13.012-33.244h-41.894l-12.868,33.244h-12.297l41.322-104.949h10.223l41.107,104.949H1639.579z
			 M1622.778,207.167l-12.153-32.386c-1.572-4.098-3.193-9.126-4.861-15.084c-1.049,4.575-2.55,9.604-4.504,15.084l-12.297,32.386
			H1622.778z"/>
		<path d="M1712.786,251.349l-35.46-92.653h-0.572c0.667,7.34,1.001,16.062,1.001,26.166v66.487h-11.224V146.828h18.302
			l33.101,86.219h0.571l33.387-86.219h18.159v104.521h-12.154v-67.345c0-7.721,0.333-16.109,1.001-25.165h-0.571l-35.746,92.51
			H1712.786z"/>
		<path d="M1856.983,251.349h-58.265V146.828h58.265v10.795h-46.111v33.672h43.323v10.724h-43.323v38.462h46.111V251.349z"/>
		<path d="M1959.503,251.349h-12.154v-49.186h-55.048v49.186h-12.153V146.828h12.153v44.468h55.048v-44.468h12.154V251.349z"/>
		<path d="M2020.342,251.349h-12.153v-93.725h-33.101v-10.795h78.354v10.795h-33.101V251.349z"/>
		<path d="M2139.375,251.349h-12.153v-93.725h-33.101v-10.795h78.354v10.795h-33.101V251.349z"/>
		<path d="M2254.476,177.284c0,10.581-3.61,18.719-10.831,24.414c-7.221,5.696-17.552,8.543-30.992,8.543h-12.296v41.107h-12.153
			V146.828h27.095C2241.416,146.828,2254.476,156.98,2254.476,177.284z M2200.356,199.803h10.938
			c10.771,0,18.562-1.739,23.377-5.219c4.813-3.479,7.221-9.055,7.221-16.729c0-6.91-2.264-12.058-6.791-15.442
			c-4.529-3.384-11.582-5.076-21.162-5.076h-13.583V199.803z"/>
		<path d="M2282.93,252.778c-5.291,0-9.938-0.715-13.941-2.145v-11.868c4.433,2.05,8.937,3.074,13.512,3.074
			c5.243,0,9.448-1.203,12.619-3.61c3.169-2.406,6.326-6.922,9.472-13.548l-40.678-77.854h13.44l30.884,59.41
			c1.19,2.335,2.12,4.623,2.788,6.863h0.572c1.334-4.003,2.263-6.529,2.788-7.578l25.665-58.694h12.868l-33.386,74.78
			c-4.004,8.913-7.614,15.395-10.831,19.445c-3.217,4.052-6.84,7.019-10.867,8.901S2288.839,252.778,2282.93,252.778z"/>
		<path d="M2449.718,278.587h-11.581v-27.238h-72.636v27.238h-11.581v-38.248h8.078c7.339-12.343,13.619-27.356,18.838-45.04
			c5.22-17.682,8.114-33.839,8.687-48.471h46.97v93.511h13.226V278.587z M2424.339,240.339v-82.572h-23.807
			c-0.858,11.535-3.742,25.392-8.65,41.572c-4.909,16.182-10.629,29.848-17.158,41H2424.339z"/>
		<path d="M2533.006,251.349l-13.012-33.244h-41.894l-12.868,33.244h-12.297l41.322-104.949h10.223l41.107,104.949H2533.006z
			 M2516.205,207.167l-12.153-32.386c-1.572-4.098-3.193-9.126-4.861-15.084c-1.049,4.575-2.55,9.604-4.504,15.084l-12.297,32.386
			H2516.205z"/>
		<path d="M2598.135,146.828h11.367v58.123c0,10.724-0.334,20.423-1.001,29.097h0.572l58.623-87.22h13.297v104.521h-11.438v-57.551
			c0-9.58,0.404-19.635,1.216-30.169h-0.644l-58.694,87.72h-13.298V146.828z"/>
		<path d="M1044.521,331.891c-11.486,0-20.554,3.825-27.202,11.475s-9.973,18.123-9.973,31.421c0,13.679,3.204,24.247,9.615,31.706
			c6.409,7.46,15.55,11.188,27.417,11.188c7.292,0,15.608-1.311,24.95-3.933V424.4c-7.245,2.717-16.182,4.075-26.809,4.075
			c-15.396,0-27.274-4.67-35.639-14.012c-8.364-9.341-12.547-22.615-12.547-39.821c0-10.771,2.013-20.207,6.041-28.311
			c4.027-8.102,9.841-14.345,17.443-18.73c7.602-4.385,16.551-6.577,26.846-6.577c10.961,0,20.541,2.002,28.739,6.005l-5.147,10.438
			C1060.344,333.75,1052.432,331.891,1044.521,331.891z"/>
		<path d="M1182.857,374.643c0,16.729-4.23,29.884-12.69,39.464c-8.46,9.579-20.221,14.369-35.28,14.369
			c-15.396,0-27.274-4.706-35.639-14.119c-8.364-9.412-12.547-22.699-12.547-39.856c0-17.016,4.193-30.205,12.582-39.57
			c8.389-9.366,20.304-14.049,35.746-14.049c15.013,0,26.737,4.767,35.174,14.299
			C1178.639,344.713,1182.857,357.867,1182.857,374.643z M1099.569,374.643c0,14.155,3.014,24.892,9.044,32.207
			c6.028,7.316,14.786,10.974,26.273,10.974c11.581,0,20.326-3.646,26.237-10.938c5.909-7.293,8.864-18.04,8.864-32.243
			c0-14.059-2.943-24.724-8.829-31.992c-5.887-7.268-14.597-10.902-26.13-10.902c-11.582,0-20.388,3.658-26.416,10.974
			C1102.583,350.038,1099.569,360.679,1099.569,374.643z"/>
		<path d="M1284.16,416.036h12.296v38.248h-11.51v-27.238h-78.783V322.525h12.153v93.511h53.689v-93.511h12.154V416.036z"/>
		<path d="M1314.187,322.525h11.367v58.123c0,10.724-0.334,20.423-1.001,29.097h0.572l58.623-87.22h13.297v104.521h-11.438v-57.551
			c0-9.58,0.404-19.636,1.216-30.169h-0.644l-58.694,87.72h-13.298V322.525z"/>
		<path d="M1491.342,427.046l-13.012-33.243h-41.894l-12.868,33.243h-12.297l41.322-104.949h10.223l41.107,104.949H1491.342z
			 M1474.541,382.864l-12.153-32.386c-1.572-4.099-3.193-9.126-4.861-15.085c-1.049,4.576-2.55,9.604-4.504,15.085l-12.297,32.386
			H1474.541z"/>
		<path d="M1592.645,427.046h-12.153V333.32h-33.959l-2.216,17.158c-2.907,22.83-5.469,39.523-7.686,50.08
			c-2.216,10.557-5.136,17.908-8.758,22.055s-8.436,6.172-14.44,6.077c-3.528,0-6.697-0.597-9.509-1.787V416.68
			c2.573,1.24,5.266,1.858,8.078,1.858c2.526,0,4.73-1.036,6.613-3.109c1.882-2.073,3.55-5.672,5.005-10.795
			c1.453-5.123,3.288-14.846,5.505-29.169c2.216-14.321,4.657-31.968,7.327-52.939h56.192V427.046z"/>
		<path d="M1693.52,396.591c0,9.676-3.229,17.17-9.688,22.483c-6.459,5.315-15.669,7.972-27.631,7.972h-34.816V322.525h12.153v44.61
			h20.804c12.726,0,22.437,2.515,29.133,7.543C1690.17,379.707,1693.52,387.011,1693.52,396.591z M1633.538,416.537h21.376
			c17.348,0,26.022-6.649,26.022-19.946c0-6.435-2.229-11.164-6.685-14.191c-4.457-3.026-11.594-4.54-21.411-4.54h-19.303V416.537z"
			/>
		<path d="M1794.895,427.046h-12.154v-49.187h-55.048v49.187h-12.153V322.525h12.153v44.468h55.048v-44.468h12.154V427.046z"/>
		<path d="M1914.285,374.643c0,16.729-4.23,29.884-12.69,39.464c-8.46,9.579-20.221,14.369-35.28,14.369
			c-15.396,0-27.274-4.706-35.639-14.119c-8.364-9.412-12.547-22.699-12.547-39.856c0-17.016,4.193-30.205,12.582-39.57
			c8.389-9.366,20.304-14.049,35.746-14.049c15.013,0,26.737,4.767,35.174,14.299
			C1910.066,344.713,1914.285,357.867,1914.285,374.643z M1830.997,374.643c0,14.155,3.014,24.892,9.044,32.207
			c6.028,7.316,14.786,10.974,26.273,10.974c11.581,0,20.326-3.646,26.237-10.938c5.909-7.293,8.864-18.04,8.864-32.243
			c0-14.059-2.943-24.724-8.829-31.992c-5.887-7.268-14.597-10.902-26.13-10.902c-11.582,0-20.388,3.658-26.416,10.974
			C1834.011,350.038,1830.997,360.679,1830.997,374.643z"/>
		<path d="M1937.733,322.525h11.367v58.123c0,10.724-0.334,20.423-1.001,29.097h0.572l58.623-87.22h13.297v104.521h-11.438v-57.551
			c0-9.58,0.404-19.636,1.216-30.169h-0.644l-58.694,87.72h-13.298V322.525z M1981.058,314.161c-8.818,0-15.253-1.703-19.303-5.111
			c-4.052-3.407-6.316-9.02-6.792-16.836h11.152c0.43,4.958,1.728,8.413,3.896,10.366c2.168,1.955,5.945,2.932,11.331,2.932
			c4.909,0,8.544-1.048,10.903-3.146c2.358-2.097,3.8-5.48,4.325-10.152h11.224c-0.572,7.531-2.979,13.072-7.221,16.622
			C1996.332,312.386,1989.826,314.161,1981.058,314.161z"/>
		<path d="M2147.847,346.976c0,6.863-2.181,12.439-6.541,16.729c-4.361,4.29-10.379,7.007-18.052,8.15v0.572
			c8.722,1.191,15.335,3.932,19.839,8.222c4.504,4.289,6.756,9.89,6.756,16.8c0,9.771-3.646,17.385-10.938,22.842
			c-7.292,5.458-17.587,8.186-30.884,8.186c-12.153,0-22.115-1.882-29.884-5.647v-11.296c4.576,2.192,9.52,3.885,14.835,5.076
			c5.313,1.191,10.425,1.787,15.335,1.787c9.437,0,16.573-1.787,21.411-5.362c4.837-3.574,7.257-8.722,7.257-15.441
			c0-6.387-2.681-11.225-8.043-14.513c-5.362-3.289-13.357-4.934-23.985-4.934h-15.585v-10.223h14.941
			c9.77,0,17.337-1.752,22.698-5.255c5.362-3.503,8.043-8.4,8.043-14.691c0-5.1-1.93-9.175-5.791-12.226
			c-3.86-3.049-9.056-4.575-15.585-4.575c-5.243,0-9.985,0.597-14.227,1.787c-4.242,1.192-9.15,3.552-14.728,7.078l-6.005-8.15
			c4.813-3.574,10.211-6.278,16.192-8.114c5.981-1.834,12.189-2.752,18.624-2.752c10.724,0,19.124,2.348,25.2,7.042
			C2144.809,332.761,2147.847,339.064,2147.847,346.976z"/>
		<path d="M2237.997,427.046l-13.012-33.243h-41.894l-12.868,33.243h-12.297l41.322-104.949h10.223l41.107,104.949H2237.997z
			 M2221.196,382.864l-12.153-32.386c-1.572-4.099-3.193-9.126-4.861-15.085c-1.049,4.576-2.55,9.604-4.504,15.085l-12.297,32.386
			H2221.196z"/>
		<path d="M2264.95,427.046V322.525h12.153v93.511h41.68v-93.511h12.296v93.511h41.751v-93.511h12.153v93.511h12.297v38.248h-11.581
			v-27.238H2264.95z"/>
		<path d="M2416.368,322.525h11.367v58.123c0,10.724-0.334,20.423-1.001,29.097h0.572l58.623-87.22h13.297v104.521h-11.438v-57.551
			c0-9.58,0.404-19.636,1.216-30.169h-0.644l-58.694,87.72h-13.298V322.525z"/>
		<path d="M2559.995,427.046h-12.153V333.32h-33.101v-10.795h78.354v10.795h-33.101V427.046z"/>
		<path d="M2608.823,427.046V322.525h12.153v44.61h17.086c12.439,0,21.924,2.443,28.454,7.328
			c6.529,4.886,9.794,12.261,9.794,22.127c0,9.818-3.086,17.349-9.258,22.591c-6.173,5.244-15.192,7.864-27.06,7.864H2608.823z
			 M2620.977,416.68h17.658c8.626,0,14.965-1.68,19.017-5.04c4.051-3.36,6.077-8.376,6.077-15.049c0-6.529-2.134-11.26-6.398-14.191
			c-4.267-2.931-11.165-4.396-20.697-4.396h-15.656V416.68z M2704.979,427.046h-12.153V322.525h12.153V427.046z"/>
		<path d="M1510.216,602.743h-12.154v-49.187h-55.048v49.187h-12.153V498.223h12.153v44.468h55.048v-44.468h12.154V602.743z"/>
		<path d="M1604.584,602.743l-13.012-33.243h-41.894l-12.868,33.243h-12.297l41.322-104.949h10.223l41.107,104.949H1604.584z
			 M1587.783,558.562l-12.153-32.386c-1.572-4.099-3.193-9.126-4.861-15.085c-1.049,4.576-2.55,9.604-4.504,15.085l-12.297,32.386
			H1587.783z"/>
		<path d="M1676.289,507.588c-11.486,0-20.554,3.825-27.202,11.475s-9.973,18.123-9.973,31.421c0,13.679,3.204,24.247,9.615,31.706
			c6.409,7.46,15.55,11.188,27.417,11.188c7.292,0,15.608-1.311,24.95-3.933v10.652c-7.245,2.717-16.182,4.075-26.809,4.075
			c-15.396,0-27.274-4.67-35.639-14.012c-8.364-9.341-12.547-22.615-12.547-39.821c0-10.771,2.013-20.207,6.041-28.311
			c4.027-8.102,9.841-14.345,17.443-18.73c7.602-4.385,16.551-6.577,26.846-6.577c10.961,0,20.541,2.002,28.739,6.005l-5.147,10.438
			C1692.112,509.447,1684.2,507.588,1676.289,507.588z"/>
		<path d="M1782.168,602.743h-58.265V498.223h58.265v10.795h-46.111v33.673h43.323v10.724h-43.323v38.463h46.111V602.743z"/>
		<path d="M1879.683,602.743h-12.153v-93.726h-33.959l-2.216,17.158c-2.907,22.83-5.469,39.523-7.686,50.08
			c-2.216,10.557-5.136,17.908-8.758,22.055s-8.436,6.172-14.44,6.077c-3.528,0-6.697-0.597-9.509-1.787v-10.224
			c2.573,1.24,5.266,1.858,8.078,1.858c2.526,0,4.73-1.036,6.613-3.109c1.882-2.073,3.55-5.672,5.005-10.795
			c1.453-5.123,3.288-14.846,5.505-29.169c2.216-14.321,4.657-31.968,7.327-52.939h56.192V602.743z"/>
		<path d="M1966.688,602.743h-58.265V498.223h58.265v10.795h-46.111v33.673h43.323v10.724h-43.323v38.463h46.111V602.743z"/>
		<path d="M2069.207,602.743h-12.154v-49.187h-55.048v49.187h-12.153V498.223h12.153v44.468h55.048v-44.468h12.154V602.743z"/>
		<path d="M2098.018,498.223h11.367v58.123c0,10.724-0.334,20.423-1.001,29.097h0.572l58.623-87.22h13.297v104.521h-11.438v-57.551
			c0-9.58,0.404-19.636,1.216-30.169h-0.644l-58.694,87.72h-13.298V498.223z"/>
		<path d="M2240.5,559.134l-27.382,43.609h-14.369l29.311-45.683c-7.674-2.431-13.25-6.113-16.729-11.046
			c-3.479-4.933-5.219-11.164-5.219-18.695c0-9.341,3.229-16.525,9.687-21.554s16.24-7.543,29.348-7.543h28.739v104.521h-12.153
			v-43.609H2240.5z M2261.732,508.732h-16.229c-8.722,0-15.347,1.501-19.875,4.504c-4.528,3.002-6.791,7.889-6.791,14.655
			c0,13.869,9.031,20.804,27.095,20.804h15.8V508.732z"/>
		<path d="M1308.538,673.92v10.938h-46.111v93.582h-12.153V673.92H1308.538z"/>
		<path d="M1417.135,726.037c0,16.729-4.23,29.884-12.69,39.464c-8.46,9.579-20.221,14.369-35.28,14.369
			c-15.396,0-27.274-4.706-35.639-14.119c-8.364-9.412-12.547-22.699-12.547-39.856c0-17.016,4.193-30.205,12.582-39.57
			c8.389-9.366,20.304-14.049,35.746-14.049c15.013,0,26.737,4.767,35.174,14.299
			C1412.916,696.107,1417.135,709.262,1417.135,726.037z M1333.847,726.037c0,14.155,3.014,24.892,9.044,32.207
			c6.028,7.316,14.786,10.974,26.273,10.974c11.581,0,20.326-3.646,26.237-10.938c5.909-7.293,8.864-18.04,8.864-32.243
			c0-14.059-2.943-24.724-8.829-31.992c-5.887-7.268-14.597-10.902-26.13-10.902c-11.582,0-20.388,3.658-26.416,10.974
			C1336.86,701.433,1333.847,712.073,1333.847,726.037z"/>
		<path d="M1506.713,704.375c0,10.581-3.61,18.72-10.831,24.415s-17.552,8.543-30.992,8.543h-12.296v41.107h-12.153V673.92h27.095
			C1493.653,673.92,1506.713,684.072,1506.713,704.375z M1452.594,726.896h10.938c10.771,0,18.562-1.739,23.377-5.219
			c4.813-3.479,7.221-9.056,7.221-16.729c0-6.91-2.264-12.058-6.791-15.442c-4.529-3.383-11.582-5.075-21.162-5.075h-13.583V726.896
			z"/>
		<path d="M1619.312,726.037c0,16.729-4.23,29.884-12.69,39.464c-8.46,9.579-20.221,14.369-35.28,14.369
			c-15.396,0-27.274-4.706-35.639-14.119c-8.364-9.412-12.547-22.699-12.547-39.856c0-17.016,4.193-30.205,12.582-39.57
			c8.389-9.366,20.304-14.049,35.746-14.049c15.013,0,26.737,4.767,35.174,14.299
			C1615.093,696.107,1619.312,709.262,1619.312,726.037z M1536.023,726.037c0,14.155,3.014,24.892,9.044,32.207
			c6.028,7.316,14.786,10.974,26.273,10.974c11.581,0,20.326-3.646,26.237-10.938c5.909-7.293,8.864-18.04,8.864-32.243
			c0-14.059-2.943-24.724-8.829-31.992c-5.887-7.268-14.597-10.902-26.13-10.902c-11.582,0-20.388,3.658-26.416,10.974
			C1539.037,701.433,1536.023,712.073,1536.023,726.037z"/>
		<path d="M1725.047,805.679h-11.581V778.44h-72.636v27.238h-11.581v-38.248h8.078c7.339-12.344,13.619-27.356,18.838-45.039
			c5.22-17.683,8.114-33.839,8.687-48.472h46.97v93.511h13.226V805.679z M1699.668,767.431v-82.572h-23.807
			c-0.858,11.534-3.742,25.392-8.65,41.572c-4.909,16.182-10.629,29.848-17.158,41H1699.668z"/>
		<path d="M1808.335,778.44l-13.012-33.243h-41.894l-12.868,33.243h-12.297l41.322-104.949h10.223l41.107,104.949H1808.335z
			 M1791.534,734.259l-12.153-32.386c-1.572-4.099-3.193-9.126-4.861-15.085c-1.049,4.576-2.55,9.604-4.504,15.085l-12.297,32.386
			H1791.534z"/>
		<path d="M1919.575,778.44l-35.46-92.652h-0.572c0.667,7.34,1.001,16.062,1.001,26.165v66.487h-11.224V673.92h18.302l33.101,86.219
			h0.571l33.387-86.219h18.159V778.44h-12.154v-67.345c0-7.722,0.333-16.109,1.001-25.165h-0.571l-35.746,92.51H1919.575z"/>
		<path d="M2096.23,726.037c0,16.729-4.23,29.884-12.69,39.464c-8.46,9.579-20.221,14.369-35.28,14.369
			c-15.396,0-27.274-4.706-35.639-14.119c-8.364-9.412-12.547-22.699-12.547-39.856c0-17.016,4.193-30.205,12.582-39.57
			c8.389-9.366,20.304-14.049,35.746-14.049c15.013,0,26.737,4.767,35.174,14.299C2092.012,696.107,2096.23,709.262,2096.23,726.037
			z M2012.942,726.037c0,14.155,3.014,24.892,9.044,32.207c6.028,7.316,14.786,10.974,26.273,10.974
			c11.581,0,20.326-3.646,26.237-10.938c5.909-7.293,8.864-18.04,8.864-32.243c0-14.059-2.943-24.724-8.829-31.992
			c-5.887-7.268-14.597-10.902-26.13-10.902c-11.582,0-20.388,3.658-26.416,10.974
			C2015.956,701.433,2012.942,712.073,2012.942,726.037z"/>
		<path d="M2164.29,683.285c-11.486,0-20.554,3.825-27.202,11.475s-9.973,18.123-9.973,31.421c0,13.679,3.204,24.247,9.615,31.706
			c6.409,7.46,15.55,11.188,27.417,11.188c7.292,0,15.608-1.311,24.95-3.933v10.652c-7.245,2.717-16.182,4.075-26.809,4.075
			c-15.396,0-27.274-4.67-35.639-14.012c-8.364-9.341-12.547-22.615-12.547-39.821c0-10.771,2.013-20.207,6.041-28.311
			c4.027-8.102,9.841-14.345,17.443-18.73c7.602-4.385,16.551-6.577,26.846-6.577c10.961,0,20.541,2.002,28.739,6.005l-5.147,10.438
			C2180.113,685.145,2172.201,683.285,2164.29,683.285z"/>
		<path d="M2287.112,778.44h-14.728l-48.328-52.975v52.975h-12.153V673.92h12.153v50.616l47.112-50.616h13.941l-46.255,50.759
			L2287.112,778.44z"/>
		<path d="M2301.482,673.92h29.525c13.869,0,23.901,2.073,30.098,6.22c6.195,4.146,9.294,10.7,9.294,19.66
			c0,6.196-1.728,11.308-5.183,15.335c-3.456,4.028-8.496,6.638-15.121,7.828v0.715c15.871,2.717,23.807,11.058,23.807,25.022
			c0,9.342-3.157,16.634-9.472,21.876c-6.316,5.244-15.146,7.864-26.488,7.864h-36.46V673.92z M2313.636,718.674h20.018
			c8.579,0,14.751-1.347,18.516-4.039s5.648-7.232,5.648-13.619c0-5.862-2.098-10.092-6.291-12.69
			c-4.195-2.597-10.867-3.896-20.018-3.896h-17.873V718.674z M2313.636,728.969v39.105h21.805c8.436,0,14.786-1.632,19.053-4.897
			c4.265-3.264,6.398-8.375,6.398-15.335c0-6.48-2.181-11.247-6.542-14.298c-4.36-3.05-10.998-4.575-19.91-4.575H2313.636z"/>
		<path d="M2396.352,778.44V673.92h12.153v44.61h17.086c12.439,0,21.924,2.443,28.454,7.328c6.529,4.886,9.794,12.261,9.794,22.127
			c0,9.818-3.086,17.349-9.258,22.591c-6.173,5.244-15.192,7.864-27.06,7.864H2396.352z M2408.505,768.074h17.658
			c8.626,0,14.965-1.68,19.017-5.04c4.051-3.36,6.077-8.376,6.077-15.049c0-6.529-2.134-11.26-6.398-14.191
			c-4.267-2.931-11.165-4.396-20.697-4.396h-15.656V768.074z M2492.507,778.44h-12.153V673.92h12.153V778.44z"/>
	</g>
</g>
<g>
</g>
<g>
</g>
<g>
</g>
<g>
</g>
<g>
</g>
<g>
</g>
</svg>
