<?xml version="1.0" encoding="utf-8"?>
<!-- Generator: Adobe Illustrator 16.0.0, SVG Export Plug-In . SVG Version: 6.00 Build 0)  -->
<!DOCTYPE svg PUBLIC "-//W3C//DTD SVG 1.1//EN" "http://www.w3.org/Graphics/SVG/1.1/DTD/svg11.dtd">
<svg version="1.1" id="Background_copy__x2B__Levels_1_xA0_Image_1_"
	 xmlns="http://www.w3.org/2000/svg" xmlns:xlink="http://www.w3.org/1999/xlink" x="0px" y="0px" width="3193.616px"
	 height="1076px" viewBox="0 0 3193.616 1076" enable-background="new 0 0 3193.616 1076" xml:space="preserve">
<path fill-rule="evenodd" clip-rule="evenodd" fill="#0096DB" d="M1025.476,681.237c0,64.624,0.034,119.496-0.039,174.368
	c-0.01,7.49-0.391,14.992-0.931,22.464c-0.243,3.366-1.282,6.678-1.996,10.007c-0.256,1.199-0.781,2.361-0.9,3.567
	c-0.771,7.847-3.553,15.17-6.454,22.337c-2.694,6.656-6.11,13.103-9.9,19.213c-4.009,6.464-8.48,12.722-13.387,18.531
	c-7.16,8.479-15.793,15.43-25.082,21.508c-3.987,2.609-8.007,5.21-12.208,7.445c-5.524,2.941-11.092,5.908-16.915,8.15
	c-6.99,2.693-14.175,5.026-21.449,6.797c-7.93,1.93-16.022,3.322-24.118,4.389c-4.414,0.583-8.982-0.039-13.48-0.04
	c-44.499-0.011-88.998-0.091-133.496,0.077c-8.169,0.03-16.443,0.449-24.475,1.822c-11.401,1.948-22.721,4.563-33.436,9.235
	c-4.99,2.176-10.254,3.749-15.166,6.075c-7.13,3.378-14.206,6.929-21.026,10.888c-7.653,4.442-15.07,9.31-22.438,14.221
	c-3.161,2.107-5.947,4.78-8.884,7.22c-1.679,1.395-3.235,2.949-4.992,4.232c-3.82,2.791-6.381,2.479-9.766-0.774
	c-4.718-4.537-9.325-9.216-14.331-13.415c-3.949-3.313-8.406-6.027-12.677-8.95c-10.543-7.217-22.074-12.532-34.068-16.695
	c-10.15-3.523-20.499-6.434-31.115-8.489c-14.244-2.758-28.583-4.146-43.016-5.326c-8.52-0.696-17.193-0.281-25.594-2.465
	c-1.418-0.369-2.985-0.227-4.482-0.225c-7.635,0.008-15.271,0.069-22.906,0.072c-26.754,0.011-53.512-0.251-80.26,0.139
	c-9.866,0.144-19.613-0.453-29.397-1.31c-11.305-0.99-21.836-4.846-32.258-8.86c-8.403-3.238-16.149-7.865-23.358-13.367
	c-8.074-6.161-15.161-13.263-21.583-21.113c-9.067-11.081-16.035-23.415-21.481-36.551c-2.964-7.15-4.852-14.752-7.156-22.172
	c-0.849-2.732-1.587-5.507-2.218-8.299c-0.93-4.116-1.896-8.238-2.535-12.405c-2.12-13.832-1.395-27.781-1.402-41.688
	c-0.048-102.375-0.05-204.75,0.023-307.124c0.005-7.652-0.555-15.245-0.934-22.867c-0.473-9.529,0.072-19.104-0.047-28.655
	c-0.056-4.48-0.417-8.984-1.038-13.422c-0.82-5.863-0.803-11.67-0.202-17.542c0.555-5.417,1.068-10.869,1.088-16.307
	c0.113-30.029,0.105-60.059,0.057-90.088c-0.014-9.266-0.284-18.53-0.436-27.795c-0.011-0.682-0.047-1.366-0.017-2.046
	c0.238-5.312,1.938-6.672,7.175-6.22c2.55,0.221,5.142-0.018,7.714-0.097c1.77-0.055,3.543-0.131,5.305-0.307
	c3.508-0.352,7.003-0.828,10.513-1.158c2.436-0.229,4.885-0.34,7.331-0.432c5.854-0.22,11.709-0.397,17.565-0.591
	c2.318-0.077,4.637-0.216,6.955-0.218c15.424-0.013,30.857-0.315,46.27,0.11c12.249,0.339,24.512,0.527,36.738,2.03
	c11.632,1.429,23.386,1.876,35.085,2.758c1.904,0.144,3.822,0.2,5.708,0.472c14.175,2.042,28.396,3.829,42.498,6.302
	c9.917,1.74,19.672,4.408,29.488,6.713c3.054,0.717,6.038,1.751,9.108,2.379c12.202,2.497,23.786,6.942,35.453,11.122
	c5.644,2.022,11.301,4.052,16.791,6.447c7.115,3.103,14.085,6.539,21.085,9.899c3.317,1.593,6.68,3.145,9.812,5.06
	c7.901,4.833,15.97,9.469,23.441,14.909c10.353,7.538,20.539,15.381,28.569,25.575c3.201,4.063,6.521,8.034,9.7,12.114
	c2.972,3.813,6.616,4.111,9.37,0.021c4.843-7.193,10.748-13.425,16.874-19.428c5.048-4.946,10.453-9.578,16.041-13.907
	c6.351-4.92,12.956-9.541,19.688-13.929c4.897-3.192,10.117-5.912,15.305-8.629c6.381-3.34,12.869-6.478,19.333-9.659
	c1.218-0.6,2.527-1.018,3.811-1.476c1.284-0.458,2.736-0.624,3.859-1.327c4.471-2.798,9.53-3.982,14.431-5.647
	c7.742-2.631,15.365-5.624,23.148-8.123c4.793-1.539,9.8-2.405,14.692-3.642c18.256-4.617,36.613-8.628,55.304-11.192
	c17.032-2.337,34.006-4.933,51.227-5.587c6.788-0.258,13.544-1.387,20.313-2.118c0.95-0.103,1.897-0.247,2.851-0.288
	c26.049-1.122,52.112-1.046,78.175-0.838c7.499,0.06,14.994,0.366,22.491,0.564c0.682,0.018,1.41-0.078,2.036,0.128
	c4.871,1.605,9.921,1.611,14.959,1.803c3.673,0.14,7.338,0.5,11.01,0.584c4.758,0.109,6.066,1.195,6.244,6.031
	c0.177,4.773,0.201,9.553,0.196,14.33c-0.038,36.854-0.117,73.708-0.129,110.563c-0.001,4.088,0.554,8.181,0.475,12.264
	c-0.116,5.991-0.564,11.974-0.886,17.96c-0.175,3.267-0.532,6.532-0.543,9.799c-0.034,10.373,0.339,20.753,0.05,31.117
	C1024.467,565.158,1026.242,628.078,1025.476,681.237z M853.525,628.981c0.179-7.754,0.601-15.815-1.378-23.742
	c-0.261-1.043-0.127-2.178-0.267-3.259c-1.037-7.974-1.829-15.992-3.236-23.901c-1.07-6.017-2.762-11.942-4.484-17.818
	c-2.144-7.317-4.324-14.646-7.011-21.773c-2.399-6.365-5.369-12.532-8.353-18.656c-2.204-4.523-4.907-8.8-7.263-13.253
	c-5.123-9.683-11.302-18.73-18.167-27.163c-9.805-12.044-19.92-23.908-32.017-33.824c-5.688-4.663-11.341-9.397-17.308-13.683
	c-6.075-4.363-12.461-8.305-18.817-12.259c-4.741-2.95-9.63-5.666-14.495-8.41c-3.551-2.003-7.172-3.883-10.762-5.816
	c-3.6-1.938-6.469-1.586-8.197,1.483c-3.83,6.802-7.497,13.526-4.562,21.999c1.822,5.263-1.82,10.253-7.36,11.087
	c-2.366,0.357-4.947,0.237-7.278-0.313c-5.838-1.379-11.664-2.897-17.356-4.777c-9.765-3.226-20.005-4.088-30.005-5.918
	c-14.116-2.583-28.579-0.93-42.896-0.915c-1.219,0.002-2.447,0.23-3.653,0.45c-6.304,1.152-12.609,2.301-18.899,3.524
	c-3.342,0.65-6.756,1.147-9.962,2.234c-11.871,4.023-23.934,7.608-34.802,14.119c-8.527,5.108-17.386,9.738-25.521,15.408
	c-15.164,10.569-28.501,23.275-40.539,37.301c-3.901,4.545-7.607,9.272-11.172,14.087c-2.996,4.046-5.837,8.231-8.426,12.546
	c-4.774,7.961-8.852,16.265-12.383,24.882c-4.674,11.405-8.741,22.911-10.182,35.237c-0.458,3.919-1.389,7.784-2.108,11.673
	c-0.372,2.011-1.003,4.008-1.093,6.031c-0.706,15.933-1.78,31.888,2.291,47.602c0.509,1.966,0.665,4.041,0.82,6.078
	c0.984,12.913,4.606,25.23,8.918,37.306c3.707,10.38,8.253,20.413,13.576,30.148c6.727,12.304,14.887,23.531,24.127,33.906
	c12.956,14.545,28.077,26.645,44.786,36.702c3.614,2.174,7.312,4.209,11.005,6.249c4.685,2.588,5.703,6.47,2.794,10.906
	c-1.613,2.46-3.754,4.236-6.452,5.481c-1.702,0.785-3.724,1.663-4.688,3.109c-2.712,4.066-5.199,8.331-7.292,12.747
	c-1.449,3.056-0.175,5.656,2.926,7.052c3.975,1.789,7.99,3.523,12.093,4.982c7.32,2.602,14.834,4.69,22.047,7.548
	c5.14,2.036,10.396,3.234,15.764,4.227c1.34,0.248,2.669,0.567,3.989,0.91c11.126,2.883,22.386,4.819,33.913,5.03
	c4.511,0.082,6.354,1.898,6.856,6.436c0.09,0.812,0.118,1.635,0.117,2.453c-0.008,6.118-0.741,12.293,1.804,18.179
	c0.667,1.541-0.092,2.741-1.739,3.03c-2.006,0.352-4.047,0.654-6.078,0.688c-5.457,0.091-10.95-0.352-16.364,0.141
	c-4.422,0.402-8.796,1.679-13.103,2.884c-2.899,0.812-4.294,3.003-4.451,6.15c-0.228,4.562-1.416,5.701-5.981,5.881
	c-3.404,0.135-6.825,0.047-10.231-0.099c-11.854-0.507-22.14,3.237-31.288,10.78c-8.524,7.027-12.721,16.574-16.025,26.589
	c-1.616,4.896,0.969,7.918,6.11,8.247c1.765,0.112,3.546,0.008,5.319-0.038c3.681-0.096,7.362-0.315,11.044-0.316
	c60.868-0.013,121.734-0.011,182.601,0.023c6.817,0.004,13.636,0.172,20.451,0.357c6.12,0.167,8.487-2.728,6.979-8.758
	c-0.396-1.588-0.696-3.25-1.404-4.7c-2.203-4.519-4.055-9.347-7.035-13.31c-3.076-4.091-7.246-7.384-11.082-10.866
	c-1.386-1.258-3.131-2.169-4.812-3.042c-7.565-3.93-15.565-5.591-24.126-4.914c-3.784,0.299-7.65,0.096-11.435-0.306
	c-3.578-0.38-4.301-1.618-3.989-5.213c0.353-4.08-0.354-5.352-4.088-6.958c-3.937-1.694-8.077-2.484-12.358-2.501
	c-5.05-0.021-10.1,0.036-15.147-0.03c-2.04-0.027-4.102-0.142-6.107-0.484c-2.547-0.436-2.63-1.071-2.183-3.702
	c0.725-4.274,1.211-8.594,1.652-12.909c0.194-1.891-0.082-3.824,0.051-5.726c0.338-4.843,2.347-6.873,7.093-7.347
	c0.679-0.067,1.362-0.096,2.044-0.108c10.291-0.193,20.43-1.895,30.332-4.365c6.951-1.735,14.263-2.583,20.704-6.182
	c1.054-0.589,2.316-0.798,3.474-1.209c4.366-1.552,8.791-2.963,13.075-4.716c4.152-1.7,8.185-3.703,12.224-5.668
	c5.141-2.503,10.314-4.956,15.325-7.702c4.298-2.355,8.549-4.863,12.53-7.71c7.201-5.15,14.331-10.423,21.223-15.977
	c7.854-6.329,15.672-12.77,22.223-20.501c6.695-7.904,13.402-15.822,19.617-24.1c4.652-6.195,8.71-12.862,12.699-19.519
	c3.073-5.129,5.795-10.491,8.374-15.892c3.168-6.633,6.333-13.299,8.932-20.166c2.742-7.25,4.79-14.761,7.188-22.143
	c3.303-10.172,5.392-20.562,5.828-31.268c0.055-1.36,0.104-2.762,0.462-4.06C853.81,646.471,853.725,637.877,853.525,628.981z
	 M349.271,797.615c2.961,1.873,3.78,4.013,4.425,6.202c1.566,5.318,3.353,10.475,5.765,15.552
	c7.483,15.752,16.713,30.303,27.894,43.641c4.289,5.116,8.825,10.026,13.08,15.17c6.207,7.503,13.478,13.916,20.862,20.148
	c8.008,6.759,16.381,13.101,24.775,19.383c6.21,4.647,12.663,8.978,19.102,13.311c3.269,2.198,6.717,1.983,9.997-0.178
	c7.165-4.723,7.658-11.427,0.747-16.534c-9.419-6.961-19.075-13.613-28.8-20.143c-12.212-8.198-24.824-15.819-36.823-24.312
	c-6.858-4.854-13.161-10.623-19.142-16.558c-8.047-7.986-14.692-17.147-20.581-26.884c-2.271-3.754-2.339-6.936-0.327-10.687
	c3.216-5.995,6.223-12.108,9.159-18.247c3.343-6.988,4.794-14.447,4.992-22.164c0.056-2.182-0.103-4.384,0.135-6.543
	c1.496-13.567-3.613-25.521-9.556-37.057c-5.741-11.144-14.468-20.093-23.476-28.691c-4.076-3.891-6.75-3.78-9.396,1.07
	c-3.647,6.684-6.874,13.606-10.063,20.527c-1.707,3.703-3.326,7.521-4.334,11.455c-1.825,7.12-3.092,14.38-4.724,21.552
	c-1.763,7.748-1.087,15.322,0.348,23.098c2.499,13.542,9.349,24.282,19.458,33.194c1.702,1.501,3.796,2.637,5.863,3.616
	c1.54,0.729,3.255,0.52,4.43-1.017c1.199-1.567,0.137-2.738-0.715-4.017C349.52,808.239,349.031,803.481,349.271,797.615z
	 M320.134,844.74c1.475-0.808,2.403-1.645,3.449-1.836c7.235-1.325,14.493-2.519,21.746-3.746c1.611-0.272,3.288-0.321,4.829-0.808
	c3.151-0.995,3.56-3.321,0.949-5.413c-1.033-0.828-2.327-1.52-3.608-1.817c-5.181-1.206-10.372-2.422-15.616-3.295
	c-15.59-2.598-30.707,0.394-45.718,4.232c-1.301,0.333-2.499,1.07-3.746,1.617c-1.993,0.873-3.982,1.756-5.983,2.61
	c-2.004,0.856-4.113,1.514-6.014,2.555c-5.619,3.076-11.276,6.109-16.693,9.519c-5.304,3.338-10.408,7.013-15.45,10.741
	c-2.869,2.121-2.989,5.236-0.334,7.732c1.556,1.464,3.525,2.545,5.434,3.564c5.402,2.888,10.941,5.469,16.552,7.96
	c8.095,3.594,16.542,5.601,25.144,6.722c6.856,0.895,13.887,0.609,20.837,0.553c2.831-0.022,5.734-0.548,8.467-1.325
	c6.275-1.784,12.816-2.822,18.527-6.322c1.141-0.699,2.567-0.918,3.812-1.471c1.739-0.772,3.542-1.481,5.124-2.516
	c4.676-3.062,9.292-6.218,13.861-9.438c2.563-1.806,5-3.791,7.465-5.733c1.717-1.354,2.716-3.078,2.296-5.346
	c-0.435-2.346-2.245-3.283-4.264-3.937c-0.645-0.209-1.323-0.359-1.997-0.431c-3.798-0.398-7.591-0.923-11.401-1.108
	c-6.815-0.331-13.642-0.403-20.459-0.686C325.086,847.226,322.683,847.34,320.134,844.74z M432.669,797.652
	c0-3.002,0.113-6.008-0.026-9.003c-0.232-5.005-2.689-6.62-7.297-4.878c-1.526,0.577-3.021,1.273-4.455,2.054
	c-6.218,3.381-11.241,8.188-15.634,13.633c-6.228,7.721-9.289,16.575-8.948,26.554c0.107,3.136-0.083,6.295,0.217,9.409
	c0.287,2.965,0.674,6.016,1.664,8.798c1.771,4.98,4.764,6.118,9.644,4.254c10.823-4.136,16.891-12.703,20.505-23.058
	C431.451,816.503,433.279,807.229,432.669,797.652z"/>
<path fill-rule="evenodd" clip-rule="evenodd" fill="#E63021" d="M261.368,245.306c-8.871,0-17.747-0.193-26.61,0.049
	c-11.312,0.308-22.613,0.968-33.919,1.477c-0.954,0.042-1.911,0.154-2.861,0.116c-2.95-0.119-4.219-1.062-4.898-3.955
	c-0.37-1.575-0.49-3.241-0.492-4.867c-0.019-15.967,0.007-31.934,0.034-47.901c0.002-1.089,0.035-2.19,0.193-3.265
	c0.597-4.032,2.326-5.708,6.425-6.135c2.577-0.268,5.168-0.474,7.757-0.542c17.584-0.464,35.178-1.422,52.753-1.169
	c17.983,0.259,35.955,1.645,53.921,2.705c4.892,0.289,9.759,1.116,14.62,1.816c8.501,1.224,16.99,2.539,25.484,3.821
	c0.674,0.102,1.35,0.213,2.011,0.375c12.575,3.09,25.138,6.228,37.724,9.274c11.535,2.791,22.667,6.807,33.75,10.967
	c7.122,2.673,14.282,5.278,21.25,8.314c5.477,2.386,10.685,5.386,16.014,8.11c4.358,2.228,8.752,4.389,13.071,6.691
	c9.256,4.935,18.236,10.319,26.686,16.564c6.46,4.775,13.171,9.228,19.438,14.239c5.848,4.675,11.389,9.76,16.832,14.911
	c10.605,10.037,20.835,20.464,30.037,31.813c4.97,6.129,9.57,12.579,14.038,19.089c4.926,7.177,9.729,14.458,14.165,21.942
	c3.045,5.139,5.372,10.703,8.019,16.078c0.06,0.122,0.09,0.258,0.143,0.383c0.685,1.619,1.117,3.573,3.363,3.62
	c2.368,0.049,3.059-1.911,3.913-3.63c1.634-3.287,3.168-6.634,4.988-9.815c4.596-8.032,9.062-16.158,14.072-23.928
	c5.829-9.04,12.137-17.765,19.348-25.806c5.461-6.089,10.503-12.566,16.138-18.483c9.695-10.182,20.367-19.327,31.445-27.974
	c6.547-5.11,13.221-10.062,19.934-14.954c2.853-2.079,5.909-3.891,8.947-5.699c4.442-2.645,8.911-5.252,13.443-7.738
	c5.843-3.206,11.686-6.427,17.665-9.361c5.493-2.696,11.164-5.03,16.767-7.503c0.871-0.385,1.834-0.571,2.685-0.992
	c9.562-4.739,19.83-7.549,29.788-11.206c8.095-2.974,16.469-4.756,24.583-7.516c4.107-1.398,8.478-2.034,12.744-2.951
	c2.399-0.516,4.878-0.72,7.234-1.377c17.555-4.89,35.616-6.861,53.621-8.852c12.312-1.361,24.771-1.451,37.172-1.961
	c11.441-0.472,22.89-0.873,34.338-1.05c5.029-0.078,10.067,0.499,15.104,0.737c2.859,0.135,5.725,0.175,8.586,0.282
	c5.996,0.225,11.998,0.366,17.986,0.733c4.748,0.291,6.483,2.122,6.919,6.915c0.161,1.762,0.118,3.544,0.126,5.318
	c0.063,14.329,0.124,28.657,0.164,42.986c0.005,1.908,0.015,3.832-0.202,5.722c-0.429,3.729-1.968,5.184-5.596,5.08
	c-8.313-0.239-16.625-0.603-24.937-0.941c-3.679-0.15-7.355-0.506-11.033-0.52c-13.511-0.048-27.021,0.024-40.532,0.022
	c-26.219-0.003-52.36,1.004-78.306,5.216c-8.88,1.441-17.867,2.212-26.758,3.595c-6.859,1.066-13.687,2.426-20.451,3.985
	c-9.563,2.204-19.132,4.452-28.555,7.175c-7.439,2.15-14.657,5.062-21.986,7.599c-1.543,0.534-3.171,0.823-4.713,1.361
	c-3.336,1.166-6.648,2.397-9.953,3.647c-1.146,0.433-2.204,1.112-3.364,1.488c-8.331,2.698-16.146,6.548-23.908,10.533
	c-5.567,2.858-11.226,5.545-16.756,8.472c-3.488,1.847-6.913,3.852-10.199,6.037c-8.056,5.356-16.099,10.739-23.977,16.351
	c-3.873,2.758-7.394,6.016-11.028,9.1c-9.687,8.218-18.652,17.137-26.908,26.82c-5.859,6.872-11.208,14.045-16.087,21.638
	c-2.134,3.32-4.511,6.416-6.021,10.134c-1.103,2.717-3.423,4.238-6.493,4.111c-2.917-0.121-4.687-1.875-5.894-4.392
	c-4.928-10.271-11.786-19.268-18.931-28.022c-7.942-9.73-16.781-18.652-26.122-27.04c-7.907-7.101-15.995-14-25.159-19.513
	c-3.258-1.96-6.274-4.322-9.528-6.291c-6.172-3.734-12.397-7.384-18.672-10.942c-5.318-3.017-10.673-5.983-16.134-8.728
	c-3.885-1.953-7.875-3.803-11.994-5.167c-7.889-2.612-15.047-7.145-23.3-8.756c-0.268-0.053-0.554-0.086-0.79-0.208
	c-6.718-3.488-14.16-4.842-21.278-7.134c-5.309-1.71-10.79-2.893-16.198-4.292c-2.771-0.717-5.542-1.445-8.333-2.075
	c-4.248-0.959-8.516-1.829-12.772-2.751c-4.263-0.924-8.487-2.089-12.79-2.754c-9.027-1.394-18.085-2.595-27.146-3.753
	c-11.229-1.435-22.473-2.758-33.714-4.099c-1.759-0.21-3.536-0.317-5.307-0.361c-18.274-0.458-36.549-0.894-54.824-1.335
	C261.374,245.11,261.371,245.208,261.368,245.306z"/>
<path fill-rule="evenodd" clip-rule="evenodd" fill="#D1D5D8" d="M215.152,70.13c12.408-0.205,24.838-0.971,37.219-0.478
	c16.87,0.671,33.75,0.746,50.618,2.585c12.475,1.36,24.821,3.665,37.331,4.633c0.949,0.074,1.899,0.24,2.826,0.461
	c12.583,2.998,25.195,5.879,37.729,9.07c8.319,2.118,16.567,4.551,24.764,7.108c4.28,1.335,8.31,3.466,12.578,4.851
	c8.323,2.702,16.326,6.062,24.046,10.192c8.996,4.812,18.219,9.204,27.158,14.117c6.199,3.408,12.241,7.158,18.067,11.17
	c7.734,5.326,15.468,10.719,22.705,16.687c13.249,10.924,26.282,22.053,37.393,35.363c6.105,7.315,12.291,14.561,18.207,22.04
	c5.928,7.495,11.333,15.326,16.179,23.555c2.629,4.465,5.577,8.769,7.879,13.396c2.841,5.712,6.815,10.859,8.604,17.097
	c0.15,0.523,0.266,1.1,0.569,1.53c2.562,3.618,4.026,7.698,5.205,11.922c0.6,2.144,2.117,3.394,4.263,4.007
	c4.001,1.144,6.525,0.123,8.495-3.555c0.129-0.241,0.305-0.477,0.354-0.735c1.069-5.589,4.001-10.411,6.498-15.381
	c3.171-6.311,6.53-12.536,10.048-18.661c3.32-5.782,7.256-11.224,10.357-17.111c3.276-6.217,7.747-11.524,11.894-17.069
	c4.321-5.777,8.953-11.34,13.707-16.771c9.435-10.777,18.944-21.482,30.312-30.36c6.764-5.282,13.17-11.021,19.94-16.294
	c4.941-3.848,10.071-7.498,15.373-10.83c8.416-5.288,16.966-10.377,25.615-15.274c4.853-2.747,9.998-4.983,15.05-7.371
	c5.774-2.729,11.59-5.372,17.389-8.051c1.113-0.515,2.197-1.117,3.351-1.521c10.678-3.741,21.201-8.066,32.1-10.996
	c11.827-3.179,23.436-7.45,35.748-8.695c0.541-0.054,1.101-0.126,1.604-0.315c6.968-2.619,14.215-3.551,21.601-4.189
	c6.365-0.55,12.63-2.159,18.979-3.004c5.259-0.7,10.574-0.988,15.867-1.422c4.075-0.334,8.151-0.659,12.233-0.907
	c5.167-0.314,10.338-0.629,15.513-0.794c8.312-0.265,16.63-0.592,24.943-0.559c12.818,0.052,25.635,0.387,38.453,0.602
	c0.136,0.002,0.272,0.006,0.409,0.011c7.974,0.287,9.146,1.785,8.154,9.761c-0.552,4.443-1.271,8.859-0.509,13.431
	c0.484,2.908-0.052,5.979-0.061,8.977c-0.01,3.252-0.219,6.537,0.151,9.751c0.829,7.181-1.128,8.904-8.246,7.32
	c-3.025-0.673-6.201-0.807-9.318-0.905c-10.081-0.317-20.173-0.829-30.25-0.663c-13.355,0.221-26.706,0.915-40.048,1.611
	c-4.065,0.212-8.086,1.181-12.145,1.656c-4.468,0.523-8.947,1.057-13.437,1.269c-10.546,0.499-20.817,2.623-31.103,4.778
	c-7.208,1.51-14.53,2.524-21.676,4.273c-9.259,2.267-18.43,4.917-27.568,7.641c-8.348,2.488-16.606,5.278-24.892,7.977
	c-1.552,0.505-3.055,1.175-4.556,1.827c-7.248,3.146-14.57,6.139-21.705,9.527c-5.647,2.682-11.082,5.82-16.57,8.829
	c-4.407,2.417-8.691,5.063-13.141,7.395c-8.12,4.255-15.469,9.664-22.91,14.944c-0.334,0.237-0.644,0.509-0.988,0.728
	c-12.379,7.827-23.342,17.4-33.793,27.579c-6.637,6.462-13.348,12.874-19.591,19.705c-6.889,7.537-13.592,15.291-19.793,23.396
	c-5.116,6.688-9.545,13.925-13.981,21.102c-5.008,8.101-9.829,16.327-14.451,24.653c-2.898,5.221-5.276,10.731-7.904,16.103
	c-0.418,0.853-0.812,1.757-1.414,2.47c-1.613,1.906-3.331,1.752-4.615-0.321c-0.214-0.346-0.365-0.732-0.526-1.107
	c-1.662-3.863-3.192-7.791-5.017-11.576c-1.586-3.291-3.507-6.419-5.272-9.625c-2.168-3.935-4.254-7.918-6.511-11.802
	c-2.588-4.454-5.165-8.928-8.037-13.197c-3.566-5.3-7.307-10.496-11.199-15.561c-4.731-6.157-9.569-12.241-14.604-18.15
	c-4.683-5.497-9.469-10.939-14.597-16.015c-6.774-6.705-13.684-13.316-20.976-19.442c-8.761-7.36-17.673-14.623-27.094-21.092
	c-9.972-6.849-19.995-13.723-31.047-18.89c-5.546-2.593-10.729-5.963-16.276-8.553c-7.033-3.285-14.485-5.715-21.371-9.261
	c-13.227-6.811-27.754-9.753-41.591-14.725c-2.803-1.008-5.844-1.337-8.75-2.079c-3.556-0.907-7.084-1.921-10.625-2.886
	c-0.921-0.251-1.834-0.557-2.771-0.727c-13.016-2.361-26.031-4.731-39.058-7.025c-2.95-0.52-5.943-0.838-8.929-1.108
	c-8.414-0.761-16.898-1.026-25.239-2.266c-12.623-1.875-25.343-0.845-37.983-1.951c-5.397-0.472-10.891,0.151-16.341,0.274
	c-4.364,0.099-8.734,0.076-13.09,0.32c-5.299,0.298-10.587,0.815-15.878,1.25c-0.542,0.044-1.076,0.202-1.618,0.243
	c-3.617,0.272-5.161-0.938-5.206-4.568c-0.051-4.086,0.229-8.177,0.343-12.266c0.042-1.49,0.042-2.982,0.021-4.473
	c-0.109-8.045-0.309-16.09-0.306-24.135c0.001-2.835,1.291-3.85,4.458-4.256c0.405-0.052,0.816-0.081,1.225-0.082
	c3.685-0.006,7.37-0.003,11.054-0.003C215.152,70.219,215.152,70.174,215.152,70.13z"/>
<path fill-rule="evenodd" clip-rule="evenodd" fill="#0096DB" d="M768.588,725.092c0.835,2.075,0.265,3.566-0.772,4.892
	c-3.683,4.707-7.429,9.363-11.117,14.065c-1.84,2.347-3.509,4.833-5.427,7.112c-4.128,4.901-8.462,9.551-13.81,13.253
	c-3.895,2.695-7.425,5.941-10.979,9.098c-2.866,2.546-5.85,4.782-9.262,6.627c-4.414,2.387-8.327,5.698-12.74,8.087
	c-5.974,3.233-12.226,5.952-18.343,8.923c-8.019,3.895-16.519,6.384-25.117,8.552c-4.49,1.132-9.025,2.1-13.572,2.979
	c-5.482,1.06-10.964,2.278-16.505,2.824c-7.175,0.707-14.406,0.914-21.619,1.141c-3.121,0.098-6.259-0.27-9.386-0.479
	c-1.625-0.109-3.265-0.224-4.86-0.529c-4.141-0.794-8.268-1.667-12.389-2.562c-6.788-1.473-13.576-2.944-20.345-4.5
	c-4.251-0.977-8.47-2.092-12.694-3.18c-1.052-0.27-2.137-0.543-3.092-1.034c-9.326-4.801-18.791-9.359-27.897-14.548
	c-14.794-8.429-27.71-19.27-39.341-31.718c-6.632-7.098-12.93-14.452-18.316-22.511c-3.772-5.645-7.071-11.617-10.394-17.549
	c-2.061-3.679-3.922-7.489-5.602-11.358c-2.981-6.866-5.755-13.822-8.615-20.74c-0.104-0.252-0.229-0.501-0.291-0.765
	c-1.822-7.819-3.705-15.625-5.435-23.464c-2.334-10.578-2.895-21.343-2.85-32.125c0.037-8.871,0.635-17.722,2.496-26.44
	c1.678-7.861,2.985-15.821,5.08-23.569c1.844-6.822,4.192-13.563,6.961-20.067c4.054-9.522,8.724-18.776,14.391-27.483
	c9.263-14.233,19.809-27.399,32.644-38.588c6.159-5.369,12.473-10.58,18.969-15.532c3.664-2.793,7.799-4.987,11.798-7.319
	c4.113-2.398,8.255-4.765,12.498-6.921c10.476-5.323,21.495-9.2,32.794-12.412c7.242-2.059,14.416-3.944,22.032-4.074
	c4.606-0.078,9.192-1.054,13.799-1.52c1.748-0.177,3.526-0.084,5.291-0.065c4.765,0.051,9.529,0.118,14.294,0.202
	c1.76,0.031,3.577-0.132,5.269,0.243c7.499,1.658,15.087,2.33,22.743,2.446c3.88,0.059,7.425,1.224,11.042,2.64
	c3.626,1.418,7.606,2.021,11.482,2.683c2.744,0.47,5.351,0.991,7.484,2.929c0.496,0.45,1.107,0.945,1.73,1.055
	c6.053,1.061,10.957,4.719,16.358,7.224c8.424,3.905,16.565,8.397,23.858,14.17c7.9,6.252,15.967,12.4,23.168,19.407
	c10.357,10.079,19.426,21.282,27.139,33.647c5.372,8.611,9.759,17.655,14.05,26.764c2.43,5.159,4.23,10.656,5.879,16.131
	c2.046,6.789,3.833,13.671,5.358,20.595c0.934,4.24,1.153,8.636,1.72,12.959c1.333,10.179,1.413,20.423,1.146,30.643
	c-0.191,7.35-0.696,14.764-1.972,21.988c-0.911,5.16-3.278,10.074-5.112,15.055c-0.595,1.618-1.896,2.375-3.606,1.443
	c-2.543-1.385-4.402-0.386-6.118,1.52c-1.643,1.825-3.405,3.542-5.018,5.392c-0.698,0.802-1.376,1.751-1.671,2.749
	c-0.779,2.634,0.741,4.379,3.438,3.893c2.987-0.54,5.8-1.582,7.859-4.019c0.782-0.925,1.581-1.836,2.615-3.036
	c1.223,1.926,0.684,3.58,0.076,5.177c-1.211,3.187-2.412,6.381-3.796,9.494c-0.651,1.464-1.505,2.959-2.636,4.062
	c-2.156,2.103-3.578,4.387-3.655,7.488c-0.023,0.934-0.622,1.854-1.244,3.572c-0.979-1.475-1.491-2.174-1.928-2.917
	c-1.241-2.113-2.535-2.714-4.214-1.228c-3.434,3.037-7.424,5.61-9.215,10.206c-0.578,1.484-1.679,2.767-2.554,4.133
	c-0.438,0.686-1.068,1.295-1.337,2.038c-3.362,9.315-10.388,15.724-17.465,22.088c-3.243,2.917-6.709,5.614-9.729,8.743
	c-1.537,1.594-2.659,3.814-3.345,5.951c-0.92,2.862,0.871,4.575,3.787,3.8c1.237-0.329,2.478-1.16,3.401-2.08
	c7.151-7.124,14.233-14.316,21.311-21.514c0.756-0.768,1.717-1.615,1.942-2.576c1.143-4.857,5.727-7.174,8.02-11.156
	C767.273,725.346,767.839,725.337,768.588,725.092z M696.038,472.432c-1.22,3.498-0.394,6.354,0.759,9.093
	c1.646,3.912,1.221,7.476-1.4,10.753c-2.691,3.366-4.531,7.072-5.317,11.351c-0.423,2.3-2.051,3.735-4.276,4.562
	c-3.568,1.325-7.118,2.71-10.633,4.173c-2.794,1.163-5.605,1.506-8.292,0.009c-4.479-2.494-8.412-1.111-12.274,1.364
	c-1.487,0.954-2.871,2.121-4.457,2.859c-4.714,2.194-8.484,5.468-11.301,9.768c-2.928,4.469-6.761,6.668-12.13,5.456
	c-3.539-0.799-6.188,0.266-7.927,3.436c-1.87,3.412-4.767,4.449-8.535,4.393c-4.481-0.067-8.971,0.332-13.455,0.559
	c-4.631,0.235-9.26,0.5-13.888,0.767c-2.649,0.153-4.682-0.915-6.505-2.813c-3.684-3.834-7.523-7.518-11.26-11.301
	c-2.052-2.078-4.541-3.113-7.389-2.84c-2.837,0.271-5.652,0.833-8.454,1.386c-7.471,1.477-14.416,4.929-22.209,5.41
	c-3.956,0.244-6.398,3.384-7.375,7.3c-0.261,1.05-0.26,2.164-0.405,3.245c-0.829,6.178-5.868,10.199-12.083,9.651
	c-3.426-0.302-4.912-2.054-4.274-5.499c0.342-1.849,1.136-3.632,1.875-5.382c0.474-1.12,1.409-2.062,1.793-3.199
	c0.404-1.201,0.949-2.842,0.45-3.751c-0.863-1.571-2.604-0.827-4.06-0.38c-2.075,0.637-4.159,1.256-6.266,1.771
	c-3.296,0.805-4.427,2.146-3.845,5.512c0.474,2.742-0.114,5.049-1.47,7.406c-1.765,3.067-3.414,6.22-4.844,9.455
	c-2.317,5.241-3.138,5.643-8.229,3.232c-2.978-1.41-5.054-1.106-7.411,1.22c-0.767,0.757-1.454,1.642-1.991,2.576
	c-1.95,3.385-2.955,6.916-2.373,10.953c0.62,4.297-0.017,4.828-3.829,6.464c-2.098,0.901-4.038,2.194-5.981,3.418
	c-1.728,1.087-3.27,2.495-5.057,3.458c-4.198,2.264-7.062,5.494-8.188,10.191c-0.189,0.791-0.475,1.58-0.849,2.301
	c-3.707,7.164-3.734,15.055-4.106,22.766c-0.32,6.65,0.282,13.352,0.597,20.025c0.307,6.5,1.485,12.808,5.746,18.017
	c2.573,3.145,5.482,6.012,8.2,9.041c1.627,1.812,3.226,3.656,4.747,5.559c1.36,1.7,2.556,3.53,3.895,5.248
	c2.266,2.909,3.456,6.048,3.156,9.858c-0.177,2.251-0.07,4.767,0.766,6.813c2.936,7.188,6.002,14.345,9.503,21.27
	c2.028,4.011,3.537,7.908,3.185,12.45c-0.231,2.975,0.729,5.709,2.548,8.029c4.457,5.685,8.917,11.373,13.559,16.906
	c4.94,5.89,10.937,10.666,17.241,14.984c3.81,2.609,7.856,4.975,12.05,6.896c4.989,2.284,8.119,0.538,9.542-4.662
	c0.323-1.184,0.564-2.395,0.955-3.556c0.985-2.931,2.638-5.268,5.419-6.9c4.069-2.386,4.867-4.31,3.496-8.861
	c-0.977-3.239-2.378-6.368-3.8-9.45c-2.534-5.495-1.709-8.604,3.336-11.714c6.034-3.72,12.119-7.361,18.059-11.225
	c1.531-0.995,2.736-2.597,3.85-4.1c1.612-2.175,2.923-4.573,4.51-6.77c2.613-3.618,1.858-7.634-2.172-9.562
	c-1.526-0.73-3.396-0.848-5.132-1.007c-1.758-0.161-3.576,0.179-5.299-0.11c-0.851-0.143-1.547-1.206-2.312-1.853
	c0.587-0.67,1.049-1.631,1.788-1.95c1.488-0.644,3.108-1.034,4.708-1.36c7.075-1.444,14.157-2.853,21.247-4.225
	c4.637-0.896,8.307-3.219,11.166-6.986c2.832-3.731,4.701-7.511,3.351-12.479c-0.776-2.856,0.41-3.527,3.371-3.225
	c2.668,0.271,5.482,0.596,8.048,0.04c3.905-0.847,7.302-0.301,10.499,1.913c1.787,1.238,3.521,2.559,5.23,3.904
	c3.103,2.443,6.056,5.097,9.286,7.355c2.946,2.059,4.569,4.579,4.433,8.2c-0.128,3.37,0.855,6.48,2.432,9.403
	c1.553,2.881,3.185,5.72,4.818,8.557c1.368,2.377,3.345,3.931,6.137,4.287c2.268,0.289,4.124,1.316,5.656,3.002
	c0.548,0.603,1.164,1.162,1.822,1.64c1.573,1.145,3.246,1.464,4.898,0.185c1.446-1.12,1.766-3.333,0.75-5.235
	c-0.379-0.71-0.92-1.36-1.486-1.939c-1.548-1.58-2.078-3.506-1.947-5.627c0.144-2.312,0.35-4.623,0.622-6.922
	c0.491-4.137,2.434-7.35,5.787-9.944c3.547-2.746,6.804-5.87,10.151-8.868c2.135-1.911,4.102-4.021,6.324-5.818
	c4.183-3.381,9.371-3.013,12.187,1.298c2.749,4.209,6.136,7.073,10.889,8.738c3.589,1.258,5.232,3.91,4.457,7.35
	c-0.966,4.293-0.341,8.075,1.807,11.77c0.337,0.579,0.496,1.27,0.689,1.923c1.091,3.684,0.826,4.248-2.736,5.939
	c-3.941,1.872-4.279,3.89-1.313,7.228c1.806,2.032,3.581,4.103,5.224,6.268c2.439,3.216,5.541,5.057,9.574,5.651
	c5.684,0.838,11.134-0.526,16.632-1.422c0.987-0.161,1.833-1.19,3.3-2.201c-1.454-0.674-2.123-1.217-2.813-1.248
	c-0.921-0.041-1.872,0.27-2.789,0.509c-4.49,1.175-5.089,0.946-7.797-2.955c-0.776-1.119-1.521-2.291-2.465-3.256
	c-2.098-2.143-2.812-4.623-2.159-7.505c0.705-3.114-0.444-5.633-2.49-7.84c-1.111-1.199-2.356-2.272-3.52-3.424
	c-3.114-3.083-3.827-5.547-2.294-7.862c1.564-2.365,4.068-2.828,8.053-1.043c2.747,1.23,5.165,0.917,7.165-1.067
	c3.379-3.35,5.312-7.538,5.998-12.244c0.132-0.904-0.012-1.968-0.381-2.804c-1.53-3.471-2.609-7.147-5.305-10.063
	c-2.703-2.927-2.226-6.022,1.332-7.624c6.011-2.707,9.126-8.027,12.318-13.188c1.575-2.546,2.75-5.291,5.077-7.313
	c2.206-1.917,2.489-4.222,1.767-7.05c-0.662-2.589-1.132-5.412-0.814-8.026c0.597-4.902-0.614-8.741-4.343-12.078
	c-3.869-3.463-5.305-8.513-7.412-13.065c-0.392-0.847,0.004-2.719,0.697-3.246c0.892-0.676,2.453-0.604,3.723-0.588
	c0.587,0.007,1.235,0.566,1.737,1.01c3.137,2.77,6.938,2.868,10.807,2.813c2.283-0.032,3.962-1.071,4.974-3.025
	c2.168-4.182,3.366-8.648,3.25-13.378c-0.035-1.404-0.144-3.008-2.073-3.892c-0.558,0.8-1.188,1.482-1.562,2.283
	c-1.04,2.223-1.963,4.501-2.953,6.749c-0.72,1.634-1.412,3.486-3.516,3.561c-2.105,0.074-2.902-1.798-3.785-3.308
	c-0.546-0.933-0.994-1.957-1.285-2.996c-1.541-5.503-3.465-10.979-1.019-16.76c0.405-0.957,0.249-2.154,0.337-3.241
	c0.309-3.782,0.306-3.783,4.2-4.625c2.203-0.477,3.138-1.563,2.782-3.232c-0.376-1.767-2.039-2.68-4.149-2.213
	c-0.997,0.22-1.967,0.558-2.858,0.816c-0.341-0.583-0.527-0.801-0.602-1.052c-0.113-0.389-0.217-0.802-0.209-1.202
	c0.118-5.587-2.522-9.86-6.216-13.777c-2.224-2.357-4.544-3.567-7.905-3.217c-4.914,0.513-7.914-1.385-9.081-6.185
	c-0.923-3.797-1.236-7.822-1.219-11.743c0.018-3.643,2.285-4.795,5.57-3.194c1.702,0.829,3.197,2.073,4.828,3.058
	c1.351,0.815,2.91,2.312,4.294,0.493c1.266-1.662-0.214-3.031-1.344-4.233c-1.494-1.591-2.793-3.484-4.56-4.681
	c-6.507-4.406-10.563-10.963-15.219-16.965c-5.463-7.042-12.623-11.969-19.883-16.823
	C698.274,472.935,697.406,472.86,696.038,472.432z M577.249,463.176c1.348-0.092,2.817,0.132,4.02-0.335
	c3.421-1.329,6.784-2.836,10.058-4.494c1.158-0.586,2.162-1.689,2.94-2.77c2.193-3.047,0.934-5.65-2.791-5.932
	c-0.807-0.061-1.632,0.051-2.442,0.132c-3.931,0.391-7.874,0.69-11.78,1.248c-1.848,0.265-3.8,0.726-5.396,1.64
	c-3.893,2.228-7.912,4.41-11.304,7.289c-3.487,2.961-6.595,4.488-11.319,2.87c-3.293-1.127-5.372,0.671-6.085,4.075
	c-0.385,1.837-1.293,3.053-3.001,3.474c-2.886,0.711-5.799,1.419-8.743,1.766c-6.747,0.794-11.962,4.277-16.362,9.113
	c-1.811,1.99-1.234,4.395,1.059,5.947c0.89,0.601,2.023,0.835,2.931,1.416c2.037,1.301,4.269,2.451,5.931,4.144
	c2.304,2.346,4.751,3.012,7.763,2.044c1.427-0.458,2.909-0.838,4.226-1.522c6.062-3.148,12.479-4.622,19.299-4.479
	c2.921,0.061,5.612-1.015,7.015-3.501c3.181-5.637,7.372-10.813,8.117-17.64C571.871,463.208,572.9,462.583,577.249,463.176z
	 M763.728,698.487c0.151-2.581-0.428-4.838-2.373-6.715c-0.76-0.733-1.247-1.772-1.774-2.719c-0.969-1.741-1.341-4.206-3.846-4.309
	c-2.648-0.108-3.485,2.335-4.562,4.161c-3.275,5.55-6.985,10.737-11.818,15.06c-0.605,0.542-1.175,1.155-1.637,1.822
	c-2.549,3.683-1.365,7.692,2.755,9.365c2.426,0.985,4.863,0.952,7.04-0.546c1.557-1.072,3.101-2.288,4.296-3.733
	c1.845-2.229,3.98-3.677,6.887-3.917c2.95-0.245,4.295-2.074,4.666-4.81C763.526,700.932,763.608,699.707,763.728,698.487z
	 M571.775,767.502c-0.206-1.128-0.327-2.354-0.66-3.518c-1.234-4.316-3.747-5.509-7.654-3.354c-2.599,1.434-5.048,3.196-7.375,5.049
	c-2.527,2.012-3.428,4.861-3.006,8.029c0.709,5.327,7.219,9.242,11.195,6.422C568.457,777.163,571.309,773.011,571.775,767.502z
	 M597.89,531.256c0.444,0.66,1.008,2.067,2.04,2.883c1.22,0.964,2.579,0.247,3.616-0.794c0.38-0.382,0.736-0.802,1.036-1.25
	c1.77-2.634,3.973-4.779,6.8-6.278c0.706-0.375,1.569-0.844,1.872-1.497c0.458-0.989,0.488-2.176,0.701-3.279
	c-1.108-0.162-2.399-0.77-3.293-0.404c-2.874,1.173-5.648,2.621-8.37,4.128C600.08,525.991,598.54,527.854,597.89,531.256z
	 M686.128,464.336c-1.081-0.769-1.81-1.636-2.698-1.856c-3.263-0.807-5.795-2.769-8.489-4.613c-1.833-1.254-4.141-1.951-6.336-2.493
	c-1.676-0.414-3.646-0.408-4.55,1.641c-0.621,1.404,0.702,2.847,3.364,3.85c3.788,1.426,7.546,2.944,11.38,4.233
	C681.055,465.856,683.449,466.409,686.128,464.336z M765.036,656.304c-0.041-0.306-0.091-0.987-0.229-1.649
	c-0.67-3.185-2.308-4.903-4.286-4.54c-1.99,0.366-3.747,3.215-3.465,5.842c0.099,0.916,0.426,1.865,0.873,2.674
	c1.112,2.01,3.037,3.05,4.628,2.668C764.221,660.899,765.072,659.315,765.036,656.304z M570.287,508.796
	c2.596,0.004,4.592-1.496,4.687-3.522c0.11-2.341-2.376-4.39-5.355-4.415c-2.679-0.022-4.844,1.668-4.905,3.83
	C564.646,507.003,567.073,508.792,570.287,508.796z M520.668,504.711c-0.026-2.062-1.519-3.678-3.456-3.742
	c-2.11-0.069-3.74,1.602-3.764,3.857c-0.023,2.237,1.597,4.019,3.642,4.004C519.021,508.818,520.695,506.891,520.668,504.711z
	 M770.776,669.908c0.081-2.102-1.316-3.991-3.058-4.133c-1.575-0.129-2.538,1.084-2.648,3.336c-0.121,2.473,0.94,4.234,2.629,4.356
	C769.307,673.584,770.696,671.976,770.776,669.908z M645.604,511.379c0.933-0.871,1.851-1.318,1.917-1.869
	c0.164-1.365-0.934-1.893-2.087-1.716c-0.647,0.1-1.203,0.795-1.801,1.222C644.227,509.729,644.82,510.441,645.604,511.379z
	 M762.53,567.039c-0.278,0.102-0.556,0.204-0.834,0.306c-0.274,2.606-0.274,2.606,2.529,3.166
	C763.553,569.133,763.041,568.085,762.53,567.039z"/>
<path fill-rule="evenodd" clip-rule="evenodd" fill="#0096DB" d="M614.097,842.278c-16.651,0.649-32.091-1.724-47.511-4.996
	c-10.218-2.169-19.832-5.854-29.504-9.528c-0.89-0.338-1.784-0.711-2.596-1.2c-3.143-1.895-4.233-4.778-3.097-8.013
	c1.234-3.511,4.011-5.458,7.49-4.996c1.601,0.212,3.209,0.698,4.704,1.324c6.062,2.539,12.246,4.506,18.76,5.649
	c6.837,1.2,13.516,3.306,20.355,4.472c6.027,1.028,12.178,1.361,18.282,1.898c4.34,0.382,8.692,0.807,13.042,0.842
	c14.104,0.112,28.002-2.056,41.898-4.125c1.729-0.257,3.386-1.014,5.063-1.576c1.034-0.347,2.016-0.965,3.07-1.117
	c8.48-1.222,16.112-5.091,24.068-7.872c6.134-2.144,11.895-5.391,17.739-8.312c3.654-1.827,7.14-3.987,10.728-5.95
	c9.724-5.322,18.629-11.812,27.102-18.924c12.707-10.666,24.082-22.56,33.173-36.494c4.835-7.41,9.554-14.906,14.047-22.527
	c2.275-3.861,4.188-7.985,5.817-12.165c2.917-7.482,5.502-15.095,8.206-22.66c0.274-0.767,0.3-1.636,0.638-2.367
	c4.206-9.083,5.13-18.97,6.362-28.648c1.739-13.658,2.134-27.407,1.105-41.243c-0.732-9.852-2.338-19.519-4.227-29.128
	c-1.465-7.457-3.967-14.738-6.368-21.978c-2.92-8.8-6.16-17.525-10.577-25.693c-4.081-7.546-8.391-14.997-13.061-22.19
	c-5.945-9.16-12.734-17.739-20.524-25.411c-6.305-6.209-12.805-12.254-19.587-17.931c-5.94-4.973-12.285-9.49-18.663-13.903
	c-3.685-2.55-7.78-4.509-11.706-6.707c-4.416-2.471-5.169-4.942-2.758-9.384c0.519-0.956,1.105-1.892,1.785-2.738
	c2.658-3.31,4.378-3.911,8.104-1.721c8.454,4.969,16.867,10.032,25.042,15.444c12.586,8.334,23.376,18.792,33.409,29.978
	c9.661,10.771,18.34,22.297,25.595,34.894c4.773,8.289,9.578,16.571,12.918,25.52c3.328,8.915,6.916,17.718,9.428,26.985
	c2.473,9.12,4.483,18.267,5.786,27.575c0.773,5.523,0.914,11.137,1.318,16.71c0.118,1.631-0.096,3.332,0.291,4.89
	c1.281,5.17,0.604,10.262,0.036,15.441c-0.847,7.724-1.04,15.522-1.924,23.241c-0.65,5.673-1.452,11.426-3.103,16.865
	c-2.251,7.417-3.279,15.206-6.843,22.256c-1.396,2.762-1.673,6.072-2.93,8.926c-3.839,8.719-7.535,17.518-12.555,25.669
	c-3.286,5.336-6.268,10.873-9.771,16.059c-3.888,5.753-7.991,11.395-12.412,16.746c-4.941,5.983-9.893,12.092-15.65,17.237
	c-9.545,8.53-19.368,16.854-29.782,24.271c-7.826,5.575-16.686,9.74-25.234,14.249c-4.809,2.536-9.854,4.662-14.913,6.673
	c-4.805,1.909-9.764,3.428-14.656,5.114c-0.387,0.133-0.795,0.205-1.177,0.351c-13.228,5.039-27.097,7.011-41.018,8.967
	C629.289,842.157,621.309,842.597,614.097,842.278z"/>
<path fill-rule="evenodd" clip-rule="evenodd" fill="#0096DB" d="M773.921,715.376c1.467,3.587,0.922,4.806-2.69,5.929
	C770.975,718.747,771.203,716.584,773.921,715.376z"/>
<path fill-rule="evenodd" clip-rule="evenodd" fill="#0096DB" d="M394.007,600.792c1.23,1.312,2.7,0.563,4.096,0.253
	c5.493-1.224,7.114-0.171,8.353,5.269c0.388,1.703,0.797,3.5,1.678,4.966c1.203,2.002,2.88,1.847,4.105-0.179
	c0.843-1.394,1.353-3.005,2.286-4.325c1.687-2.384,4.386-2.024,5.237,0.771c0.5,1.642,0.563,3.51,0.407,5.239
	c-0.367,4.077,1.115,6.773,5,8.328c2.388,0.955,4.712,2.195,6.849,3.629c3.468,2.329,3.576,5.343,0.483,8.089
	c-2.292,2.036-4.877,2.757-7.947,1.915c-6.131-1.682-11.83-3.956-16.09-9.051c-2.477-2.962-5.911-4.346-9.824-4.174
	c-3.791,0.168-6.195-1.581-7.511-5.049c-0.289-0.761-0.599-1.558-1.09-2.19c-3.203-4.125-4.146-8.552-3.145-13.801
	c0.637-3.336-1.331-6.226-4.354-8.175c-2.854-1.841-5.703-3.722-8.36-5.829c-3.111-2.466-2.879-3.828,0.532-5.574
	c2.667-1.365,5.248-2.902,7.949-4.192c4.939-2.36,8.017-1.063,10.03,3.93c0.807,2.001,1.722,3.989,2.849,5.823
	c2.596,4.222,2.475,7.998-0.607,12.039c-0.328,0.43-0.658,0.866-0.909,1.341C393.917,600.051,394.007,600.363,394.007,600.792z"/>
<path fill-rule="evenodd" clip-rule="evenodd" fill="#0096DB" d="M446.468,610.001c-1.162-0.468-3.279-1.326-5.402-2.173
	c-2.109-0.841-4.215-1.693-6.341-2.492c-0.758-0.285-1.604-0.344-2.352-0.648c-2.276-0.924-3.366-2.583-3.175-4.683
	c0.21-2.311,2.44-4.885,4.528-5.238c1.909-0.323,3.287,0.726,4.055,2.16c1.56,2.91,3.626,3.923,6.974,3.484
	c2.731-0.359,5.636,2.568,6.261,5.46C451.597,608.559,450.363,610.044,446.468,610.001z"/>
<path fill-rule="evenodd" clip-rule="evenodd" fill="#0096DB" d="M427.447,558.213c-0.782-0.216-1.626-0.296-2.31-0.67
	c-1.481-0.811-1.5-2.687,0.105-3.071c4.562-1.09,7.496-4.184,10.345-7.521c0.42-0.493,1.075-0.851,1.69-1.098
	c1.438-0.575,2.474,0.054,2.501,1.607c0.017,0.92-0.116,1.969-0.553,2.75C436.652,554.798,432.485,557.098,427.447,558.213z"/>
<path fill-rule="evenodd" clip-rule="evenodd" fill="#0096DB" d="M575.447,609.6c0.362,0.78,1.03,1.559,1.031,2.339
	c0.005,2.661,1.378,4.569,2.857,6.592c0.994,1.36,1.641,3.105,1.979,4.772c0.317,1.557-0.502,2.99-2.107,3.583
	c-1.782,0.658-3.341-0.035-4.235-1.56c-0.655-1.118-1.019-2.519-1.126-3.825c-0.23-2.822-0.278-5.665-0.267-8.498
	c0.005-1.111,0.369-2.22,0.57-3.33C574.582,609.649,575.015,609.625,575.447,609.6z"/>
<path fill-rule="evenodd" clip-rule="evenodd" fill="#0096DB" d="M443.567,680.122c0.02,3.836-2.004,5.101-4.357,3.891
	c-1.894-0.974-4.875-6.513-4.704-8.709c0.116-1.487,1.08-2.445,2.374-2.209c1.496,0.273,3.354,0.813,4.197,1.902
	C442.426,676.739,443.067,679.029,443.567,680.122z"/>
<path fill-rule="evenodd" clip-rule="evenodd" d="M579.065,663.38c-0.217,0.013-0.433,0.025-0.649,0.038
	c0.035-0.203,0.05-0.414,0.119-0.604c0.016-0.042,0.304-0.058,0.331-0.01C578.964,662.979,579.005,663.185,579.065,663.38z"/>
<g>
	<rect x="1244.007" y="244.648" fill="none" width="1753.26" height="601.987"/>
	<path fill="#495257" d="M1383.331,374.491c0,2.9-0.127,6.208-0.378,9.923c-0.254,3.715-0.6,7.527-1.04,11.434
		c-0.442,3.904-0.944,7.749-1.512,11.529c-0.567,3.78-1.229,7.182-1.984,10.206h-7.371l-10.206-30.807h-90.342l-10.206,30.807
		h-7.371c-0.756-3.151-1.45-6.68-2.079-10.584c-0.632-3.907-1.166-7.844-1.606-11.812c-0.443-3.969-0.756-7.782-0.945-11.435
		c-0.188-3.653-0.283-6.739-0.283-9.261h16.443c3.525-5.292,6.771-11.842,9.733-19.656c2.959-7.811,5.48-16.349,7.56-25.609
		c2.079-9.261,3.653-19.024,4.726-29.295c1.068-10.268,1.606-20.568,1.606-30.901c-3.278-0.629-6.681-1.574-10.206-2.835
		c-3.529-1.258-6.805-2.77-9.828-4.536v-7.182h108.675v7.182c-4.412,2.395-9.577,4.223-15.498,5.481v107.352H1383.331z
		 M1332.868,374.491v-107.73h-30.43c-0.632,14.618-1.7,27.721-3.213,39.312c-1.512,11.594-3.308,21.8-5.387,30.618
		c-2.078,8.821-4.317,16.349-6.709,22.585c-2.396,6.237-4.725,11.311-6.993,15.214H1332.868z"/>
	<path fill="#495257" d="M1517.396,254.477c-0.254,5.67-0.694,11.529-1.323,17.577c-0.632,6.048-1.45,11.718-2.457,17.01h-7.749
		l-8.694-22.302h-35.343v46.305h23.058l8.316-14.553h6.048c0.629,6.175,0.945,13.041,0.945,20.601s-0.316,14.618-0.945,21.168
		h-6.048l-8.316-14.931h-23.058v49.14h36.855l10.017-24.003h7.749c0.502,2.395,1.007,5.103,1.512,8.127
		c0.502,3.024,0.913,6.143,1.229,9.355c0.313,3.213,0.567,6.458,0.756,9.734c0.189,3.278,0.284,6.302,0.284,9.072h-102.249v-7.182
		c2.141-1.134,4.536-2.203,7.182-3.213c2.646-1.007,5.416-1.763,8.316-2.268V267.139c-2.522-0.502-5.198-1.229-8.033-2.173
		s-5.324-2.046-7.465-3.308v-7.182H1517.396z"/>
	<path fill="#495257" d="M1617.629,386.776h-56.7v-7.182c1.89-1.007,4.093-2.046,6.614-3.118c2.52-1.069,5.481-1.858,8.884-2.363
		V267.139c-2.522-0.502-5.136-1.196-7.844-2.079c-2.711-0.88-5.263-2.014-7.654-3.402v-7.182h135.702v7.182
		c-2.396,1.512-4.914,2.679-7.561,3.497c-2.646,0.821-5.292,1.482-7.938,1.984v106.974c4.659,0.505,9.827,2.333,15.498,5.481v7.182
		h-56.7v-7.182c1.258-1.007,2.896-1.984,4.914-2.929c2.014-0.945,4.66-1.796,7.938-2.552V266.761h-48.006v107.352
		c2.52,0.632,4.787,1.388,6.804,2.268c2.015,0.883,4.031,1.955,6.049,3.213V386.776z"/>
	<path fill="#495257" d="M1775.885,386.776h-46.683v-7.182c2.014-1.258,4.188-2.362,6.521-3.307c2.33-0.945,4.631-1.669,6.898-2.174
		l48.762-121.905h13.986l47.439,121.905c2.519,0.505,5.037,1.229,7.56,2.174c2.519,0.945,4.725,2.049,6.615,3.307v7.182h-59.157
		v-7.182c2.392-1.134,4.976-2.203,7.749-3.213c2.77-1.007,5.416-1.763,7.938-2.268l-10.962-30.051h-41.958l-11.15,30.051
		c5.794,0.756,11.274,2.584,16.442,5.481V386.776z M1775.129,331.777h33.453l-12.285-36.099l-3.591-16.254h-0.378l-4.158,16.632
		L1775.129,331.777z"/>
	<path fill="#495257" d="M1943.402,374.113c3.402,0.505,6.771,1.229,10.111,2.174c3.337,0.945,6.332,2.049,8.978,3.307v7.182
		h-62.937v-7.182c2.392-1.385,4.943-2.519,7.654-3.402c2.708-0.88,5.321-1.574,7.844-2.079V267.139
		c-2.9-0.502-5.67-1.229-8.316-2.173c-2.646-0.945-5.041-2.046-7.182-3.308v-7.182h23.813c5.038,0,10.803-0.251,17.294-0.756
		c6.488-0.502,12.441-0.756,17.86-0.756c6.677,0,13.197,0.662,19.562,1.984c6.361,1.323,12.031,3.562,17.01,6.709
		c4.977,3.151,8.978,7.342,12.002,12.569c3.023,5.23,4.536,11.75,4.536,19.562c0,7.436-1.482,13.862-4.442,19.278
		c-2.962,5.419-6.898,9.893-11.812,13.419c-4.913,3.529-10.584,6.143-17.01,7.844c-6.426,1.701-13.041,2.551-19.845,2.551
		c-0.632,0-1.639,0-3.024,0c-1.388,0-2.867-0.029-4.441-0.095c-1.577-0.062-3.089-0.124-4.536-0.189
		c-1.449-0.062-2.489-0.156-3.118-0.283V374.113z M1953.608,265.25c-2.521,0-4.507,0.094-5.953,0.283
		c-1.45,0.189-2.868,0.473-4.253,0.851v57.456c1.134,0.378,2.835,0.6,5.104,0.662c2.268,0.065,4.093,0.094,5.48,0.094
		c3.402,0,6.677-0.567,9.828-1.701c3.148-1.134,5.953-2.897,8.41-5.292c2.457-2.392,4.441-5.481,5.954-9.261
		c1.512-3.78,2.268-8.316,2.268-13.608c0-10.079-2.457-17.512-7.371-22.302C1968.161,267.645,1961.671,265.25,1953.608,265.25z"/>
	<path fill="#495257" d="M2140.973,386.776h-65.017v-7.182c2.52-1.007,5.387-2.046,8.6-3.118c3.213-1.069,6.456-1.858,9.733-2.363
		V266.761h-21.924l-12.096,32.319h-7.749c-0.505-2.519-1.01-5.732-1.512-9.639c-0.506-3.904-0.945-7.938-1.323-12.096
		c-0.378-4.158-0.694-8.283-0.945-12.379c-0.254-4.093-0.378-7.589-0.378-10.489h120.204c0,3.024-0.127,6.553-0.378,10.584
		c-0.254,4.034-0.567,8.127-0.945,12.285c-0.378,4.158-0.82,8.16-1.323,12.001c-0.505,3.845-1.01,7.088-1.512,9.734h-7.749
		l-12.096-32.319h-21.924v107.352c3.274,0.632,6.521,1.388,9.733,2.268c3.213,0.883,6.077,1.955,8.6,3.213V386.776z"/>
	<path fill="#495257" d="M2229.864,386.776h-46.683v-7.182c2.014-1.258,4.188-2.362,6.521-3.307c2.33-0.945,4.631-1.669,6.898-2.174
		l48.762-121.905h13.986l47.439,121.905c2.519,0.505,5.037,1.229,7.56,2.174c2.519,0.945,4.725,2.049,6.615,3.307v7.182h-59.157
		v-7.182c2.392-1.134,4.976-2.203,7.749-3.213c2.77-1.007,5.416-1.763,7.938-2.268l-10.962-30.051h-41.958l-11.15,30.051
		c5.794,0.756,11.274,2.584,16.442,5.481V386.776z M2229.108,331.777h33.453l-12.285-36.099l-3.591-16.254h-0.378l-4.158,16.632
		L2229.108,331.777z"/>
	<path fill="#495257" d="M2521.555,386.776h-56.511v-7.182c2.519-1.258,4.976-2.33,7.371-3.213c2.392-0.88,4.976-1.636,7.749-2.268
		v-79.002l0.945-22.113h-1.513l-6.236,20.223l-36.478,93.555h-8.694l-36.287-92.799l-6.805-22.113h-1.701l0.189,24.003v77.49
		c2.392,0.505,5.038,1.323,7.938,2.457c2.897,1.134,5.605,2.395,8.128,3.78v7.182h-46.116v-7.182
		c2.014-1.007,4.503-2.203,7.465-3.591c2.959-1.385,5.765-2.33,8.411-2.835V267.139c-2.522-0.502-5.197-1.196-8.033-2.079
		c-2.835-0.88-5.324-2.014-7.465-3.402v-7.182h51.219l28.917,76.923l5.481,18.144h0.188l5.67-18.522l29.484-76.545h46.872v7.182
		c-2.145,1.261-4.441,2.363-6.898,3.308s-4.947,1.671-7.466,2.173v107.163c2.646,0.505,5.197,1.261,7.654,2.268
		c2.457,1.01,4.631,2.017,6.521,3.024V386.776z"/>
	<path fill="#495257" d="M2657.51,254.477c-0.254,5.67-0.694,11.529-1.323,17.577c-0.632,6.048-1.45,11.718-2.457,17.01h-7.749
		l-8.694-22.302h-35.343v46.305h23.058l8.316-14.553h6.048c0.629,6.175,0.945,13.041,0.945,20.601s-0.316,14.618-0.945,21.168
		h-6.048l-8.316-14.931h-23.058v49.14h36.855l10.017-24.003h7.749c0.502,2.395,1.007,5.103,1.512,8.127
		c0.502,3.024,0.913,6.143,1.229,9.355c0.313,3.213,0.567,6.458,0.756,9.734c0.189,3.278,0.284,6.302,0.284,9.072h-102.249v-7.182
		c2.141-1.134,4.536-2.203,7.182-3.213c2.646-1.007,5.416-1.763,8.316-2.268V267.139c-2.522-0.502-5.198-1.229-8.033-2.173
		s-5.324-2.046-7.465-3.308v-7.182H2657.51z"/>
	<path fill="#495257" d="M2758.31,386.776h-57.267v-7.182c2.141-1.134,4.63-2.203,7.465-3.213c2.835-1.007,5.511-1.763,8.033-2.268
		V267.139c-3.024-0.502-5.924-1.258-8.694-2.268c-2.773-1.007-5.041-2.079-6.804-3.213v-7.182h57.267v7.182
		c-1.89,1.261-4.001,2.395-6.331,3.402c-2.333,1.01-4.695,1.701-7.088,2.079v45.738h50.085v-45.738
		c-2.772-0.502-5.263-1.258-7.466-2.268c-2.205-1.007-4.19-2.079-5.953-3.213v-7.182h57.267v7.182
		c-2.144,1.388-4.601,2.522-7.37,3.402c-2.773,0.883-5.481,1.577-8.127,2.079v106.974c2.896,0.505,5.699,1.261,8.41,2.268
		c2.708,1.01,5.07,2.079,7.087,3.213v7.182h-57.267v-7.182c1.89-1.134,3.969-2.203,6.237-3.213c2.268-1.007,4.66-1.763,7.182-2.268
		v-48.951h-50.085v48.951c2.52,0.505,4.849,1.199,6.993,2.079c2.141,0.883,4.282,2.017,6.426,3.402V386.776z"/>
	<path fill="#495257" d="M2966.842,386.776h-65.017v-7.182c2.52-1.007,5.387-2.046,8.6-3.118c3.213-1.069,6.456-1.858,9.733-2.363
		V266.761h-21.924l-12.096,32.319h-7.749c-0.505-2.519-1.01-5.732-1.512-9.639c-0.506-3.904-0.945-7.938-1.323-12.096
		c-0.378-4.158-0.694-8.283-0.945-12.379c-0.254-4.093-0.378-7.589-0.378-10.489h120.204c0,3.024-0.127,6.553-0.378,10.584
		c-0.254,4.034-0.567,8.127-0.945,12.285c-0.378,4.158-0.82,8.16-1.323,12.001c-0.505,3.845-1.01,7.088-1.512,9.734h-7.749
		l-12.096-32.319h-21.924v107.352c3.274,0.632,6.521,1.388,9.733,2.268c3.213,0.883,6.077,1.955,8.6,3.213V386.776z"/>
	<path fill="#495257" d="M1255.378,547.426c0-9.828,1.385-18.93,4.158-27.311c2.77-8.378,6.865-15.622,12.285-21.735
		c5.416-6.11,12.096-10.868,20.033-14.27c7.938-3.402,17.072-5.103,27.405-5.103c10.33,0,19.467,1.701,27.405,5.103
		c7.938,3.402,14.582,8.159,19.939,14.27c5.354,6.113,9.417,13.357,12.19,21.735c2.77,8.381,4.158,17.482,4.158,27.311
		s-1.389,18.933-4.158,27.311c-2.773,8.381-6.837,15.625-12.19,21.735c-5.357,6.113-12.002,10.868-19.939,14.27
		c-7.938,3.402-17.075,5.103-27.405,5.103c-10.333,0-19.467-1.701-27.405-5.103c-7.938-3.402-14.617-8.157-20.033-14.27
		c-5.42-6.11-9.516-13.354-12.285-21.735C1256.763,566.359,1255.378,557.254,1255.378,547.426z M1287.508,547.426
		c0,8.065,0.629,15.53,1.89,22.396c1.259,6.869,3.243,12.79,5.954,17.766c2.708,4.979,6.172,8.883,10.395,11.718
		c4.221,2.835,9.291,4.252,15.215,4.252c5.416,0,10.017-1.417,13.797-4.252s6.866-6.739,9.261-11.718
		c2.393-4.976,4.126-10.897,5.198-17.766c1.068-6.866,1.606-14.332,1.606-22.396c0-8.062-0.6-15.528-1.796-22.396
		c-1.199-6.866-3.089-12.787-5.67-17.766c-2.584-4.976-5.986-8.883-10.206-11.718c-4.223-2.835-9.355-4.253-15.403-4.253
		c-5.797,0-10.649,1.417-14.553,4.253c-3.907,2.835-7.026,6.742-9.356,11.718c-2.332,4.979-3.969,10.9-4.913,17.766
		C1287.98,531.898,1287.508,539.364,1287.508,547.426z"/>
	<path fill="#495257" d="M1440.55,493.939c-5.924-1.007-11.089-2.835-15.498-5.481v-7.182h101.493c0,2.9-0.127,6.113-0.379,9.639
		c-0.254,3.529-0.566,7.058-0.944,10.584c-0.378,3.529-0.821,6.931-1.323,10.206c-0.505,3.278-1.01,6.237-1.512,8.883h-7.749
		l-11.718-27.027h-34.021v43.092c1.134-0.124,2.52-0.284,4.158-0.473c1.636-0.189,3.308-0.346,5.009-0.473
		c1.7-0.124,3.401-0.218,5.103-0.283c1.701-0.062,3.181-0.095,4.441-0.095c6.426,0,12.536,0.694,18.333,2.079
		c5.794,1.388,10.867,3.624,15.215,6.709c4.347,3.089,7.811,7.087,10.395,12.001c2.581,4.914,3.875,10.838,3.875,17.766
		c0,6.68-1.355,12.539-4.063,17.577c-2.711,5.041-6.427,9.231-11.151,12.568c-4.725,3.34-10.333,5.859-16.821,7.56
		c-6.49,1.701-13.513,2.551-21.073,2.551c-0.632,0-2.206-0.032-4.725-0.094c-2.522-0.065-5.357-0.127-8.505-0.189
		c-3.151-0.065-6.303-0.127-9.45-0.189c-3.151-0.065-5.67-0.095-7.561-0.095h-27.026v-7.182c2.392-1.385,4.881-2.551,7.465-3.497
		c2.581-0.945,5.26-1.606,8.033-1.984V493.939z M1479.483,547.615c-2.017,0-3.969,0.094-5.859,0.283
		c-1.89,0.189-3.467,0.473-4.725,0.851v52.353c0.502,0.127,1.291,0.254,2.362,0.378c1.069,0.127,2.174,0.222,3.308,0.284
		c1.134,0.065,2.235,0.095,3.308,0.095c1.069,0,1.92,0,2.552,0c7.433,0,13.26-2.392,17.482-7.182
		c4.22-4.787,6.331-11.529,6.331-20.223c0-8.316-1.955-14.866-5.858-19.656C1494.477,550.01,1488.178,547.615,1479.483,547.615z"/>
	<path fill="#495257" d="M1620.805,600.913c3.402,0.505,6.771,1.229,10.111,2.174c3.337,0.945,6.332,2.049,8.978,3.307v7.182
		h-62.937v-7.182c2.392-1.385,4.943-2.519,7.654-3.402c2.708-0.88,5.321-1.574,7.844-2.079V493.939
		c-2.9-0.502-5.67-1.229-8.316-2.173c-2.646-0.945-5.041-2.046-7.182-3.308v-7.182h23.813c5.038,0,10.803-0.251,17.294-0.756
		c6.488-0.502,12.441-0.756,17.86-0.756c6.677,0,13.197,0.662,19.562,1.984c6.361,1.323,12.031,3.562,17.01,6.709
		c4.977,3.151,8.978,7.342,12.002,12.569c3.023,5.23,4.536,11.75,4.536,19.562c0,7.436-1.482,13.862-4.442,19.278
		c-2.962,5.419-6.898,9.893-11.812,13.419c-4.913,3.529-10.584,6.143-17.01,7.844c-6.426,1.701-13.041,2.551-19.845,2.551
		c-0.632,0-1.639,0-3.024,0c-1.388,0-2.867-0.029-4.441-0.095c-1.577-0.062-3.089-0.124-4.536-0.189
		c-1.449-0.062-2.489-0.156-3.118-0.283V600.913z M1631.011,492.049c-2.521,0-4.507,0.094-5.953,0.283
		c-1.45,0.189-2.868,0.473-4.253,0.851v57.456c1.134,0.378,2.835,0.6,5.104,0.662c2.268,0.065,4.093,0.094,5.48,0.094
		c3.402,0,6.677-0.567,9.828-1.701c3.148-1.134,5.953-2.897,8.41-5.292c2.457-2.392,4.441-5.481,5.954-9.261
		c1.512-3.78,2.268-8.316,2.268-13.608c0-10.079-2.457-17.512-7.371-22.302C1645.563,494.444,1639.073,492.049,1631.011,492.049z"/>
	<path fill="#495257" d="M1755.324,613.576h-46.683v-7.182c2.014-1.258,4.188-2.362,6.521-3.307c2.33-0.945,4.631-1.669,6.898-2.174
		l48.762-121.905h13.986l47.439,121.905c2.519,0.505,5.037,1.229,7.56,2.174c2.519,0.945,4.725,2.049,6.615,3.307v7.182h-59.157
		v-7.182c2.392-1.134,4.976-2.203,7.749-3.213c2.77-1.007,5.416-1.763,7.938-2.268l-10.962-30.051h-41.958l-11.15,30.051
		c5.794,0.756,11.274,2.584,16.442,5.481V613.576z M1754.568,558.577h33.453l-12.285-36.099l-3.591-16.254h-0.378l-4.158,16.632
		L1754.568,558.577z"/>
	<path fill="#495257" d="M1924.807,615.844c-3.529,0-7.215-0.189-11.057-0.567c-3.845-0.378-7.592-0.883-11.245-1.512
		c-3.656-0.629-7.059-1.417-10.206-2.362c-3.151-0.945-5.797-1.92-7.938-2.93c0-2.014,0.219-4.471,0.662-7.371
		c0.439-2.897,0.975-5.888,1.606-8.978c0.629-3.086,1.353-6.172,2.173-9.261c0.818-3.086,1.607-5.889,2.363-8.411h7.938
		l7.561,26.838c1.385,0.632,3.62,1.167,6.709,1.606c3.086,0.443,5.954,0.662,8.6,0.662c8.316,0,14.993-2.392,20.034-7.182
		c5.038-4.787,7.56-11.275,7.56-19.467c0-8.945-2.206-15.276-6.614-18.995c-4.412-3.715-10.333-5.575-17.767-5.575l-14.553,2.457
		c-0.632-2.268-1.01-4.849-1.134-7.749c-0.127-2.897,0.188-5.543,0.944-7.938h6.048c2.142,0.127,4.631,0.094,7.466-0.095
		s5.26-0.408,7.276-0.662c4.787-2.014,8.473-4.943,11.057-8.789c2.581-3.842,3.875-8.723,3.875-14.647
		c0-7.433-1.923-13.23-5.765-17.388c-3.845-4.158-9.294-6.237-16.349-6.237c-3.024,0-5.765,0.349-8.222,1.04
		c-2.457,0.694-4.128,1.544-5.009,2.552l-9.261,24.003h-7.938c-0.505-1.89-1.011-4.063-1.513-6.521
		c-0.505-2.457-0.944-5.103-1.322-7.938s-0.727-5.732-1.04-8.694c-0.315-2.959-0.473-5.827-0.473-8.6
		c2.393-1.636,5.198-2.959,8.411-3.969c3.213-1.007,6.487-1.825,9.828-2.457c3.337-0.629,6.645-1.069,9.922-1.323
		c3.275-0.251,6.237-0.378,8.883-0.378c6.049,0,12.031,0.443,17.955,1.323c5.921,0.883,11.181,2.552,15.782,5.009
		c4.598,2.457,8.315,5.797,11.15,10.017c2.835,4.223,4.253,9.61,4.253,16.16c0,6.426-2.111,12.568-6.332,18.428
		c-4.223,5.859-10.616,10.111-19.184,12.757v0.756c3.904,0.632,7.655,1.766,11.246,3.402c3.591,1.639,6.771,3.78,9.544,6.426
		c2.771,2.646,4.977,5.859,6.615,9.639c1.636,3.78,2.457,8.127,2.457,13.041c0,6.68-1.323,12.539-3.969,17.577
		c-2.646,5.041-6.364,9.199-11.151,12.474c-4.79,3.278-10.555,5.735-17.293,7.371
		C1940.65,615.023,1933.123,615.844,1924.807,615.844z"/>
	<path fill="#495257" d="M2024.926,547.426c0-9.828,1.385-18.93,4.158-27.311c2.77-8.378,6.865-15.622,12.285-21.735
		c5.416-6.11,12.096-10.868,20.033-14.27c7.938-3.402,17.072-5.103,27.405-5.103c10.33,0,19.467,1.701,27.405,5.103
		c7.938,3.402,14.582,8.159,19.939,14.27c5.354,6.113,9.417,13.357,12.19,21.735c2.77,8.381,4.158,17.482,4.158,27.311
		s-1.389,18.933-4.158,27.311c-2.773,8.381-6.837,15.625-12.19,21.735c-5.357,6.113-12.002,10.868-19.939,14.27
		c-7.938,3.402-17.075,5.103-27.405,5.103c-10.333,0-19.467-1.701-27.405-5.103c-7.938-3.402-14.617-8.157-20.033-14.27
		c-5.42-6.11-9.516-13.354-12.285-21.735C2026.311,566.359,2024.926,557.254,2024.926,547.426z M2057.056,547.426
		c0,8.065,0.629,15.53,1.89,22.396c1.259,6.869,3.243,12.79,5.954,17.766c2.708,4.979,6.172,8.883,10.395,11.718
		c4.221,2.835,9.291,4.252,15.215,4.252c5.416,0,10.017-1.417,13.797-4.252s6.866-6.739,9.261-11.718
		c2.393-4.976,4.126-10.897,5.198-17.766c1.068-6.866,1.606-14.332,1.606-22.396c0-8.062-0.6-15.528-1.796-22.396
		c-1.199-6.866-3.089-12.787-5.67-17.766c-2.584-4.976-5.986-8.883-10.206-11.718c-4.223-2.835-9.355-4.253-15.403-4.253
		c-5.797,0-10.649,1.417-14.553,4.253c-3.907,2.835-7.026,6.742-9.356,11.718c-2.332,4.979-3.969,10.9-4.913,17.766
		C2057.528,531.898,2057.056,539.364,2057.056,547.426z"/>
	<path fill="#495257" d="M2194.6,613.576v-7.182c2.392-1.385,4.943-2.581,7.654-3.591c2.708-1.007,5.321-1.636,7.844-1.89V493.939
		c-2.522-0.502-5.168-1.229-7.938-2.173c-2.772-0.945-5.292-2.046-7.56-3.308v-7.182h30.429c4.787,0,9.323-0.189,13.608-0.567
		c4.281-0.378,9.195-0.567,14.741-0.567c6.049,0,11.907,0.443,17.577,1.323c5.67,0.883,10.708,2.457,15.12,4.725
		c4.409,2.268,7.938,5.452,10.584,9.545c2.646,4.096,3.969,9.355,3.969,15.781c0,4.034-0.726,7.782-2.173,11.246
		c-1.45,3.467-3.467,6.521-6.048,9.167c-2.584,2.646-5.608,4.852-9.072,6.615c-3.467,1.766-7.215,3.024-11.246,3.78v0.756
		c4.031,0.505,8.095,1.45,12.191,2.835c4.093,1.388,7.778,3.402,11.056,6.048c3.275,2.646,5.954,5.953,8.033,9.922
		c2.079,3.969,3.118,8.665,3.118,14.081c0,6.804-1.512,12.663-4.536,17.577c-3.023,4.914-7.087,8.948-12.19,12.096
		c-5.103,3.151-10.933,5.452-17.482,6.898c-6.553,1.447-13.357,2.173-20.412,2.173c-2.646,0-5.546-0.065-8.694-0.189
		c-3.15-0.127-6.302-0.254-9.449-0.378c-3.151-0.127-6.208-0.254-9.167-0.378c-2.962-0.127-5.451-0.189-7.465-0.189H2194.6z
		 M2243.361,540.244c2.141,0,4.282-0.094,6.426-0.284c2.142-0.189,4.158-0.407,6.048-0.661c4.914-2.014,8.884-5.133,11.907-9.355
		c3.024-4.22,4.536-9.04,4.536-14.458c0-7.938-2.079-13.765-6.237-17.483c-4.157-3.715-9.515-5.575-16.064-5.575
		c-2.773,0-5.168,0.065-7.183,0.189c-2.017,0.127-3.845,0.316-5.48,0.567v47.061H2243.361z M2251.678,602.425
		c7.938,0,14.175-2.363,18.711-7.087c4.536-4.725,6.804-10.992,6.804-18.806c0-4.787-0.756-8.724-2.268-11.812
		c-1.513-3.086-3.592-5.543-6.237-7.371c-2.646-1.825-5.797-3.086-9.45-3.78c-3.656-0.691-7.625-1.04-11.907-1.04h-10.017v48.573
		c1.763,0.378,3.62,0.694,5.575,0.945C2244.841,602.301,2247.771,602.425,2251.678,602.425z"/>
	<path fill="#495257" d="M2390.918,613.576h-46.683v-7.182c2.014-1.258,4.188-2.362,6.521-3.307c2.33-0.945,4.631-1.669,6.898-2.174
		l48.762-121.905h13.986l47.439,121.905c2.519,0.505,5.037,1.229,7.56,2.174c2.519,0.945,4.725,2.049,6.615,3.307v7.182h-59.157
		v-7.182c2.392-1.134,4.976-2.203,7.749-3.213c2.77-1.007,5.416-1.763,7.938-2.268l-10.962-30.051h-41.958l-11.15,30.051
		c5.794,0.756,11.274,2.584,16.442,5.481V613.576z M2390.162,558.577h33.453l-12.285-36.099l-3.591-16.254h-0.378l-4.158,16.632
		L2390.162,558.577z"/>
	<path fill="#495257" d="M2573.82,613.576h-57.267v-7.182c2.141-1.134,4.63-2.203,7.465-3.213c2.835-1.007,5.511-1.763,8.033-2.268
		V493.939c-3.024-0.502-5.924-1.258-8.694-2.268c-2.773-1.007-5.041-2.079-6.804-3.213v-7.182h57.267v7.182
		c-1.89,1.261-4.001,2.395-6.331,3.402c-2.333,1.01-4.695,1.701-7.088,2.079v45.738h50.085v-45.738
		c-2.772-0.502-5.263-1.258-7.466-2.268c-2.205-1.007-4.19-2.079-5.953-3.213v-7.182h57.267v7.182
		c-2.144,1.388-4.601,2.522-7.37,3.402c-2.773,0.883-5.481,1.577-8.127,2.079v106.974c2.896,0.505,5.699,1.261,8.41,2.268
		c2.708,1.01,5.07,2.079,7.087,3.213v7.182h-57.267v-7.182c1.89-1.134,3.969-2.203,6.237-3.213c2.268-1.007,4.66-1.763,7.182-2.268
		v-48.951h-50.085v48.951c2.52,0.505,4.849,1.199,6.993,2.079c2.141,0.883,4.282,2.017,6.426,3.402V613.576z"/>
	<path fill="#495257" d="M2749.541,613.576h-56.889v-7.182c2.392-1.258,4.914-2.392,7.56-3.402c2.646-1.007,5.292-1.701,7.938-2.079
		V493.939c-2.522-0.629-5.168-1.353-7.938-2.173c-2.772-0.818-5.292-1.919-7.56-3.308v-7.182h56.889v7.182
		c-1.89,1.134-4.034,2.206-6.426,3.213c-2.396,1.01-4.979,1.766-7.749,2.268v71.82l-1.891,14.742l9.262-15.498l47.628-66.528v-4.536
		c-5.924-1.385-10.9-3.213-14.932-5.481v-7.182h56.89v7.182c-2.145,1.388-4.568,2.49-7.276,3.308
		c-2.711,0.821-5.452,1.544-8.222,2.173v106.974c2.896,0.505,5.638,1.229,8.222,2.174c2.581,0.945,5.008,2.049,7.276,3.307v7.182
		h-56.89v-7.182c1.764-0.88,3.875-1.857,6.332-2.929c2.457-1.069,5.07-1.92,7.844-2.552v-71.631l1.89-14.931l-8.505,14.931
		l-48.384,67.473v4.158c2.896,0.632,5.604,1.45,8.127,2.457c2.519,1.01,4.787,2.017,6.804,3.024V613.576z"/>
	<path fill="#495257" d="M2993.49,481.276v7.182c-1.639,1.01-3.845,2.017-6.615,3.024c-2.772,1.01-5.734,1.828-8.883,2.457v106.974
		c3.275,0.632,6.172,1.45,8.694,2.457c2.519,1.01,4.787,2.017,6.804,3.024v7.182h-58.59v-7.182c2.141-1.143,4.441-2.191,6.898-3.142
		c2.457-0.951,5.07-1.745,7.844-2.383v-41.914h-15.876c-3.78,8.756-7.593,17.258-11.435,25.503
		c-3.845,8.248-8.538,15.923-14.081,23.028l-7.749,6.089h-32.696v-6.426l8.315-4.572c8.062-8.759,14.583-16.821,19.562-24.186
		c4.977-7.365,9.606-14.222,13.892-20.571c-3.278-1.128-6.553-2.664-9.828-4.607c-3.277-1.943-6.207-4.421-8.788-7.43
		c-2.584-3.009-4.663-6.583-6.237-10.72c-1.577-4.137-2.362-8.966-2.362-14.482c0-7.271,1.574-13.445,4.725-18.525
		c3.148-5.079,7.307-9.216,12.475-12.415c5.165-3.195,11.15-5.484,17.955-6.863c6.804-1.379,13.797-2.07,20.979-2.07
		c1.258,0,2.93,0.033,5.009,0.095c2.079,0.065,4.282,0.127,6.615,0.189c2.33,0.065,4.692,0.127,7.087,0.189
		c2.393,0.065,4.536,0.095,6.426,0.095H2993.49z M2938.113,548.182c1.763,0,3.875-0.094,6.332-0.284
		c2.456-0.189,4.188-0.407,5.197-0.661v-53.298c-1.01-0.251-2.584-0.472-4.726-0.661c-2.144-0.189-3.969-0.284-5.48-0.284
		c-3.656,0-7.088,0.473-10.301,1.417s-6.048,2.49-8.505,4.63c-2.457,2.144-4.412,4.914-5.859,8.316
		c-1.449,3.402-2.173,7.56-2.173,12.474c0,9.45,2.297,16.538,6.898,21.263C2924.095,545.82,2930.3,548.182,2938.113,548.182z"/>
	<path fill="#0094DB" d="M1295.635,827.713c3.148,0.505,6.267,1.262,9.355,2.268c3.086,1.01,6.016,2.08,8.789,3.213v7.183h-61.992
		v-7.183c5.543-2.77,10.708-4.598,15.498-5.48V720.739c-2.522-0.502-5.136-1.196-7.844-2.079c-2.711-0.88-5.263-2.014-7.654-3.402
		v-7.182h96.768c0,3.024-0.064,6.491-0.188,10.395c-0.127,3.907-0.316,7.938-0.567,12.096c-0.254,4.158-0.632,8.222-1.134,12.19
		c-0.505,3.969-1.01,7.531-1.512,10.679h-7.749l-11.907-33.075h-29.862V827.713z"/>
	<path fill="#0094DB" d="M1358.005,774.227c0-9.829,1.385-18.93,4.158-27.311c2.77-8.378,6.865-15.622,12.285-21.735
		c5.416-6.11,12.096-10.868,20.033-14.27c7.938-3.402,17.072-5.103,27.405-5.103c10.33,0,19.467,1.701,27.405,5.103
		c7.938,3.402,14.582,8.159,19.939,14.27c5.354,6.113,9.417,13.357,12.19,21.735c2.77,8.381,4.158,17.482,4.158,27.311
		c0,9.828-1.389,18.932-4.158,27.311c-2.773,8.381-6.837,15.625-12.19,21.734c-5.357,6.113-12.002,10.867-19.939,14.27
		c-7.938,3.402-17.075,5.104-27.405,5.104c-10.333,0-19.467-1.701-27.405-5.104c-7.938-3.402-14.617-8.156-20.033-14.27
		c-5.42-6.109-9.516-13.354-12.285-21.734C1359.39,793.158,1358.005,784.055,1358.005,774.227z M1390.135,774.227
		c0,8.064,0.629,15.529,1.89,22.396c1.259,6.868,3.243,12.789,5.954,17.766c2.708,4.979,6.172,8.883,10.395,11.718
		c4.221,2.835,9.291,4.253,15.215,4.253c5.416,0,10.017-1.418,13.797-4.253s6.866-6.739,9.261-11.718
		c2.393-4.977,4.126-10.897,5.198-17.766c1.068-6.867,1.606-14.332,1.606-22.396c0-8.062-0.6-15.528-1.796-22.397
		c-1.199-6.866-3.089-12.787-5.67-17.766c-2.584-4.976-5.986-8.883-10.206-11.718c-4.223-2.835-9.355-4.253-15.403-4.253
		c-5.797,0-10.649,1.417-14.553,4.253c-3.907,2.835-7.026,6.742-9.356,11.718c-2.332,4.979-3.969,10.9-4.913,17.766
		C1390.607,758.698,1390.135,766.164,1390.135,774.227z"/>
	<path fill="#0094DB" d="M1540.768,827.713c3.402,0.505,6.771,1.229,10.111,2.174c3.337,0.945,6.332,2.049,8.978,3.307v7.183
		h-62.937v-7.183c2.392-1.385,4.943-2.519,7.654-3.401c2.708-0.88,5.321-1.574,7.844-2.079V720.739
		c-2.9-0.502-5.67-1.229-8.316-2.173c-2.646-0.945-5.041-2.046-7.182-3.308v-7.182h23.813c5.038,0,10.803-0.251,17.294-0.756
		c6.488-0.502,12.441-0.756,17.86-0.756c6.677,0,13.197,0.662,19.562,1.984c6.361,1.323,12.031,3.562,17.01,6.709
		c4.977,3.151,8.978,7.342,12.002,12.569c3.023,5.23,4.536,11.75,4.536,19.562c0,7.436-1.482,13.862-4.442,19.278
		c-2.962,5.419-6.898,9.893-11.812,13.419c-4.913,3.528-10.584,6.143-17.01,7.844c-6.426,1.7-13.041,2.552-19.845,2.552
		c-0.632,0-1.639,0-3.024,0c-1.388,0-2.867-0.029-4.441-0.096c-1.577-0.062-3.089-0.123-4.536-0.188
		c-1.449-0.062-2.489-0.156-3.118-0.283V827.713z M1550.974,718.849c-2.521,0-4.507,0.094-5.953,0.283
		c-1.45,0.189-2.868,0.473-4.253,0.851v57.457c1.134,0.377,2.835,0.6,5.104,0.661c2.268,0.065,4.093,0.095,5.48,0.095
		c3.402,0,6.677-0.567,9.828-1.701c3.148-1.135,5.953-2.896,8.41-5.292c2.457-2.392,4.441-5.481,5.954-9.261
		c1.512-3.78,2.268-8.316,2.268-13.608c0-10.079-2.457-17.512-7.371-22.302C1565.526,721.244,1559.036,718.849,1550.974,718.849z"/>
	<path fill="#0094DB" d="M1619.96,774.227c0-9.829,1.385-18.93,4.158-27.311c2.77-8.378,6.865-15.622,12.285-21.735
		c5.416-6.11,12.096-10.868,20.033-14.27c7.938-3.402,17.072-5.103,27.405-5.103c10.33,0,19.467,1.701,27.405,5.103
		c7.938,3.402,14.582,8.159,19.939,14.27c5.354,6.113,9.417,13.357,12.19,21.735c2.77,8.381,4.158,17.482,4.158,27.311
		c0,9.828-1.389,18.932-4.158,27.311c-2.773,8.381-6.837,15.625-12.19,21.734c-5.357,6.113-12.002,10.867-19.939,14.27
		c-7.938,3.402-17.075,5.104-27.405,5.104c-10.333,0-19.467-1.701-27.405-5.104c-7.938-3.402-14.617-8.156-20.033-14.27
		c-5.42-6.109-9.516-13.354-12.285-21.734C1621.345,793.158,1619.96,784.055,1619.96,774.227z M1652.09,774.227
		c0,8.064,0.629,15.529,1.89,22.396c1.259,6.868,3.243,12.789,5.954,17.766c2.708,4.979,6.172,8.883,10.395,11.718
		c4.221,2.835,9.291,4.253,15.215,4.253c5.416,0,10.017-1.418,13.797-4.253s6.866-6.739,9.261-11.718
		c2.393-4.977,4.126-10.897,5.198-17.766c1.068-6.867,1.606-14.332,1.606-22.396c0-8.062-0.6-15.528-1.796-22.397
		c-1.199-6.866-3.089-12.787-5.67-17.766c-2.584-4.976-5.986-8.883-10.206-11.718c-4.223-2.835-9.355-4.253-15.403-4.253
		c-5.797,0-10.649,1.417-14.553,4.253c-3.907,2.835-7.026,6.742-9.356,11.718c-2.332,4.979-3.969,10.9-4.913,17.766
		C1652.562,758.698,1652.09,766.164,1652.09,774.227z"/>
	<path fill="#0094DB" d="M1885.885,828.091c0,2.899-0.127,6.208-0.378,9.923c-0.254,3.715-0.6,7.527-1.04,11.434
		c-0.442,3.904-0.944,7.75-1.512,11.529c-0.567,3.78-1.229,7.183-1.984,10.207h-7.371l-10.206-30.808h-90.342l-10.206,30.808h-7.371
		c-0.756-3.151-1.45-6.681-2.079-10.584c-0.632-3.908-1.166-7.844-1.606-11.812c-0.443-3.97-0.756-7.782-0.945-11.436
		c-0.188-3.652-0.283-6.738-0.283-9.261h16.443c3.525-5.292,6.771-11.842,9.733-19.655c2.959-7.812,5.48-16.35,7.56-25.609
		c2.079-9.262,3.653-19.025,4.726-29.296c1.068-10.268,1.606-20.568,1.606-30.901c-3.278-0.629-6.681-1.574-10.206-2.835
		c-3.529-1.258-6.805-2.77-9.828-4.536v-7.182h108.675v7.182c-4.412,2.395-9.577,4.223-15.498,5.481v107.352H1885.885z
		 M1835.422,828.091v-107.73h-30.43c-0.632,14.618-1.7,27.721-3.213,39.312c-1.512,11.595-3.308,21.8-5.387,30.618
		c-2.078,8.82-4.317,16.349-6.709,22.586c-2.396,6.236-4.725,11.311-6.993,15.214H1835.422z"/>
	<path fill="#0094DB" d="M1934.645,840.376h-46.683v-7.183c2.014-1.258,4.188-2.361,6.521-3.307c2.33-0.945,4.631-1.669,6.898-2.174
		l48.762-121.905h13.986l47.439,121.905c2.519,0.505,5.037,1.229,7.56,2.174c2.519,0.945,4.725,2.049,6.615,3.307v7.183h-59.157
		v-7.183c2.392-1.133,4.976-2.203,7.749-3.213c2.77-1.006,5.416-1.763,7.938-2.268l-10.962-30.051h-41.958l-11.15,30.051
		c5.794,0.756,11.274,2.584,16.442,5.48V840.376z M1933.889,785.377h33.453l-12.285-36.099l-3.591-16.254h-0.378l-4.158,16.632
		L1933.889,785.377z"/>
	<path fill="#0094DB" d="M2294.953,840.376h-56.511v-7.183c2.519-1.258,4.976-2.33,7.371-3.213c2.392-0.879,4.976-1.636,7.749-2.268
		v-79.002l0.945-22.113h-1.513l-6.236,20.223l-36.478,93.555h-8.694l-36.287-92.799l-6.805-22.113h-1.701l0.189,24.003v77.49
		c2.392,0.505,5.038,1.322,7.938,2.457c2.897,1.134,5.605,2.395,8.128,3.779v7.183h-46.116v-7.183
		c2.014-1.006,4.503-2.203,7.465-3.59c2.959-1.386,5.765-2.33,8.411-2.836V720.739c-2.522-0.502-5.197-1.196-8.033-2.079
		c-2.835-0.88-5.324-2.014-7.465-3.402v-7.182h51.219l28.917,76.923l5.481,18.144h0.188l5.67-18.521l29.484-76.545h46.872v7.182
		c-2.145,1.261-4.441,2.363-6.898,3.308s-4.947,1.671-7.466,2.173v107.164c2.646,0.504,5.197,1.261,7.654,2.268
		c2.457,1.01,4.631,2.018,6.521,3.023V840.376z"/>
	<path fill="#0094DB" d="M2306.292,774.227c0-9.829,1.385-18.93,4.158-27.311c2.77-8.378,6.865-15.622,12.285-21.735
		c5.416-6.11,12.096-10.868,20.033-14.27c7.938-3.402,17.072-5.103,27.405-5.103c10.33,0,19.467,1.701,27.405,5.103
		c7.938,3.402,14.582,8.159,19.939,14.27c5.354,6.113,9.417,13.357,12.19,21.735c2.77,8.381,4.158,17.482,4.158,27.311
		c0,9.828-1.389,18.932-4.158,27.311c-2.773,8.381-6.837,15.625-12.19,21.734c-5.357,6.113-12.002,10.867-19.939,14.27
		c-7.938,3.402-17.075,5.104-27.405,5.104c-10.333,0-19.467-1.701-27.405-5.104c-7.938-3.402-14.617-8.156-20.033-14.27
		c-5.42-6.109-9.516-13.354-12.285-21.734C2307.677,793.158,2306.292,784.055,2306.292,774.227z M2338.422,774.227
		c0,8.064,0.629,15.529,1.89,22.396c1.259,6.868,3.243,12.789,5.954,17.766c2.708,4.979,6.172,8.883,10.395,11.718
		c4.221,2.835,9.291,4.253,15.215,4.253c5.416,0,10.017-1.418,13.797-4.253s6.866-6.739,9.261-11.718
		c2.393-4.977,4.126-10.897,5.198-17.766c1.068-6.867,1.606-14.332,1.606-22.396c0-8.062-0.6-15.528-1.796-22.397
		c-1.199-6.866-3.089-12.787-5.67-17.766c-2.584-4.976-5.986-8.883-10.206-11.718c-4.223-2.835-9.355-4.253-15.403-4.253
		c-5.797,0-10.649,1.417-14.553,4.253c-3.907,2.835-7.026,6.742-9.356,11.718c-2.332,4.979-3.969,10.9-4.913,17.766
		C2338.895,758.698,2338.422,766.164,2338.422,774.227z"/>
	<path fill="#0094DB" d="M2543.486,800.686h7.749c0.502,2.018,0.975,4.441,1.418,7.277c0.44,2.834,0.818,5.858,1.134,9.072
		c0.313,3.213,0.534,6.396,0.662,9.544c0.124,3.151,0.188,5.985,0.188,8.505c-4.412,2.773-9.923,4.725-16.537,5.859
		c-6.615,1.134-13.39,1.701-20.317,1.701c-10.46,0-19.94-1.294-28.445-3.875s-15.752-6.678-21.734-12.285
		c-5.986-5.605-10.617-12.725-13.892-21.357c-3.278-8.629-4.914-18.994-4.914-31.09c0-11.969,1.795-22.27,5.387-30.902
		c3.591-8.629,8.41-15.716,14.458-21.262c6.048-5.543,13.07-9.606,21.073-12.19c8-2.581,16.411-3.875,25.232-3.875
		c8.315,0,15.843,0.599,22.585,1.795c6.739,1.199,12.253,2.806,16.537,4.819c0,2.017-0.094,4.601-0.283,7.749
		c-0.188,3.151-0.505,6.458-0.945,9.923c-0.442,3.467-0.944,6.869-1.512,10.206c-0.566,3.34-1.104,6.143-1.606,8.411h-7.938
		l-10.396-28.539c-1.134-0.629-2.962-1.134-5.48-1.512c-2.522-0.378-5.104-0.567-7.749-0.567c-5.168,0-10.018,1.04-14.554,3.119
		s-8.569,5.387-12.096,9.922c-3.529,4.536-6.302,10.366-8.316,17.483c-2.017,7.12-3.023,15.657-3.023,25.61
		c0,18.02,3.591,31.879,10.772,41.58c7.183,9.703,16.945,14.553,29.296,14.553c3.525,0,6.521-0.283,8.977-0.852
		c2.457-0.566,4.126-1.352,5.009-2.361L2543.486,800.686z"/>
	<path fill="#0094DB" d="M2640.064,708.076h50.652v7.182c-2.145,1.388-4.602,2.552-7.371,3.497
		c-2.773,0.945-5.292,1.606-7.561,1.984l-35.91,45.549c2.897,4.034,6.3,8.6,10.206,13.702c3.904,5.104,8.062,10.395,12.475,15.877
		c4.408,5.48,8.944,11.026,13.607,16.631c4.66,5.608,9.196,10.934,13.608,15.971l9.072,5.481v6.426h-32.887l-7.56-5.292
		c-3.024-3.779-6.208-7.968-9.545-12.568c-3.34-4.598-6.647-9.385-9.922-14.364c-3.278-4.976-6.491-9.984-9.64-15.025
		c-3.15-5.038-6.112-9.952-8.883-14.742h-8.127v49.329c2.771,0.505,5.292,1.262,7.561,2.268c2.268,1.01,4.22,2.08,5.858,3.213v7.183
		h-57.267v-7.183c2.519-1.258,5.103-2.361,7.749-3.307c2.646-0.945,5.227-1.669,7.749-2.174V720.739
		c-2.9-0.378-5.703-1.069-8.411-2.079c-2.711-1.007-5.073-2.141-7.087-3.402v-7.182h57.267v7.182
		c-1.639,1.01-3.623,2.017-5.953,3.024c-2.333,1.01-4.819,1.828-7.466,2.457v48.006l11.151-2.646l30.429-45.36
		c-2.522-0.502-5.009-1.291-7.466-2.362c-2.457-1.069-4.568-2.108-6.331-3.119V708.076z"/>
	<path fill="#0094DB" d="M2702.622,840.376v-7.183c2.392-1.385,4.943-2.58,7.654-3.59c2.708-1.008,5.321-1.637,7.844-1.891V720.739
		c-2.522-0.502-5.168-1.229-7.938-2.173c-2.772-0.945-5.292-2.046-7.56-3.308v-7.182h30.429c4.787,0,9.323-0.189,13.608-0.567
		c4.281-0.378,9.195-0.567,14.741-0.567c6.049,0,11.907,0.443,17.577,1.323c5.67,0.883,10.708,2.457,15.12,4.725
		c4.409,2.268,7.938,5.452,10.584,9.545c2.646,4.096,3.969,9.355,3.969,15.781c0,4.034-0.726,7.782-2.173,11.246
		c-1.45,3.467-3.467,6.521-6.048,9.167c-2.584,2.646-5.608,4.852-9.072,6.615c-3.467,1.766-7.215,3.024-11.246,3.78v0.756
		c4.031,0.505,8.095,1.45,12.191,2.835c4.093,1.388,7.778,3.402,11.056,6.048c3.275,2.646,5.954,5.953,8.033,9.923
		c2.079,3.969,3.118,8.665,3.118,14.081c0,6.803-1.512,12.662-4.536,17.576c-3.023,4.914-7.087,8.948-12.19,12.096
		c-5.103,3.151-10.933,5.452-17.482,6.898c-6.553,1.447-13.357,2.174-20.412,2.174c-2.646,0-5.546-0.064-8.694-0.189
		c-3.15-0.127-6.302-0.254-9.449-0.377c-3.151-0.127-6.208-0.254-9.167-0.379c-2.962-0.127-5.451-0.188-7.465-0.188H2702.622z
		 M2751.384,767.044c2.141,0,4.282-0.094,6.426-0.284c2.142-0.189,4.158-0.407,6.048-0.661c4.914-2.014,8.884-5.133,11.907-9.355
		c3.024-4.22,4.536-9.04,4.536-14.458c0-7.938-2.079-13.765-6.237-17.483c-4.157-3.715-9.515-5.575-16.064-5.575
		c-2.773,0-5.168,0.065-7.183,0.189c-2.017,0.127-3.845,0.316-5.48,0.567v47.061H2751.384z M2759.7,829.225
		c7.938,0,14.175-2.362,18.711-7.087c4.536-4.726,6.804-10.991,6.804-18.806c0-4.787-0.756-8.724-2.268-11.812
		c-1.513-3.086-3.592-5.543-6.237-7.371c-2.646-1.825-5.797-3.086-9.45-3.779c-3.656-0.691-7.625-1.04-11.907-1.04h-10.017v48.573
		c1.763,0.377,3.62,0.693,5.575,0.945C2752.863,829.102,2755.793,829.225,2759.7,829.225z"/>
	<path fill="#0094DB" d="M2825.28,840.376v-7.183c2.268-1.258,4.754-2.361,7.465-3.307c2.708-0.945,5.387-1.669,8.033-2.174V720.739
		c-2.522-0.502-5.104-1.163-7.749-1.984c-2.646-0.818-5.23-1.984-7.749-3.497v-7.182h60.479v7.182
		c-2.395,1.261-5.008,2.363-7.844,3.308c-2.835,0.945-5.764,1.671-8.788,2.173v40.446c2.269-0.378,4.977-0.691,8.127-0.945
		c3.148-0.251,5.983-0.378,8.505-0.378c6.55,0,12.758,0.632,18.617,1.89c5.858,1.261,10.962,3.402,15.309,6.426
		c4.347,3.024,7.811,7.059,10.395,12.096c2.581,5.041,3.875,11.34,3.875,18.9c0,7.059-1.388,13.201-4.158,18.428
		c-2.772,5.23-6.553,9.576-11.34,13.041c-4.79,3.467-10.396,6.048-16.821,7.749c-6.426,1.7-13.295,2.552-20.601,2.552
		c-0.632,0-1.923-0.033-3.875-0.095c-1.955-0.065-4.223-0.127-6.804-0.188c-2.584-0.065-5.197-0.127-7.844-0.189
		c-2.646-0.065-4.914-0.095-6.804-0.095H2825.28z M2878.956,772.146c-4.158,0-7.436,0.379-9.828,1.135v54.621
		c1.007,0.254,2.646,0.442,4.914,0.566c2.268,0.127,3.969,0.189,5.103,0.189c7.183,0,12.914-2.33,17.199-6.993
		c4.282-4.66,6.426-12.158,6.426-22.491C2902.77,781.156,2894.832,772.146,2878.956,772.146z M2993.49,840.376h-57.268v-7.183
		c2.015-1.133,4.188-2.173,6.521-3.117c2.33-0.945,4.755-1.731,7.276-2.363V720.739c-2.395-0.502-4.884-1.196-7.465-2.079
		c-2.584-0.88-5.009-2.014-7.276-3.402v-7.182h58.212v7.182c-4.285,2.773-9.326,4.601-15.12,5.481v106.974
		c3.147,0.505,5.983,1.293,8.505,2.363c2.519,1.071,4.725,2.111,6.615,3.117V840.376z"/>
</g>
</svg>
