<?xml version="1.0" encoding="utf-8"?>
<!-- Generator: Adobe Illustrator 21.1.0, SVG Export Plug-In . SVG Version: 6.00 Build 0)  -->
<svg version="1.1" id="图层_1" xmlns="http://www.w3.org/2000/svg" xmlns:xlink="http://www.w3.org/1999/xlink" x="0px" y="0px"
	 viewBox="0 0 40 40" style="enable-background:new 0 0 40 40;" xml:space="preserve">
<style type="text/css">
	.st0{fill:#FFFFFF;}
</style>
<g>
	<g>
		<g>
			<g>
				<path class="st0" d="M25.3,26H14.7c-1.5,0-2.7-1.2-2.7-2.7v-6.7c0-1.5,1.2-2.7,2.7-2.7h10.7c1.5,0,2.7,1.2,2.7,2.7v6.7
					C28,24.8,26.8,26,25.3,26z M14.7,15c-0.9,0-1.7,0.8-1.7,1.7v6.7c0,0.9,0.8,1.7,1.7,1.7h10.7c0.9,0,1.7-0.8,1.7-1.7v-6.7
					c0-0.9-0.8-1.7-1.7-1.7C25.4,15,14.7,15,14.7,15z"/>
			</g>
			<g>
				<path class="st0" d="M27.8,17.4L21.6,21c-0.4,0.3-1,0.4-1.6,0.4s-1.1-0.1-1.6-0.4l-6.2-3.6l0.5-0.9l6.2,3.6
					c0.6,0.3,1.6,0.3,2.1,0l6.2-3.6L27.8,17.4z"/>
			</g>
			<g>
				
					<rect x="11.5" y="21.7" transform="matrix(0.6323 -0.7747 0.7747 0.6323 -11.7422 19.6988)" class="st0" width="6.8" height="1"/>
			</g>
			<g>
				
					<rect x="24.7" y="18.8" transform="matrix(0.7746 -0.6324 0.6324 0.7746 -8.3948 20.9278)" class="st0" width="1" height="6.8"/>
			</g>
		</g>
	</g>
</g>
</svg>
