<?xml version="1.0" encoding="utf-8"?>
<!-- Generator: Adobe Illustrator 16.0.0, SVG Export Plug-In . SVG Version: 6.00 Build 0)  -->
<!DOCTYPE svg PUBLIC "-//W3C//DTD SVG 1.1//EN" "http://www.w3.org/Graphics/SVG/1.1/DTD/svg11.dtd">
<svg version="1.1" xmlns="http://www.w3.org/2000/svg" xmlns:xlink="http://www.w3.org/1999/xlink" x="0px" y="0px"
	 width="229.333px" height="98.667px" viewBox="0 0 229.333 98.667" enable-background="new 0 0 229.333 98.667"
	 xml:space="preserve">
<g>
	<polygon fill="#005AAA" points="37.617,84.637 34.402,86.543 36.804,87.502 34.344,88.937 35.625,89.855 31.94,90.88 
		37.415,91.798 35.371,93.438 33.94,93.407 36.804,94.873 33.94,95.661 39.054,95.397 39.054,71.948 	"/>
	<polygon fill="#005AAA" points="4.999,47 6.437,44.371 9.346,43.551 8.513,42.768 9.711,41.329 6.226,40.307 9.912,39.283 
		6.634,38.462 8.683,36.827 10.116,35.601 7.258,34.135 10.116,33.35 4.999,31.099 	"/>
	<g>
		<path fill="#005AAA" d="M93.384,28.366c0,0-8.722,2.45-13.991,10.968c-0.385,0.615-0.74,1.19-1.073,1.727v-0.091
			c-3.778,6.914-4.485,8.53-6.152,9.109l-1.606-0.643c2.646-0.287,2.802-0.966,7.763-8.995c-0.029-1.611-0.394-3.243-1.38-4.639
			c-3.469-4.908-9.964-8.175-8.647-14.55c0,0-4.402,5.817-1.169,15.696c2.304,7.036,3.225,9.397,2.923,10.679
			c-5.33-0.568-9.655,2.145-7.208,4.821c1.953,2.135,4.719,0.385,4.719,0.385s2.942,6.462,8.634,6.706c0,0,2.217,5.321,2.822,8.944
			c0,0,0.623-3.753,6.082-4.447c0,0-2.385-7.855-7.072-12.566c0.792-0.326,10.125-4.213,11.05-8.99
			C90.041,37.494,86.948,32.476,93.384,28.366"/>
		<path fill="#005AAA" d="M62.284,50.6c0,0-1.743,1.47-2.244,2.644c0,0,1.016-0.465,2.286-0.57l-0.387,0.697
			c0,0,1.47,0.553,2.636-0.827"/>
	</g>
	<polygon fill="#005AAA" points="53.534,5.724 53.341,5.612 52.963,5.838 32.855,17.444 52.963,29.053 53.254,29.216 53.534,29.053 
		73.739,17.389 	"/>
	<polygon fill="#005AAA" points="38.743,3.006 34.253,4.983 36.768,6.775 34.253,6.956 35.512,8.032 37.305,9.468 34.433,10.19 
		37.659,11.085 34.612,11.982 36.7,13.206 32.469,15.637 32.469,15.657 16.576,24.82 16.576,26.073 33.907,16.069 33.899,16.067 
		36.643,14.486 38.743,13.272 52.671,5.228 53.252,4.894 53.264,4.886 73.841,16.783 73.841,15.531 53.314,3.668 53.304,3.671 
		53.252,3.647 52.963,3.808 52.166,4.271 51.588,4.596 38.743,12.023 	"/>
	<polygon fill="#005AAA" points="16.865,26.678 16.57,26.843 16.57,76.221 31.61,84.901 31.891,84.738 31.891,17.993 	"/>
	<g>
		<path fill="#005AAA" d="M70.91,62.354c0-0.887,0.296-1.608,0.648-1.608H44.375c-0.359,0-0.656,0.722-0.656,1.608
			c0,0.643,0.155,1.187,0.382,1.446h-0.657c-0.432,0-0.78-0.827-0.78-1.838c0-1.016,0.349-1.844,0.78-1.844h9.521v-30.3
			l-0.371-0.222L32.469,17.985v66.742l0.289,0.174l20.206-11.672v-9.268h18.595C71.206,63.961,70.91,63.245,70.91,62.354
			 M40.491,41.502c0.564-3.387,1.786-5.731,3.203-5.731c1.946,0,3.531,4.446,3.531,9.94c0,4.845-1.23,8.877-2.861,9.764
			c1.16-1.399,1.979-4.644,1.979-8.432c0-5.057-1.463-9.16-3.261-9.16C42.026,37.883,41.087,39.298,40.491,41.502"/>
		<path fill="#005AAA" d="M72.883,62.354c0-0.697-0.229-1.263-0.511-1.263s-0.511,0.565-0.511,1.263s0.229,1.262,0.511,1.262
			S72.883,63.051,72.883,62.354"/>
	</g>
	<path fill="#005AAA" d="M103.877,79.035l-0.317,0.32l-4.656-4.632l4.656-4.628l0.317,0.318l-2.418,4.31L103.877,79.035z
		 M100.739,79.835l-0.401,0.369l-6.438-5.481l6.438-5.479l0.401,0.371l-3.884,5.108L100.739,79.835z"/>
	<g>
		<path fill="#005AAA" d="M120.351,70.836v-6.095c0-1.384-0.827-1.888-2.239-1.888h-0.449v-0.348h8.328v0.348h-0.453
			c-1.49,0-2.232,0.504-2.232,1.888v14.159c0,1.411,0.742,1.892,2.232,1.892h0.453v0.344h-8.328v-0.344h0.449
			c1.412,0.023,2.21-0.48,2.239-1.892V72.09h-8.545v6.811c0,1.411,0.746,1.892,2.236,1.892h0.452v0.344h-8.329v-0.344h0.451
			c1.41,0.023,2.208-0.48,2.232-1.892V64.742c0-1.384-0.822-1.888-2.232-1.888h-0.451v-0.348h8.329v0.348h-0.452
			c-1.49,0-2.263,0.504-2.236,1.888v6.095H120.351z"/>
		<path fill="#005AAA" d="M134.765,73.792c-1.89,0.668-3.165,1.279-3.863,1.889c-0.661,0.588-0.981,1.305-0.981,2.128
			c0,1.306,0.824,2.105,2.074,2.105c0.722,0.025,1.624-0.452,2.771-1.384V73.792z M139.288,79.382
			c-1.173,1.406-2.048,1.967-3.006,1.967c-1.04,0-1.602-0.985-1.518-2.181c-1.359,1.355-2.904,2.181-4.257,2.181
			c-1.812,0-2.771-1.276-2.771-2.979c0-0.986,0.397-1.861,1.17-2.638c0.746-0.741,2.693-1.647,5.858-2.739v-1.647
			c-0.025-1.384-0.772-2.347-2.372-2.347c-1.274,0-1.992,0.75-1.992,1.629c0,0.209,0.053,0.634,0.053,0.823
			c-0.026,0.717-0.398,1.089-1.145,1.089c-0.666,0.027-1.04-0.478-1.04-1.249c0-0.932,0.482-1.676,1.41-2.26
			c0.959-0.587,2.022-0.884,3.196-0.884c2.578,0.029,4.125,0.985,4.147,3.328v7.532c0,0.504,0.243,0.772,0.695,0.772
			c0.43,0,0.957-0.269,1.304-0.666L139.288,79.382z"/>
		<path fill="#005AAA" d="M160.867,68.735h-0.267c-1.279,0-1.944,0.427-1.944,2.105v7.849c-0.029,1.702,0.665,2.104,1.944,2.104
			h0.267v0.344h-21.054v-0.344h0.267c1.251,0.023,1.944-0.401,1.944-2.104V70.84c0-1.679-0.693-2.105-1.944-2.105h-0.267v-0.342
			h6.336v0.342h-0.265c-1.092,0-1.599,0.478-1.599,2.105v9.338h4.921V70.84c-0.026-1.628-0.532-2.105-1.596-2.105h-0.266v-0.342
			h5.988v0.342h-0.269c-1.092,0-1.593,0.478-1.593,2.105v9.338h4.922V70.84c-0.025-1.628-0.534-2.105-1.597-2.105h-0.266v-0.342
			h6.335V68.735z"/>
		<path fill="#005AAA" d="M176.13,69.346h-3.699c-0.057,3.008-0.241,5.218-0.584,6.682c-0.321,1.462-0.828,2.85-1.492,4.15h5.775
			V69.346z M180.602,68.388v0.347h-0.267c-1.28,0-1.941,0.427-1.941,2.102v8.33c-0.03,0.882,0.103,1.012,0.716,1.012h1.226l0.24,4.1
			h-0.348c-0.24-2.129-1.226-3.142-3.166-3.142h-6.309c-2.021,0-2.953,1.013-3.166,3.142h-0.319l0.265-4.1h0.56
			c0.319,0,0.718-0.079,0.958-0.213c0.584-0.347,1.117-1.385,1.597-3.114c0.504-1.73,0.745-3.434,0.771-5.136
			c-0.026-1.249-0.159-2.021-0.369-2.369c-0.241-0.37-0.642-0.583-1.227-0.611h-0.374v-0.347H180.602z"/>
		<path fill="#005AAA" d="M185.782,78.744c0.8,1.143,1.759,1.703,2.874,1.703c2.025,0,3.191-1.894,3.191-5.83
			c-0.022-1.412-0.425-2.66-1.166-3.78c-0.773-1.143-1.731-1.727-2.847-1.754c-2.025,0-3.224,1.781-3.224,5.534
			C184.611,76.213,185.01,77.597,185.782,78.744 M183.734,79.54c-1.146-1.25-1.733-2.822-1.733-4.762
			c0-1.838,0.588-3.405,1.787-4.659c1.196-1.305,2.688-1.942,4.521-1.972c1.789,0.029,3.249,0.667,4.396,1.893
			c1.143,1.222,1.727,2.795,1.758,4.711c0,1.915-0.592,3.484-1.787,4.737c-1.169,1.25-2.658,1.861-4.441,1.861
			C186.396,81.349,184.903,80.738,183.734,79.54"/>
		<path fill="#005AAA" d="M203.849,81.136h-0.451l-4.446-10.189v7.742c-0.024,1.675,0.509,2.127,1.596,2.104h0.27v0.344h-4.949
			v-0.344h0.266c1.249,0.023,1.943-0.401,1.943-2.104V70.84c0-1.679-0.694-2.105-1.943-2.105h-0.266v-0.342h4.523l3.965,9.522
			l4.124-9.522h4.288v0.342H212.5c-1.277,0-1.973,0.427-1.944,2.105v7.849c-0.028,1.702,0.667,2.104,1.944,2.104h0.268v0.344h-6.338
			v-0.344h0.267c1.064,0.023,1.599-0.429,1.599-2.104v-7.798L203.849,81.136z"/>
	</g>
	<path fill="#005AAA" d="M214.355,70.412l2.42,4.312l-2.42,4.312l0.316,0.32l4.659-4.632l-4.659-4.628L214.355,70.412z
		 M217.496,69.615l3.883,5.108l-3.883,5.108l0.399,0.373l6.438-5.481l-6.438-5.479L217.496,69.615z"/>
	<g>
		<path fill="#005AAA" d="M129.802,27.837v0.344h-0.452c-1.489,0-2.263,0.507-2.235,1.89v15.145h8.118V30.071
			c0-1.383-0.825-1.89-2.237-1.89h-0.452v-0.344h8.33v0.344h-0.453c-1.489,0-2.236,0.507-2.236,1.89v13.866
			c-0.025,1.065,0.348,1.278,1.014,1.278h1.436l0.131,5.802h-0.344c-0.29-3.197-1.304-4.553-3.965-4.553h-14.981v-0.343h0.449
			c1.411,0.023,2.209-0.481,2.234-1.893V30.071c0-1.383-0.823-1.89-2.234-1.89h-0.449v-0.344H129.802z"/>
		<path fill="#005AAA" d="M159.843,33.666l-0.351,0.052c-0.72-3.004-2.793-5.107-6.172-5.107c-1.999,0-3.647,0.744-4.953,2.234
			c-1.3,1.461-1.941,3.487-1.941,6.121c0,2.661,0.666,4.71,1.997,6.172c1.355,1.467,3.059,2.184,5.163,2.184
			c2.366,0,4.602-1.119,6.413-3.354l0.56,0.532c-1.997,2.795-4.579,4.179-7.772,4.179c-2.688,0-4.978-0.902-6.839-2.713
			c-1.837-1.836-2.769-4.153-2.769-6.921c-0.027-2.767,0.905-5.029,2.796-6.787c1.891-1.781,4.231-2.66,7.052-2.66
			c1.302,0,2.526,0.241,4.15,0.799c0.775,0.319,0.958,0.319,1.171,0.319c0.453,0.027,0.854-0.346,0.879-0.986h0.318L159.843,33.666z
			"/>
		<path fill="#005AAA" d="M178.701,33.666l-0.348,0.052c-0.719-3.004-2.792-5.107-6.175-5.107c-1.996,0-3.646,0.744-4.95,2.234
			c-1.303,1.461-1.944,3.487-1.944,6.121c0,2.661,0.668,4.71,1.999,6.172c1.356,1.467,3.06,2.184,5.164,2.184
			c2.367,0,4.6-1.119,6.414-3.354l0.559,0.532c-1.998,2.795-4.579,4.179-7.773,4.179c-2.687,0-4.979-0.902-6.837-2.713
			c-1.838-1.836-2.771-4.153-2.771-6.921c-0.025-2.767,0.907-5.029,2.797-6.787c1.89-1.781,4.229-2.66,7.052-2.66
			c1.3,0,2.525,0.241,4.15,0.799c0.772,0.319,0.959,0.319,1.174,0.319c0.45,0.027,0.848-0.346,0.876-0.986h0.319L178.701,33.666z"/>
		<path fill="#005AAA" d="M186.94,45.081c0.749,0.24,1.467,0.323,2.239,0.323c2.58,0,4.471-1.521,4.471-4.048
			c0-2.342-1.891-4.126-5.216-4.126c-0.401,0-0.934,0.055-1.494,0.082V45.081z M186.94,36.168c0.615,0.103,1.147,0.158,1.651,0.158
			c2.771,0,4.364-1.49,4.364-4.049c0-1.939-1.754-3.379-4.389-3.379c-0.345,0-0.878,0.029-1.627,0.109V36.168z M189.046,27.837
			c2.582,0.024,4.391,0.451,5.377,1.224c1.008,0.797,1.514,1.94,1.514,3.434c0,2.207-1.383,3.91-3.615,4.202v0.161
			c2.685,0.213,4.443,2.078,4.443,4.442c-0.029,1.573-0.638,2.822-1.838,3.753c-1.197,0.935-2.795,1.411-4.789,1.411H181.3v-0.343
			h0.453c1.408,0.023,2.207-0.481,2.236-1.893V30.071c0-1.383-0.828-1.89-2.236-1.89H181.3v-0.344H189.046z"/>
	</g>
</g>
</svg>
