<?xml version="1.0" encoding="utf-8"?>
<!-- Generator: Adobe Illustrator 16.0.0, SVG Export Plug-In . SVG Version: 6.00 Build 0)  -->
<!DOCTYPE svg PUBLIC "-//W3C//DTD SVG 1.1//EN" "http://www.w3.org/Graphics/SVG/1.1/DTD/svg11.dtd">
<svg version="1.1" id="Layer_1" xmlns="http://www.w3.org/2000/svg" xmlns:xlink="http://www.w3.org/1999/xlink" x="0px" y="0px"
	 width="393.333px" height="203.334px" viewBox="0 0 393.333 203.334" enable-background="new 0 0 393.333 203.334"
	 xml:space="preserve">
<g>
	<path fill="#EB2D2E" d="M51.341,149.408l13.944-13.888v8.681l-5.264,5.207l5.264,5.208v8.681L51.341,149.408z M66.909,149.408
		l14-13.888v8.681l-5.376,5.207l5.376,5.208v8.681L66.909,149.408z"/>
	<path fill="#EB2D2E" d="M108.514,164.081c-1.68,0.672-3.696,1.063-5.824,1.063c-4.312,0-8.064-1.512-10.864-4.368
		c-3.92-3.976-3.92-9.239-3.92-15.903v-1.624c0-7.952,0.84-11.145,3.92-14.28c2.8-2.856,6.496-4.368,10.808-4.368
		c2.184,0,4.144,0.336,5.88,1.064c1.904,0.784,2.968,1.456,5.152,3.527l-5.152,5.152c-2.184-2.128-3.584-2.8-5.88-2.8
		c-2.072,0-3.752,0.672-4.984,2.072c-1.96,2.184-1.96,6.327-1.96,10.136v2.128c0,6.328,0.392,8.512,1.96,10.248
		c1.232,1.399,2.856,2.071,4.984,2.071c2.352,0,3.696-0.672,5.88-2.8l5.152,5.152C111.481,162.625,110.417,163.297,108.514,164.081z
		"/>
	<path fill="#EB2D2E" d="M143.398,164.809l-2.353-7.056h-14.168l-2.407,7.056h-8.12l14.504-39.872h6.104l14.561,39.872H143.398z
		 M134.103,136.696l-5.04,14.504h9.912L134.103,136.696z"/>
	<path fill="#EB2D2E" d="M176.994,161.057v4.032h-7.784v-4.032c-10.248-0.392-15.904-7.056-15.904-17.024
		c0-9.911,6.328-15.848,15.904-16.239v-3.136h7.784v3.136c9.576,0.392,15.904,6.328,15.904,16.239
		C192.898,154.001,187.242,160.665,176.994,161.057z M169.21,134.681c-5.544,0.28-8.12,3.64-8.12,9.688
		c0,5.823,2.688,9.464,8.12,9.8V134.681z M176.994,154.169c5.432-0.336,8.12-3.977,8.12-9.8c0-6.049-2.576-9.408-8.12-9.688V154.169
		z"/>
	<path fill="#EB2D2E" d="M228.396,164.809v-23.24l-7.615,15.12h-5.265l-7.672-15.12v23.24h-7.783v-39.872h7.672l10.416,21.561
		l10.359-21.561h7.672v39.872H228.396z"/>
	<path fill="#EB2D2E" d="M268.152,164.809l-2.353-7.056h-14.168l-2.407,7.056h-8.12l14.504-39.872h6.104l14.561,39.872H268.152z
		 M258.856,136.696l-5.04,14.504h9.912L258.856,136.696z"/>
	<path fill="#EB2D2E" d="M296.651,124.937c7.673,0,13.16,5.152,13.16,12.433c0,7.279-5.432,12.432-13.16,12.432h-7.672v15.008
		h-7.783v-39.872H296.651z M296.26,142.801c3.472,0,5.768-2.128,5.768-5.432c0-3.305-2.296-5.488-5.768-5.488h-7.28v10.92H296.26z"
		/>
	<path fill="#EB2D2E" d="M315.464,163.297v-8.681l5.32-5.208l-5.32-5.207v-8.681l13.944,13.888L315.464,163.297z M331.032,163.297
		v-8.681l5.264-5.208l-5.264-5.207v-8.681l14,13.888L331.032,163.297z"/>
	<path fill="#EB2D2E" d="M31.614,192.336h-7.537v-18.828h12.455v3.279h-8.779v3.808h3.861c3.781,0,6.108,2.433,6.108,5.871
		C37.723,189.903,35.422,192.336,31.614,192.336z M31.429,183.874h-3.675v5.183h3.675c1.64,0,2.618-1.031,2.618-2.591
		C34.047,184.932,33.068,183.874,31.429,183.874z"/>
	<path fill="#EB2D2E" d="M49.887,192.336v-15.549h-4.284l-0.211,7.88c-0.132,5.289-2.142,7.669-5.791,7.669h-1.613v-3.279h0.608
		c1.692,0,2.988-0.951,3.094-4.548l0.291-11.001h11.582v18.828H49.887z"/>
	<path fill="#EB2D2E" d="M67.63,192.336l-1.11-3.332h-6.69l-1.137,3.332h-3.834l6.849-18.828h2.882l6.875,18.828H67.63z
		 M63.241,179.062l-2.38,6.849h4.681L63.241,179.062z"/>
	<path fill="#EB2D2E" d="M76.489,176.787v15.549h-3.676v-18.828H84.66v3.279H76.489z"/>
	<path fill="#EB2D2E" d="M97.273,190.432c-1.322,1.375-3.041,2.062-5.077,2.062s-3.781-0.714-5.104-2.062
		c-1.983-2.036-1.851-5.156-1.851-7.245v-1.031c0-3.755,0.397-5.263,1.851-6.743c1.322-1.349,3.067-2.062,5.104-2.062
		c2.01,0,3.755,0.714,5.077,2.062s1.877,3.146,1.877,6.188v1.322C99.151,185.619,99.283,188.343,97.273,190.432z M94.55,177.634
		c-0.582-0.661-1.401-1.005-2.354-1.005c-0.952,0-1.798,0.344-2.38,1.005c-0.846,0.925-0.899,2.697-0.899,5.023
		c0,2.301-0.106,4.549,0.899,5.554c0.635,0.635,1.428,1.005,2.38,1.005c0.952,0,1.772-0.344,2.354-1.005
		c0.767-0.873,0.926-1.799,0.926-5.633C95.476,179.484,95.291,178.453,94.55,177.634z"/>
	<path fill="#EB2D2E" d="M108.565,176.787v15.549h-3.675v-15.549h-4.918v-3.279h13.513v3.279H108.565z"/>
	<path fill="#EB2D2E" d="M127.896,183.688c0.82,0.873,1.164,1.931,1.164,3.253c0,3.306-2.222,5.395-5.765,5.395h-7.88v-18.828h7.563
		c3.543,0,5.817,2.01,5.817,5.184c0,1.798-0.767,3.12-2.327,3.992C127.208,183.081,127.499,183.292,127.896,183.688z
		 M122.687,181.124c1.507,0,2.433-0.82,2.433-2.169s-0.926-2.168-2.433-2.168h-3.597v4.337H122.687z M122.925,189.057
		c1.507,0,2.459-0.898,2.459-2.327c0-1.428-0.952-2.3-2.459-2.3h-3.835v4.627H122.925z"/>
	<path fill="#EB2D2E" d="M143.153,190.432c-1.322,1.375-3.041,2.062-5.077,2.062s-3.781-0.714-5.104-2.062
		c-1.983-2.036-1.851-5.156-1.851-7.245v-1.031c0-3.755,0.396-5.263,1.851-6.743c1.322-1.349,3.067-2.062,5.104-2.062
		c2.01,0,3.755,0.714,5.077,2.062s1.878,3.146,1.878,6.188v1.322C145.031,185.619,145.163,188.343,143.153,190.432z M140.43,177.634
		c-0.582-0.661-1.401-1.005-2.354-1.005s-1.798,0.344-2.38,1.005c-0.846,0.925-0.899,2.697-0.899,5.023
		c0,2.301-0.105,4.549,0.899,5.554c0.635,0.635,1.428,1.005,2.38,1.005s1.771-0.344,2.354-1.005
		c0.767-0.873,0.926-1.799,0.926-5.633C141.355,179.484,141.17,178.453,140.43,177.634z"/>
	<path fill="#EB2D2E" d="M155.027,173.508c3.623,0,6.214,2.434,6.214,5.871s-2.564,5.87-6.214,5.87h-3.623v7.087h-3.676v-18.828
		H155.027z M154.842,181.943c1.64,0,2.725-1.005,2.725-2.564c0-1.561-1.085-2.592-2.725-2.592h-3.438v5.156H154.842z"/>
	<path fill="#EB2D2E" d="M173.882,192.336v-12.085l-7.325,12.085h-3.279v-18.828h3.676v12.059l7.325-12.059h3.279v18.828H173.882z"
		/>
	<path fill="#EB2D2E" d="M188.082,176.787v15.549h-3.676v-15.549h-4.919v-3.279H193v3.279H188.082z"/>
	<path fill="#EB2D2E" d="M194.93,192.336v-18.828h12.402v3.279h-8.727v4.416h7.431v3.279h-7.431v4.574h8.727v3.279H194.93z"/>
	<path fill="#EB2D2E" d="M219.92,192.336v-15.549h-4.283l-0.212,7.88c-0.132,5.289-2.142,7.669-5.791,7.669h-1.613v-3.279h0.608
		c1.692,0,2.988-0.951,3.094-4.548l0.291-11.001h11.582v18.828H219.92z"/>
	<path fill="#EB2D2E" d="M234.357,192.336h-7.404v-18.828h3.676v7.087h3.729c3.676,0,6.108,2.433,6.108,5.871
		C240.466,189.903,238.007,192.336,234.357,192.336z M234.066,183.874h-3.438v5.183h3.438c1.666,0,2.725-1.031,2.725-2.591
		C236.791,184.932,235.732,183.874,234.066,183.874z"/>
	<path fill="#EB2D2E" d="M252.551,192.336v-7.88h-6.373v7.88h-3.676v-18.828h3.676v7.695h6.373v-7.695h3.676v18.828H252.551z"/>
	<path fill="#EB2D2E" d="M266.963,192.336h-7.404v-18.828h3.676v7.087h3.729c3.676,0,6.108,2.433,6.108,5.871
		C273.071,189.903,270.612,192.336,266.963,192.336z M266.672,183.874h-3.438v5.183h3.438c1.666,0,2.725-1.031,2.725-2.591
		C269.396,184.932,268.338,183.874,266.672,183.874z M275.107,192.336v-18.828h3.676v18.828H275.107z"/>
	<path fill="#EB2D2E" d="M292.719,192.336v-12.085l-7.325,12.085h-3.279v-18.828h3.676v12.059l7.325-12.059h3.279v18.828H292.719z
		 M289.281,172.503c-2.618,0-4.046-1.428-4.284-3.913h2.327c0.185,0.952,0.793,1.507,1.983,1.507c1.189,0,1.771-0.555,1.93-1.507
		h2.354C293.327,171.075,291.898,172.503,289.281,172.503z"/>
	<path fill="#EB2D2E" d="M314.985,190.564v1.903h-3.676v-1.903c-4.84-0.186-7.51-3.332-7.51-8.039c0-4.681,2.987-7.483,7.51-7.669
		v-1.48h3.676v1.48c4.521,0.186,7.51,2.988,7.51,7.669C322.495,187.232,319.824,190.379,314.985,190.564z M311.31,178.109
		c-2.618,0.132-3.835,1.719-3.835,4.574c0,2.751,1.27,4.47,3.835,4.628V178.109z M314.985,187.312
		c2.564-0.158,3.834-1.877,3.834-4.628c0-2.855-1.217-4.442-3.834-4.574V187.312z"/>
	<path fill="#EB2D2E" d="M336.219,190.432c-1.322,1.375-3.041,2.062-5.077,2.062s-3.781-0.714-5.104-2.062
		c-1.983-2.036-1.851-5.156-1.851-7.245v-1.031c0-3.755,0.396-5.263,1.851-6.743c1.322-1.349,3.067-2.062,5.104-2.062
		c2.01,0,3.755,0.714,5.077,2.062s1.878,3.146,1.878,6.188v1.322C338.097,185.619,338.229,188.343,336.219,190.432z
		 M333.495,177.634c-0.582-0.661-1.401-1.005-2.354-1.005s-1.798,0.344-2.38,1.005c-0.846,0.925-0.899,2.697-0.899,5.023
		c0,2.301-0.105,4.549,0.899,5.554c0.635,0.635,1.428,1.005,2.38,1.005s1.771-0.344,2.354-1.005
		c0.767-0.873,0.926-1.799,0.926-5.633C334.421,179.484,334.235,178.453,333.495,177.634z"/>
	<path fill="#EB2D2E" d="M350.842,192.336v-7.88h-6.373v7.88h-3.676v-18.828h3.676v7.695h6.373v-7.695h3.676v18.828H350.842z"/>
	<path fill="#EB2D2E" d="M370.146,196.514v-4.178h-10.419v4.178h-3.543v-7.457h1.877c1.48-3.729,2.142-7.457,2.142-14.702v-0.847
		h11.318v15.549h2.168v7.457H370.146z M367.846,176.787h-4.02v0.608c0,5.579-0.793,8.488-1.957,11.661h5.977V176.787z"/>
</g>
<path fill="#0085C3" d="M197.629,19.523c101.143,0,183.558,80.131,187.253,180.375c0.087-2.333,0.144-4.671,0.144-7.025
	c0-103.496-83.899-187.396-187.396-187.396C94.13,5.476,10.23,89.376,10.23,192.872c0,2.354,0.057,4.692,0.144,7.025
	C14.069,99.654,96.484,19.523,197.629,19.523z"/>
<g>
</g>
<g>
</g>
<g>
</g>
<g>
</g>
<g>
</g>
<g>
</g>
</svg>
