<?xml version="1.0" encoding="utf-8"?>
<!-- Generator: Adobe Illustrator 16.0.0, SVG Export Plug-In . SVG Version: 6.00 Build 0)  -->
<!DOCTYPE svg PUBLIC "-//W3C//DTD SVG 1.1//EN" "http://www.w3.org/Graphics/SVG/1.1/DTD/svg11.dtd">
<svg version="1.1" id="Layer_1" xmlns="http://www.w3.org/2000/svg" xmlns:xlink="http://www.w3.org/1999/xlink" x="0px" y="0px"
	 width="92.118px" height="16.378px" viewBox="0 0 92.118 16.378" enable-background="new 0 0 92.118 16.378" xml:space="preserve">
<g>
	<path fill="#FFFFFF" d="M17.848,11.573h-1.811V4.518h-3.152v7.055h-1.816V3.006h6.779V11.573z"/>
	<path fill="#FFFFFF" d="M27.785,7.278c0,1.418-0.352,2.508-1.055,3.27s-1.711,1.143-3.023,1.143s-2.32-0.381-3.023-1.143
		s-1.055-1.855-1.055-3.281S19.981,4.751,20.687,4s1.716-1.128,3.032-1.128s2.323,0.379,3.021,1.137S27.785,5.856,27.785,7.278z
		 M21.533,7.278c0,0.957,0.182,1.678,0.545,2.162s0.906,0.727,1.629,0.727c1.449,0,2.174-0.963,2.174-2.889
		c0-1.93-0.721-2.895-2.162-2.895c-0.723,0-1.268,0.243-1.635,0.729S21.533,6.321,21.533,7.278z"/>
	<path fill="#FFFFFF" d="M28.541,10.061h0.662c0.566-1.133,1.014-2.265,1.342-3.396s0.572-2.351,0.732-3.659h4.992v7.055h1.143
		v4.008H35.66v-2.496h-5.367v2.496h-1.752V10.061z M32.719,4.518c-0.125,0.895-0.333,1.842-0.624,2.842s-0.618,1.9-0.981,2.701
		h3.346V4.518H32.719z"/>
	<path fill="#FFFFFF" d="M44.648,5.678c0,0.922-0.288,1.627-0.864,2.115s-1.396,0.732-2.458,0.732h-0.779v3.047H38.73V3.006h2.736
		c1.039,0,1.829,0.224,2.37,0.671S44.648,4.792,44.648,5.678z M40.547,7.038h0.598c0.559,0,0.977-0.11,1.254-0.331
		s0.416-0.542,0.416-0.964c0-0.426-0.116-0.74-0.349-0.943s-0.597-0.305-1.093-0.305h-0.826V7.038z"/>
	<path fill="#FFFFFF" d="M54.041,7.278c0,1.418-0.352,2.508-1.055,3.27s-1.711,1.143-3.023,1.143s-2.32-0.381-3.023-1.143
		s-1.055-1.855-1.055-3.281S46.237,4.751,46.942,4s1.716-1.128,3.032-1.128s2.323,0.379,3.021,1.137S54.041,5.856,54.041,7.278z
		 M47.789,7.278c0,0.957,0.182,1.678,0.545,2.162s0.906,0.727,1.629,0.727c1.449,0,2.174-0.963,2.174-2.889
		c0-1.93-0.721-2.895-2.162-2.895c-0.723,0-1.268,0.243-1.635,0.729S47.789,6.321,47.789,7.278z"/>
	<path fill="#FFFFFF" d="M57.633,6.293h0.715c1.117,0,1.98,0.227,2.59,0.68s0.914,1.094,0.914,1.922c0,1.785-1.18,2.678-3.539,2.678
		h-2.496V3.006h5.414v1.5h-3.598V6.293z M57.633,10.084h0.609c0.613,0,1.062-0.099,1.348-0.296s0.428-0.495,0.428-0.894
		c0-0.395-0.145-0.679-0.434-0.853s-0.785-0.261-1.488-0.261h-0.463V10.084z"/>
	<path fill="#FFFFFF" d="M70.494,11.573h-1.811V7.875h-3.393v3.697h-1.816V3.006h1.816v3.357h3.393V3.006h1.811V11.573z"/>
	<path fill="#FFFFFF" d="M77.59,11.573h-4.934V3.006h4.934v1.488h-3.117v1.881h2.9v1.488h-2.9v2.209h3.117V11.573z"/>
	<path fill="#FFFFFF" d="M84.311,11.573h-4.934V3.006h4.934v1.488h-3.117v1.881h2.9v1.488h-2.9v2.209h3.117V11.573z"/>
</g>
<g>
</g>
<g>
</g>
<g>
</g>
<g>
</g>
<g>
</g>
<g>
</g>
</svg>
