<?xml version="1.0" encoding="utf-8"?>
<!-- Generator: Adobe Illustrator 21.1.0, SVG Export Plug-In . SVG Version: 6.00 Build 0)  -->
<svg version="1.1" id="Слой_1" xmlns="http://www.w3.org/2000/svg" xmlns:xlink="http://www.w3.org/1999/xlink" x="0px" y="0px"
	 viewBox="0 0 89.3 20.7" style="enable-background:new 0 0 89.3 20.7;" xml:space="preserve">
<style type="text/css">
	.st0{fill:#3F89C8;}
</style>
<g>
	<path class="st0" d="M35.6,13.3c-0.4,0.2-1.2,0.4-2.1,0.4c-2.3,0-4-1.4-4-4.1c0-2.5,1.7-4.2,4.2-4.2c1,0,1.6,0.2,1.9,0.4l-0.3,0.9
		c-0.4-0.2-1-0.3-1.6-0.3c-1.9,0-3.2,1.2-3.2,3.3c0,2,1.1,3.3,3.1,3.3c0.6,0,1.3-0.1,1.7-0.3L35.6,13.3z"/>
	<path class="st0" d="M43.7,10.1c-0.1-1.1-0.1-2.5-0.1-3.5h0c-0.3,0.9-0.6,2-1,3.1l-1.4,3.9h-0.8L39,9.7c-0.4-1.1-0.7-2.2-0.9-3.1h0
		c0,1-0.1,2.4-0.2,3.6l-0.2,3.5h-1l0.6-8.1h1.3L40,9.4c0.3,1,0.6,1.9,0.8,2.7h0c0.2-0.8,0.5-1.7,0.9-2.7l1.4-3.9h1.3l0.5,8.1h-1
		L43.7,10.1z"/>
	<path class="st0" d="M53.5,9.5c0,2.8-1.7,4.3-3.8,4.3c-2.1,0-3.6-1.7-3.6-4.1c0-2.6,1.6-4.2,3.8-4.2C52.1,5.4,53.5,7.1,53.5,9.5z
		 M47.2,9.6c0,1.7,0.9,3.3,2.6,3.3c1.7,0,2.6-1.5,2.6-3.4c0-1.6-0.8-3.3-2.6-3.3C48.1,6.2,47.2,7.8,47.2,9.6z"/>
	<path class="st0" d="M56.3,6.4h-2.5V5.5h6v0.9h-2.5v7.2h-1.1V6.4z"/>
	<path class="st0" d="M60.7,5.6c0.5-0.1,1.2-0.2,2-0.2c1,0,1.8,0.2,2.3,0.7c0.4,0.4,0.7,1,0.7,1.7c0,0.7-0.2,1.3-0.6,1.7
		c-0.6,0.6-1.5,0.9-2.5,0.9c-0.3,0-0.6,0-0.8-0.1v3.2h-1V5.6z M61.8,9.5c0.2,0.1,0.5,0.1,0.9,0.1c1.3,0,2-0.6,2-1.7
		c0-1.1-0.8-1.6-1.9-1.6c-0.5,0-0.8,0-1,0.1V9.5z"/>
	<path class="st0" d="M71.3,9.8h-3.1v2.9h3.5v0.9h-4.5V5.5h4.4v0.9h-3.3V9h3.1V9.8z"/>
	<path class="st0" d="M74.6,6.4h-2.5V5.5h6v0.9h-2.5v7.2h-1.1V6.4z"/>
	<path class="st0" d="M80.1,5.5v3c0.2,0,0.7-0.1,1-0.1c1.7,0,3.1,0.7,3.1,2.5c0,0.8-0.2,1.3-0.6,1.7c-0.7,0.7-1.8,0.9-2.9,0.9
		c-0.7,0-1.3,0-1.6-0.1V5.5H80.1z M80.1,12.8c0.2,0,0.5,0.1,0.9,0.1c1.2,0,2.2-0.6,2.2-1.8c0-1.3-1-1.8-2.2-1.8
		c-0.3,0-0.6,0-0.9,0.1V12.8z"/>
</g>
<path class="st0" d="M14.8,16.1C14.8,16.1,14.8,16.1,14.8,16.1c-1.9,0-4-0.1-6.2-0.2c-1.3-0.1-2.3-1.1-2.4-2.4
	c-0.2-2.3-0.2-4.6,0-6.8c0.1-1.3,1.1-2.3,2.4-2.4c3.8-0.2,7.7-0.2,11.6,0c1.3,0.1,2.3,1.1,2.4,2.4c0.2,2.2,0.2,4.5,0,6.8
	c-0.1,1.4-1.1,2.3-2.4,2.4C18.5,16,16.7,16.1,14.8,16.1z M14.4,4.7c-1.9,0-3.8,0.1-5.7,0.2C7.7,5,6.9,5.7,6.8,6.7
	c-0.2,2.2-0.2,4.5,0,6.7c0.1,1.1,0.8,1.8,1.8,1.9c2.2,0.1,4.3,0.2,6.2,0.2c1.9,0,3.7-0.1,5.3-0.2c1-0.1,1.7-0.8,1.8-1.9
	c0.2-2.3,0.2-4.6,0-6.7c-0.1-1-0.9-1.8-1.8-1.9C18.2,4.8,16.3,4.7,14.4,4.7z M12.8,7.8v4.4L17,10L12.8,7.8z"/>
</svg>
